<?xml version="1.0" encoding="UTF-8"?>
<svg version="1.1" viewBox="0 0 900 212.65" xml:space="preserve" xmlns="http://www.w3.org/2000/svg" fill="#fff"><path d="m444.86 75.307v6.7009h-25.249v-37.526h24.714v6.7012h-17.692v8.4691h16.084v6.7025h-16.084v8.9518h18.226" stroke-width=".13333"/><path d="m461.43 82.275c-7.4518 0-13.562-5.7359-13.562-13.617 0-7.9878 6.3252-13.724 13.83-13.724 6.1118 0 11.31 3.8066 12.812 10.078h-7.2892c-1.1266-2.1973-3.1106-3.5919-5.6839-3.5919-3.7532 0-6.7545 3.0026-6.7545 7.1838s3.0013 7.1838 6.7545 7.1838c2.4119 0 4.2892-1.2333 5.4679-3.2173h7.3438c-1.7146 6.3798-7.2372 9.7038-12.918 9.7038" stroke-width=".13333"/><path d="m498.41 68.6c0-4.1812-2.4666-7.4518-6.5398-7.4518-4.0746 0-6.8092 3.2706-6.8092 7.4518s2.7346 7.4518 6.8092 7.4518c4.0732 0 6.5398-3.2706 6.5398-7.4518zm-20.37 0.05333c0-8.5771 6.6465-13.724 13.83-13.724 7.2358 0 13.561 5.2012 13.561 13.617 0 8.5238-6.5398 13.724-13.777 13.724-7.2892 0-13.614-5.1999-13.614-13.617" stroke-width=".13333"/><path d="m535.73 67.48v14.528h-7.1305v-12.919c0-0.91198 0.64399-7.6665-4.5026-7.9345-2.5199-0.16-7.0225 1.2333-7.0225 8.2558v12.598h-7.0772v-26.805h5.4692l0.90931 3.2706h0.91198c1.1266-1.34 3.6452-3.5386 8.1491-3.5386 6.9158 0 10.293 5.1465 10.293 12.545" stroke-width=".13333"/><path d="m560.72 68.6c0-4.1812-2.4653-7.4518-6.5398-7.4518-4.0746 0-6.8078 3.2706-6.8078 7.4518s2.7333 7.4518 6.8078 7.4518c4.0746 0 6.5398-3.2706 6.5398-7.4518zm-20.37 0.05333c0-8.5771 6.6465-13.724 13.83-13.724 7.2372 0 13.562 5.2012 13.562 13.617 0 8.5238-6.5398 13.724-13.777 13.724-7.2905 0-13.616-5.1999-13.616-13.617" stroke-width=".13333"/><path d="m612.34 67.48v14.528h-7.1292v-12.919c0-3.6999 0.37599-8.3625-4.5572-7.9345-1.2853 0.108-4.8252 0.69732-4.8252 8.2558v12.598h-7.0745v-12.919c0-3.6999 0.37466-8.3625-4.5572-7.9345-1.2866 0.108-4.8239 0.69732-4.8239 8.2558v12.598h-7.0772v-26.805h5.4679l0.80398 2.8946h0.85865c1.0173-1.34 3.1626-3.1079 6.4865-3.1626 3.0013-0.05333 5.5745 1.34 7.3438 3.6986h0.80398c1.34-1.6613 3.8066-3.6986 8.1478-3.7519 6.9692-0.05333 10.132 5.1465 10.132 12.598" stroke-width=".13333"/><path d="m624.84 82.007h-6.8612v-26.805h6.8612zm-8.0411-34.31c0-2.5733 2.0906-4.5559 4.6106-4.5559 2.4666 0 4.5026 1.9826 4.5026 4.5559 0 2.4119-2.036 4.5039-4.5026 4.5039-2.5199 0-4.6106-2.0919-4.6106-4.5039" stroke-width=".13333"/><path d="m643.4 82.275c-7.4518 0-13.562-5.7359-13.562-13.617 0-7.9878 6.3265-13.724 13.83-13.724 6.1118 0 11.312 3.8066 12.813 10.078h-7.2905c-1.1266-2.1973-3.1093-3.5919-5.6839-3.5919-3.7519 0-6.7532 3.0026-6.7532 7.1838s3.0013 7.1838 6.7532 7.1838c2.4133 0 4.2892-1.2333 5.4692-3.2173h7.3452c-1.716 6.3798-7.2385 9.7038-12.921 9.7038" stroke-width=".13333"/><path d="m434.99 125.67v-0.53652c-4.8799 0.53652-9.7038 1.1265-9.7038 3.914 0 4.0743 9.2744 3.7524 9.7038-3.3775zm9.7558 6.1117v5.1463h-1.608c-3.1092 0-5.3079-1.1265-6.2185-3.4316-1.608 2.1983-4.2892 3.6999-8.4704 3.6999-6.0572 0-9.9171-3.1093-9.9171-7.9353 0-8.3618 11.418-9.1127 16.565-9.381-0.10667-3.1088-1.8226-4.2343-4.5572-4.2343-3.8052 0-4.0746 2.3046-4.0746 2.3046h-6.6998c0.48132-4.7707 4.3946-8.0951 10.936-8.0951 6.3785 0 10.882 3.1635 10.882 10.936v7.13c0 3.1094 1.1266 3.8603 3.1626 3.8603" stroke-width=".13333"/><path d="m474.45 122.4v14.529h-7.1292v-12.919c0-0.91091 0.64265-7.6665-4.5039-7.9347-2.5199-0.16039-7.0225 1.2333-7.0225 8.2566v12.598h-7.0772v-26.805h5.4692l0.91065 3.2702h0.91064c1.1266-1.34 3.6466-3.5384 8.1505-3.5384 6.9145 0 10.292 5.1468 10.292 12.544" stroke-width=".13333"/><path d="m498.47 123.53c0-4.4495-2.4133-7.076-5.8972-7.076-3.2706 0-6.5398 2.3589-6.5398 7.076 0 4.717 3.2692 7.0769 6.5398 7.0769 3.4839 0 5.8972-2.6275 5.8972-7.0769zm6.6998-24.659v38.062h-5.2532l-0.75065-2.5729h-0.80398c-1.6613 1.8224-3.9132 2.8411-6.8078 2.8411-6.8078 0-12.49-5.5759-12.49-13.67 0-8.0945 5.6825-13.67 12.49-13.67 2.7879 0 5.1999 0.96571 6.9158 2.8953v-13.885h6.6998" stroke-width=".13333"/><path d="m537.88 137.2c-8.2025 0-13.885-5.3608-13.885-12.384h6.9692c0.64265 4.6639 4.5026 5.7368 6.8625 5.7368 1.8226 0 5.4665-0.64478 5.4665-4.129 0-3.1625-3.0546-4.449-6.1105-5.6285-5.0385-1.9828-12.169-4.3958-12.169-11.525 0-6.3258 5.5225-10.186 12.222-10.186 7.7731 0 12.116 5.2004 12.116 9.9711h-6.8612c-0.37599-2.0906-2.6813-3.4311-5.3612-3.4311-2.5746 0-4.7172 1.2869-4.7172 3.6456 0 2.3047 2.0893 3.216 5.7359 4.878 3.9132 1.7693 12.276 3.8603 12.276 12.329 0 7.0228-5.7358 10.723-12.544 10.723" stroke-width=".13333"/><path d="m574.17 123.53c0-4.1818-2.4653-7.4519-6.5398-7.4519-4.0746 0-6.8078 3.2702-6.8078 7.4519 0 4.1806 2.7333 7.4513 6.8078 7.4513 4.0746 0 6.5398-3.2707 6.5398-7.4513zm-20.37 0.0531c0-8.5768 6.6465-13.724 13.83-13.724 7.2372 0 13.562 5.2004 13.562 13.617 0 8.5232-6.5398 13.724-13.777 13.724-7.2905 0-13.616-5.2009-13.616-13.617" stroke-width=".13333"/><path d="m598.47 137.2c-7.4518 0-13.562-5.7373-13.562-13.617 0-7.9873 6.3252-13.724 13.83-13.724 6.1118 0 11.312 3.8067 12.813 10.079h-7.2905c-1.1266-2.1983-3.1093-3.5926-5.6839-3.5926-3.7519 0-6.7532 3.0019-6.7532 7.1837 0 4.1806 3.0013 7.1832 6.7532 7.1832 2.4133 0 4.2892-1.2329 5.4692-3.2162h7.3425c-1.7146 6.3796-7.2358 9.7035-12.918 9.7035" stroke-width=".13333"/><path d="m623.72 136.93h-6.8612v-26.805h6.8612zm-8.0411-34.31c0-2.5729 2.092-4.5562 4.6106-4.5562 2.4666 0 4.5026 1.9833 4.5026 4.5562 0 2.4125-2.036 4.5035-4.5026 4.5035-2.5186 0-4.6106-2.091-4.6106-4.5035" stroke-width=".13333"/><path d="m645.26 125.67v-0.53652c-4.8786 0.53652-9.7038 1.1265-9.7038 3.914 0 4.0743 9.2744 3.7524 9.7038-3.3775zm9.7571 6.1117v5.1463h-1.6093c-3.1079 0-5.3079-1.1265-6.2172-3.4316-1.6093 2.1983-4.2892 3.6999-8.4718 3.6999-6.0572 0-9.9158-3.1093-9.9158-7.9353 0-8.3618 11.417-9.1127 16.565-9.381-0.108-3.1088-1.824-4.2343-4.5572-4.2343-3.8066 0-4.0746 2.3046-4.0746 2.3046h-6.6998c0.48132-4.7707 4.3946-8.0951 10.936-8.0951 6.3785 0 10.881 3.1635 10.881 10.936v7.13c0 3.1094 1.1266 3.8603 3.1639 3.8603" stroke-width=".13333"/><path d="m665.48 98.866v38.062h-6.9692v-38.062h6.9692" stroke-width=".13333"/><path d="m426.42 171.43h5.8972c3.0559 0 5.0919-2.3598 5.0919-5.4691 0-3.1094-2.0893-4.9322-5.0919-4.9322h-5.8972zm12.437 20.423-7.9878-13.777h-4.4492v13.777h-6.8078v-37.526h13.241c6.1652 0 11.633 4.128 11.633 11.526 0 5.1452-2.8946 9.0596-6.7545 10.936l9.0598 15.064h-7.9345" stroke-width=".13333"/><path d="m455.04 175.07h12.06c-0.80265-3.1623-3.0013-4.4488-5.6812-4.4488-2.9479 0-5.3079 1.6609-6.3785 4.4488zm19.137 5.4161h-19.568c0.80531 4.0732 4.1279 5.5732 7.0238 5.5732 3.6439 0 5.1985-2.2505 5.1985-2.2505h6.7558c-2.0373 5.3599-6.9158 8.3093-12.169 8.3093-7.2372 0-13.562-5.5212-13.562-13.885 0-8.3081 6.2718-13.456 13.348-13.456 6.8612 0 13.832 4.7717 12.973 15.709" stroke-width=".13333"/><path d="m488.81 170.46c-2.252 0-3.2173 1.1266-3.2173 2.2521 0 1.8224 2.4133 2.3582 4.0212 2.6797 4.7705 1.0202 9.5958 2.4666 9.5958 8.1493 0 5.5212-4.5572 8.5774-10.078 8.5774-6.1638 0-10.936-3.752-11.258-9.4347h6.5945c0.16133 1.6078 1.2333 3.6972 4.5039 3.6972 2.7333 0 3.3772-1.4468 3.3772-2.5718 0-1.9842-1.876-2.5733-3.6999-3.0014-3.1626-0.69852-9.9704-1.9854-9.9704-8.0957 0-5.2535 5.0385-7.9347 10.24-7.9347 6.0038 0 9.9704 3.6468 10.292 8.1493h-6.5932c-0.21466-0.91197-1.0733-2.4666-3.8066-2.4666" stroke-width=".13333"/><path d="m509.73 175.07h12.061c-0.80264-3.1623-3.0012-4.4488-5.6825-4.4488-2.9479 0-5.3065 1.6609-6.3785 4.4488zm19.138 5.4161h-19.568c0.80398 4.0732 4.1279 5.5732 7.0225 5.5732 3.6452 0 5.1999-2.2505 5.1999-2.2505h6.7545c-2.036 5.3599-6.9145 8.3093-12.169 8.3093-7.2358 0-13.562-5.5212-13.562-13.885 0-8.3081 6.2732-13.456 13.348-13.456 6.8625 0 13.832 4.7717 12.974 15.709" stroke-width=".13333"/><path d="m548.87 180.59v-0.53746c-4.8786 0.53746-9.7038 1.1265-9.7038 3.9144 0 4.0734 9.2744 3.752 9.7038-3.377zm9.7571 6.1102v5.1468h-1.6093c-3.1079 0-5.3065-1.1265-6.2172-3.4306-1.6093 2.1973-4.2892 3.6988-8.4718 3.6988-6.0572 0-9.9158-3.1094-9.9158-7.9347 0-8.3623 11.417-9.1134 16.565-9.381-0.108-3.1094-1.8226-4.2348-4.5572-4.2348-3.8066 0-4.0746 2.3051-4.0746 2.3051h-6.6998c0.48132-4.7717 4.3959-8.0957 10.936-8.0957 6.3785 0 10.881 3.1624 10.881 10.936v7.1305c0 3.1094 1.1266 3.8598 3.1639 3.8598" stroke-width=".13333"/><path d="m579.75 164.78v6.8624c-0.53732-0.10627-1.448-0.21307-2.3599-0.21307-3.7519 0-7.6652 1.9292-7.6652 6.8613v13.562h-7.1292v-26.805h5.4679l0.96531 2.9489h0.85598c1.18-1.1786 3.8079-3.2171 8.2038-3.2171h1.6613" stroke-width=".13333"/><path d="m594.92 192.12c-7.4518 0-13.562-5.7374-13.562-13.617 0-7.9863 6.3252-13.724 13.83-13.724 6.1118 0 11.31 3.8067 12.812 10.08h-7.2905c-1.1253-2.2-3.1093-3.5922-5.6825-3.5922-3.7532 0-6.7545 3.0015-6.7545 7.1826 0 4.1812 3.0012 7.1837 6.7545 7.1837 2.4119 0 4.2892-1.2333 5.4679-3.216h7.3452c-1.716 6.3785-7.2385 9.703-12.92 9.703" stroke-width=".13333"/><path d="m637.97 177.32v14.529h-7.1838v-12.918c0-2.6281 0.42932-7.9357-4.3959-7.9357-2.3573 0-6.9145 1.2333-6.9145 8.2571v12.597h-7.1838v-38.062h6.8078v14.045h0.91198c1.2866-1.3401 3.7519-3.0562 7.7198-3.0562 6.9158 0 10.238 5.1479 10.238 12.544" stroke-width=".13333"/><path d="m687.41 180.59c-2.144 7.1826-8.1478 11.525-15.385 11.525-9.8118 0-16.94-8.0415-16.94-19.03 0-10.989 7.0745-19.032 16.886-19.032 7.1838 0 13.294 4.3426 15.438 11.526h-8.0945c-1.3933-3.0025-3.9132-4.4488-7.2372-4.4488-6.1118 0-9.5958 4.9837-9.5958 11.954 0 6.9676 3.5386 11.954 9.7024 11.954 3.3239 0 5.7372-1.4468 7.1305-4.4494h8.0945" stroke-width=".13333"/><path d="m710.73 178.45c0-4.1811-2.4653-7.4518-6.5398-7.4518-4.0746 0-6.8092 3.2707-6.8092 7.4518 0 4.1812 2.7346 7.452 6.8092 7.452 4.0746 0 6.5398-3.2707 6.5398-7.452zm-20.37 0.0532c0-8.5758 6.6465-13.724 13.83-13.724 7.2372 0 13.562 5.2015 13.562 13.617 0 8.5243-6.5412 13.724-13.777 13.724-7.2905 0-13.616-5.1999-13.616-13.617" stroke-width=".13333"/><path d="m747.99 165.05v26.805h-5.3599l-0.96531-3.0026h-0.69598c-1.0733 1.3412-3.4306 3.2708-7.8265 3.2708-7.1305 0-10.776-5.0389-10.776-12.544v-14.529h7.2892v12.919c0 3.3239 0.26933 7.9347 4.8799 7.9347 2.3586 0 6.2185-1.2333 6.2185-8.2561v-12.598h7.2358" stroke-width=".13333"/><path d="m780.06 177.32v14.529h-7.1292v-12.918c0-0.91184 0.64265-7.6665-4.5039-7.9357-2.5199-0.15986-7.0225 1.2333-7.0225 8.2571v12.597h-7.0772v-26.805h5.4692l0.91065 3.2718h0.91064c1.1266-1.3412 3.6466-3.54 8.1505-3.54 6.9145 0 10.292 5.1479 10.292 12.544" stroke-width=".13333"/><path d="m798.23 192.12c-7.4518 0-13.562-5.7374-13.562-13.617 0-7.9863 6.3252-13.724 13.83-13.724 6.1118 0 11.312 3.8067 12.813 10.08h-7.2905c-1.1266-2.2-3.1093-3.5922-5.6839-3.5922-3.7519 0-6.7532 3.0015-6.7532 7.1826 0 4.1812 3.0012 7.1837 6.7532 7.1837 2.4133 0 4.2892-1.2333 5.4692-3.216h7.3438c-1.716 6.3785-7.2372 9.703-12.92 9.703" stroke-width=".13333"/><path d="m823.49 191.85h-6.8625v-26.805h6.8625zm-8.0425-34.308c0-2.5734 2.092-4.5572 4.6106-4.5572 2.4666 0 4.5026 1.9838 4.5026 4.5572 0 2.4119-2.036 4.5024-4.5026 4.5024-2.5186 0-4.6106-2.0905-4.6106-4.5024" stroke-width=".13333"/><path d="m836.35 153.79v38.062h-6.9692v-38.062h6.9692" stroke-width=".13333"/><path d="m0 23.684v188.97h188.97v-188.97h-188.97zm20.799 20.791h22.035v41.875c0 8.9636 6.6379 14.168 15.443 14.168 8.8044 0 15.441-5.2037 15.441-14.168v-41.875h42.805v31.545l29.621-31.545h22.033v4.5586l-31.582 32.234 31.582 32.34v19.441h-25.826v43.92h25.826v14.885h-95.357l-20.361-27.309h-9.625v27.309h-22.035v-73.689h32.469c-17.21-1.7573-32.469-12.596-32.469-31.494v-42.195zm95.723 42.059v31.631h29.621l-29.621-31.631zm-22.031 9.0879c-3.9959 13.385-17.207 21.095-31.496 22.547 16.014 0.04013 26.804 3.719 31.496 11.641v-34.187zm-51.656 37.428v16.609h20.16c8.2883 0 11.646-3.3129 11.646-8.3555 0-5.0411-3.3582-8.2539-11.646-8.2539h-20.16zm53.162 0c0.86398 2.4342 1.3027 5.178 1.3027 8.2539 0 12.464-7.1473 19.62-20.988 22.168l18.18 23.824v-10.326h25.826v-43.92h-24.32z" stroke-width=".13333"/><path d="m303.89 44.868 20.762-21.193 23.203-23.682h-158.88v212.65h135.94l-92.555-94.774 71.514-72.996" fill-opacity=".7" stroke-width=".13333"/><path d="m324.65 23.681-20.762 21.193-8e-3 0.0093-71.514 72.996 92.555 94.774h53.021v-188.97h-53.292" fill-opacity=".9" stroke-width=".13333"/></svg>
