<?xml version="1.0" encoding="UTF-8" standalone="no"?>
<svg
   class="icon"
   width="56.181999"
   height="56.181999"
   version="1.1"
   viewBox="0 0 56.181998 101.39193"
   xml:space="preserve"
   id="svg11"
   xmlns="http://www.w3.org/2000/svg"
   xmlns:svg="http://www.w3.org/2000/svg"
   xmlns:rdf="http://www.w3.org/1999/02/22-rdf-syntax-ns#"
   xmlns:cc="http://creativecommons.org/ns#"
   xmlns:dc="http://purl.org/dc/elements/1.1/"><defs
     id="defs5"><clipPath
       id="a"><path
         d="M 0,841.89 H 595.276 V 0 H 0 Z"
         id="path2" /></clipPath></defs><title
     id="title7">Mapping Creative Education</title><path
     transform="matrix(1.3349792,0,0,-1.3333,-224.69468,335.00774)"
     d="m 178.39,251.26208 c 0.0932,0.001 0.16941,-0.076 0.1692,-0.17184 -0.001,-0.0948 -0.077,-0.17063 -0.1692,-0.1692 -0.0911,8e-5 -0.16534,0.0754 -0.16655,0.1692 -2e-4,0.0948 0.0744,0.17175 0.16655,0.17184 z m 5.1844,-0.082 c 0.0922,-8e-5 0.16676,-0.0771 0.16656,-0.17185 2e-4,-0.0948 -0.0744,-0.17176 -0.16656,-0.17184 -0.0922,8e-5 -0.16676,0.0771 -0.16656,0.17184 -2e-4,0.0948 0.0744,0.17177 0.16656,0.17185 z m -2.613,-2.32161 c 0.20431,-2.7e-4 0.36987,-0.17055 0.37013,-0.3807 -2.6e-4,-0.21015 -0.16582,-0.38043 -0.37013,-0.3807 -0.2043,2.7e-4 -0.36986,0.17056 -0.37012,0.3807 2.6e-4,0.21014 0.16582,0.38043 0.37012,0.3807 z m 4.8936,-0.082 c 0.13731,-6.4e-4 0.24833,-0.11522 0.24851,-0.25645 -1.8e-4,-0.14123 -0.11121,-0.2558 -0.24851,-0.25644 -0.1373,6.4e-4 -0.24833,0.11521 -0.24851,0.25644 1.8e-4,0.14123 0.1112,0.25581 0.24851,0.25645 z m -9.9537,-0.1269 c 0.0922,-9e-5 0.16675,-0.0771 0.16655,-0.17185 2e-4,-0.0948 -0.0744,-0.17175 -0.16655,-0.17184 -0.0922,8e-5 -0.16676,0.077 -0.16656,0.17184 -2e-4,0.0948 0.0744,0.17177 0.16656,0.17185 z m 7.5611,-2.07 c 0.32119,6.3e-4 0.58183,-0.26712 0.58163,-0.59749 2e-4,-0.33037 -0.26044,-0.59812 -0.58163,-0.59749 -0.32015,8.8e-4 -0.57918,0.26819 -0.57898,0.59749 -2e-4,0.3293 0.25883,0.59661 0.57898,0.59749 z m -4.9887,-0.12426 c 0.24999,4.8e-4 0.45271,-0.20817 0.45208,-0.4653 -7.9e-4,-0.25609 -0.2031,-0.46313 -0.45208,-0.46265 -0.24898,-4.8e-4 -0.45129,0.20656 -0.45208,0.46265 -6.3e-4,0.25713 0.20209,0.46578 0.45208,0.4653 z m 10.078,-0.20886 c 0.1373,-6.4e-4 0.24833,-0.11521 0.24851,-0.25644 -1.8e-4,-0.14123 -0.11121,-0.2558 -0.24851,-0.25644 -0.13834,-8.6e-4 -0.25098,0.11415 -0.25116,0.25644 1.8e-4,0.14229 0.11282,0.2573 0.25116,0.25644 z m -15.096,-0.1269 c 0.0922,-9e-5 0.16675,-0.0771 0.16655,-0.17184 -0.001,-0.0937 -0.0754,-0.16912 -0.16655,-0.1692 -0.0912,7e-5 -0.16535,0.0754 -0.16656,0.1692 -2e-4,0.0948 0.0744,0.17176 0.16656,0.17184 z m 35.291,0 c 0.0922,-8e-5 0.16676,-0.0771 0.16656,-0.17184 -0.001,-0.0938 -0.0754,-0.16913 -0.16656,-0.1692 -0.0912,7e-5 -0.16535,0.0754 -0.16656,0.1692 -2e-4,0.0948 0.0744,0.17176 0.16656,0.17184 z m 4.9755,-0.0396 c 0.0922,-8e-5 0.16676,-0.0771 0.16656,-0.17185 2e-4,-0.0948 -0.0744,-0.17176 -0.16656,-0.17184 -0.0921,9e-5 -0.16675,0.0771 -0.16655,0.17184 -2e-4,0.0948 0.0744,0.17176 0.16655,0.17185 z m -32.761,-1.8982 c 0.40957,7.7e-4 0.74218,-0.34013 0.74289,-0.7614 7.1e-4,-0.4223 -0.33232,-0.76482 -0.74289,-0.76404 -0.40954,7.3e-4 -0.74096,0.3428 -0.74025,0.76404 7.1e-4,0.42021 0.33171,0.76068 0.74025,0.7614 z m 5.0178,-0.1269 c 0.34029,-6.4e-4 0.61586,-0.28449 0.61599,-0.6345 0.001,-0.35104 -0.2747,-0.6365 -0.61599,-0.63714 -0.3413,6.3e-4 -0.61729,0.28609 -0.616,0.63714 1.3e-4,0.35002 0.27571,0.63386 0.616,0.6345 z m 25.269,-0.13483 c 0.22884,2.4e-4 0.41461,-0.19026 0.41507,-0.42564 9.6e-4,-0.23642 -0.18522,-0.42853 -0.41507,-0.42829 -0.22985,-2.4e-4 -0.41603,0.19187 -0.41507,0.42829 4.6e-4,0.23538 0.18623,0.42588 0.41507,0.42564 z m -35.305,-0.0793 c 0.2043,-2.7e-4 0.36986,-0.17056 0.37012,-0.3807 -2.6e-4,-0.21014 -0.16582,-0.38043 -0.37012,-0.3807 -0.20431,2.7e-4 -0.36987,0.17055 -0.37013,0.3807 2.6e-4,0.21015 0.16582,0.38043 0.37013,0.3807 z m 15.178,-0.12426 c 0.13833,8.6e-4 0.25097,-0.11415 0.25115,-0.25644 -1.8e-4,-0.14229 -0.11282,-0.2573 -0.25115,-0.25644 -0.13731,6.4e-4 -0.24834,0.11521 -0.24852,0.25644 1.8e-4,0.14123 0.11121,0.2558 0.24852,0.25644 z m 25.089,0 c 0.13833,8.6e-4 0.25097,-0.11415 0.25115,-0.25644 -1.8e-4,-0.14229 -0.11282,-0.2573 -0.25115,-0.25644 -0.13731,6.4e-4 -0.24834,0.11521 -0.24852,0.25644 1.8e-4,0.14123 0.11121,0.2558 0.24852,0.25644 z m -10.075,-0.0396 c 0.13731,-6.4e-4 0.24833,-0.11522 0.24851,-0.25645 0.001,-0.14226 -0.1102,-0.25844 -0.24851,-0.25908 -0.13934,-8.7e-4 -0.2524,0.11576 -0.25115,0.25908 1.8e-4,0.14229 0.11281,0.25731 0.25115,0.25645 z m -4.9782,-0.0873 c 0.0912,-7e-5 0.16535,-0.0754 0.16656,-0.1692 2e-4,-0.0948 -0.0744,-0.17176 -0.16656,-0.17184 -0.0922,9e-5 -0.16675,0.0771 -0.16655,0.17184 0.001,0.0937 0.0754,0.16912 0.16655,0.1692 z m -17.747,-1.729 c 0.54254,-0.001 0.98142,-0.45458 0.98083,-1.0126 5.9e-4,-0.55802 -0.43829,-1.01112 -0.98083,-1.0126 -0.54357,-2e-5 -0.98406,0.45352 -0.98347,1.0126 -5.9e-4,0.55908 0.4399,1.01262 0.98347,1.0126 z m -4.8936,-0.20885 c 0.43086,-0.001 0.77964,-0.36053 0.7799,-0.8037 -2.6e-4,-0.44317 -0.34904,-0.80259 -0.7799,-0.8037 -0.43189,-4e-4 -0.78229,0.35947 -0.78255,0.8037 2.6e-4,0.44423 0.35066,0.8041 0.78255,0.8037 z m 9.9643,-0.13219 c 0.32118,6.2e-4 0.58181,-0.26712 0.58162,-0.59748 2e-4,-0.33036 -0.26044,-0.59811 -0.58162,-0.59749 -0.32015,8.8e-4 -0.57918,0.26819 -0.57898,0.59749 -1.9e-4,0.3293 0.25883,0.5966 0.57898,0.59748 z m 25.213,0 c 0.32118,6.3e-4 0.58182,-0.26712 0.58163,-0.59748 2e-4,-0.33037 -0.26044,-0.59812 -0.58163,-0.59749 -0.32015,8.8e-4 -0.57918,0.26819 -0.57898,0.59749 -1.9e-4,0.3293 0.25883,0.5966 0.57898,0.59748 z m -5.0178,-0.0423 c 0.32118,6.2e-4 0.58181,-0.26712 0.58162,-0.59748 -0.001,-0.32933 -0.26144,-0.59547 -0.58162,-0.59485 -0.31915,8.7e-4 -0.57777,0.26658 -0.57898,0.59485 -1.9e-4,0.3293 0.25883,0.5966 0.57898,0.59748 z m -5.0178,-0.0872 c 0.22884,2.3e-4 0.4146,-0.19026 0.41506,-0.42564 9.6e-4,-0.23641 -0.18521,-0.42853 -0.41506,-0.42829 -0.22882,0.001 -0.41339,0.19293 -0.41243,0.42829 4.6e-4,0.23433 0.18462,0.42439 0.41243,0.42564 z m 15.04,-0.16127 c 0.13833,8.6e-4 0.25097,-0.11415 0.25115,-0.25644 -1.8e-4,-0.14229 -0.11281,-0.25731 -0.25115,-0.25645 -0.13731,6.4e-4 -0.24833,0.11522 -0.24851,0.25645 1.8e-4,0.14123 0.11121,0.2558 0.24851,0.25644 z m -45.203,-0.0423 c 0.13834,8.6e-4 0.25098,-0.11415 0.25116,-0.25644 -1.8e-4,-0.1423 -0.11282,-0.25731 -0.25116,-0.25645 -0.13731,6.4e-4 -0.24833,0.11522 -0.24851,0.25645 1.8e-4,0.14123 0.11121,0.2558 0.24851,0.25644 z m 25.174,-0.082 c 0.1373,-6.4e-4 0.24833,-0.11521 0.24851,-0.25644 -1.8e-4,-0.14123 -0.11121,-0.2558 -0.24851,-0.25644 -0.1373,6.4e-4 -0.24833,0.11521 -0.24851,0.25644 1.8e-4,0.14123 0.11121,0.2558 0.24851,0.25644 z m -5.0601,-0.003 c 0.0922,-9e-5 0.16675,-0.0771 0.16655,-0.17184 -0.001,-0.0937 -0.0754,-0.16912 -0.16655,-0.1692 -0.0912,7e-5 -0.16535,0.0754 -0.16656,0.1692 -2e-4,0.0948 0.0744,0.17176 0.16656,0.17184 z m -12.648,-1.5043 c 0.65712,-1.1e-4 1.18975,-0.5481 1.1897,-1.224 -0.001,-0.67488 -0.53356,-1.22129 -1.1897,-1.2214 -0.65614,1.1e-4 -1.18836,0.54652 -1.1897,1.2214 -5e-5,0.6759 0.53258,1.22389 1.1897,1.224 z m 4.8936,-0.1269 c 0.56576,-5.1e-4 1.02391,-0.47285 1.0231,-1.0548 -5.9e-4,-0.58093 -0.45833,-1.05169 -1.0231,-1.0522 -0.56582,-0.001 -1.02521,0.47018 -1.0258,1.0522 -8.1e-4,0.58303 0.45899,1.05583 1.0258,1.0548 z m 20.375,-0.19299 c 0.47497,-7.1e-4 0.85954,-0.39713 0.85921,-0.88566 3.3e-4,-0.48853 -0.38425,-0.88494 -0.85921,-0.88565 -0.476,-8e-4 -0.86219,0.39605 -0.86186,0.88565 -3.3e-4,0.4896 0.38586,0.88646 0.86186,0.88566 z m 4.9755,-0.0423 c 0.475,8e-4 0.86077,-0.39445 0.86186,-0.88301 3.3e-4,-0.4896 -0.38586,-0.88646 -0.86186,-0.88566 -0.47497,7e-4 -0.85955,0.39712 -0.85922,0.88566 0.001,0.4875 0.38525,0.88231 0.85922,0.88301 z m -35.207,-0.20093 c 0.36633,6e-5 0.66339,-0.30528 0.66358,-0.68208 10e-4,-0.37784 -0.29624,-0.68479 -0.66358,-0.68473 -0.36734,-6e-5 -0.66482,0.30689 -0.66358,0.68473 1.9e-4,0.3768 0.29725,0.68214 0.66358,0.68208 z m 25.089,-0.0132 c 0.33747,-5.3e-4 0.61075,-0.2821 0.6107,-0.62921 5e-5,-0.34711 -0.27323,-0.62868 -0.6107,-0.62921 -0.33851,-9.7e-4 -0.61341,0.28104 -0.61335,0.62921 -6e-5,0.34817 0.27484,0.63018 0.61335,0.62921 z m 15.096,-0.0396 c 0.33747,-5.3e-4 0.61075,-0.2821 0.6107,-0.62921 5e-5,-0.34711 -0.27323,-0.62868 -0.6107,-0.62921 -0.33851,-9.7e-4 -0.61341,0.28104 -0.61335,0.62921 -6e-5,0.34817 0.27484,0.63018 0.61335,0.62921 z m -20.074,-0.12161 c 0.22885,2.4e-4 0.41461,-0.19026 0.41507,-0.42565 -4.6e-4,-0.23538 -0.18623,-0.42588 -0.41507,-0.42564 -0.22781,0.001 -0.41196,0.19132 -0.41242,0.42564 4.5e-4,0.23432 0.18461,0.42439 0.41242,0.42565 z m -5.1421,-0.0397 c 0.22985,2.4e-4 0.41603,-0.19187 0.41507,-0.42829 -4.6e-4,-0.23538 -0.18623,-0.42588 -0.41507,-0.42564 -0.22781,0.001 -0.41196,0.19132 -0.41242,0.42564 -9.6e-4,0.23535 0.18361,0.42703 0.41242,0.42829 z m -20.085,-0.16391 c 0.0922,-8e-5 0.16676,-0.0771 0.16656,-0.17184 2e-4,-0.0948 -0.0744,-0.17177 -0.16656,-0.17185 -0.0922,9e-5 -0.16675,0.0771 -0.16655,0.17185 -2e-4,0.0948 0.0744,0.17175 0.16655,0.17184 z m 50.469,-0.0423 c 0.0922,-9e-5 0.16675,-0.0771 0.16655,-0.17184 2e-4,-0.0948 -0.0744,-0.17176 -0.16655,-0.17185 -0.0922,8e-5 -0.16676,0.0771 -0.16656,0.17185 -2e-4,0.0948 0.0744,0.17176 0.16656,0.17184 z m -37.93,-1.3668 c 0,0 1.2664,-0.4568 1.2664,-1.618 0,-1.1612 0.60018,-0.99404 1.2637,-0.99404 0.66352,0 1.2637,-0.5807 1.2637,-1.3272 0,-0.74647 -0.26817,-1.1632 -1.1183,-1.1632 -0.85013,0 -1.306,-0.62051 -1.306,-1.2426 0,-0.62209 0.68437,-1.121 1.3272,-1.121 0.64283,0 1.0972,0.56136 1.0972,1.2664 0,0.70499 0.26967,1.0575 1.3272,1.0575 1.0575,0 1.1818,-0.64316 1.1818,-1.4726 0,-0.82944 0.0222,-1.0575 1.2664,-1.0575 1.2441,0 1.2637,-0.43529 1.2637,-1.1818 0,-0.74647 0.68438,-1.121 1.3272,-1.121 0.64279,0 1.1606,0.43571 1.1606,1.2029 0,0.7672 -0.0598,1.121 -1.2003,1.121 -1.1404,0 -1.2452,0.726 -1.2452,1.2029 0,0.47691 0.51767,1.2029 1.2849,1.2029 0.7672,0 1.2452,-0.45795 1.2452,-1.4118 0,-0.95385 0.55996,-0.99405 1.3272,-0.99405 0.76719,0 1.1818,0.51709 1.1818,1.388 0,0.87087 0.64358,1.1606 1.4937,1.1606 0.85016,0 0.9729,-0.68271 0.9729,-1.2426 0,-0.55989 0.45587,-1.121 1.306,-1.121 0.85013,0 1.2664,0.56012 1.2664,1.2029 0,0.64278 -0.28984,1.1606 -1.4303,1.1606 -1.1404,0 -1.1421,0.89369 -1.1421,1.1632 0,0.26955 0.0836,1.1818 1.224,1.1818 1.1404,0 1.2849,-0.78805 1.2849,-1.3272 0,-0.53915 0.12577,-1.0364 1.3906,-1.0364 1.2649,0 1.2029,0.76607 1.2029,1.2637 0,0.49763 0.26925,1.3483 1.306,1.3483 1.03675,0 1.2029,-0.82921 1.2029,-1.5757 0,-0.74649 -0.14501,-1.0178 -1.1818,-1.0178 -1.0368,0 -1.3906,-0.57862 -1.3906,-1.2214 0,-0.64278 0.12493,-1.306 1.3483,-1.306 1.2234,0 1.2029,-0.89198 1.2029,-1.4726 0,-0.58059 -0.68546,-1.0575 -1.5149,-1.0575 -0.82944,0 -0.9729,-0.12608 -0.9729,-1.1421 0,-1.01602 -0.35426,-1.3457 -1.4118,-1.3457 -1.0574,0 -1.1394,-0.49802 -1.1394,-1.4726 0,-0.97458 -0.51948,-1.0575 -1.2452,-1.0575 -0.72573,0 -1.2849,-0.31198 -1.2849,-1.3695 0,-1.0575 -0.43486,-1.1606 -1.1606,-1.1606 -0.72572,0 -1.306,-0.39475 -1.306,-1.4937 0,-1.09895 0.55971,-0.9729 1.1818,-0.9729 0.62205,0 1.1606,-0.58292 1.1606,-1.3086 0,-0.72568 -0.99457,-1.1606 -1.2849,-1.1606 -0.29033,0 -1.0998,0.16599 -1.0998,1.3272 0,1.1612 -0.53882,1.0364 -1.306,1.0364 -0.7672,0 -1.0998,-0.57971 -1.0998,-1.4091 0,-0.82941 0.31129,-1.0786 1.2029,-1.0786 0.89161,0 1.2665,-0.84489 1.121,-1.388 -0.14551,-0.54307 -0.54032,-1.1421 -1.5149,-1.1421 -0.97457,0 -0.97555,-0.60185 -0.97555,-1.3483 0,-0.74645 0.23059,-1.1606 1.1844,-1.1606 0.95382,0 1.2214,-0.66266 1.2214,-1.4091 0,-0.74644 -0.30906,-1.0364 -1.2214,-1.0364 -0.91233,0 -1.1421,-0.74699 -1.1421,-1.3483 0,-0.60132 0.4354,-1.2452 1.4514,-1.2452 1.0161,0 1.0575,-0.70355 1.0575,-1.5122 0,-0.80865 0.0842,-0.99669 1.1209,-0.99669 1.0368,0 1.2849,-0.78665 1.2849,-1.388 0,-0.60132 -0.24825,-1.0364 -1.1606,-1.0364 -0.91234,0 -1.1421,-0.45712 -1.1421,-1.3695 0,-0.91235 0.5612,-1.2029 1.3906,-1.2029 0.8294,0 1.0998,-0.39434 1.0998,-1.4726 0,-1.0782 0.41288,-1.0786 1.0972,-1.0786 0.68425,0 1.2664,-0.53699 1.2664,-1.3457 0,-0.80871 -0.47868,-1.1632 -1.4118,-1.1632 -0.93309,0 -1.076,-0.39185 -1.076,-1.3457 0,-0.95382 0.28999,-1.2029 1.306,-1.2029 1.01601,0 1.2029,-0.70691 1.2029,-1.2875 0,-0.58058 -0.18855,-1.2214 -1.2875,-1.2214 -1.0989,0 -1.1606,0.93138 -1.1606,1.3668 0,0.43542 0.02,1.224 -1.2241,1.224 -1.2441,0 -1.2637,-0.82895 -1.2637,-1.4303 0,-0.60132 -0.43653,-1.1395 -1.2452,-1.1395 -0.80866,0 -1.2637,0.76648 -1.2637,1.2849 0,0.51842 0.10437,1.2426 1.2241,1.2426 1.1197,0 1.2426,0.85025 1.2426,1.3272 0,0.47695 -0.37268,1.1421 -1.1606,1.1421 -0.78794,0 -1.2849,-0.68423 -1.2849,-1.4514 0,-0.76721 -0.43596,-1.0998 -1.3483,-1.0998 -0.91234,0 -1.224,1.0571 -1.224,1.6999 0,0.6428 -0.10296,0.78784 -1.2849,0.78784 -1.182,0 -1.2452,1.2655 -1.2452,1.618 0,0.3525 0.27152,0.97554 -1.2214,0.97554 -1.49292,0 -1.2875,1.036 -1.2875,1.2849 0,0.2489 0.10522,1.3272 -1.2426,1.3272 -1.34782,0 -1.2452,-0.80796 -1.2452,-1.2849 0,-0.47691 -0.28917,-1.2029 -1.2637,-1.2029 -0.97456,0 -1.2452,0.80697 -1.2452,1.3668 0,0.55983 -0.18688,1.0575 -1.2029,1.0575 -1.01602,0 -1.388,-0.58055 -1.388,-1.4514 0,-0.87085 -0.18632,-1.0786 -1.306,-1.0786 -1.1197,0 -1.1632,-0.4965 -1.1632,-1.2637 0,-0.76721 -0.16501,-1.2241 -1.4091,-1.2241 -1.2441,0 -1.1606,-0.80753 -1.1606,-1.2637 0,-0.45617 0.0418,-1.3483 -1.306,-1.3483 -1.3478,0 -1.1606,0.95336 -1.1606,1.4303 0,0.47694 -0.0633,1.1606 -1.2452,1.1606 -1.1819,0 -1.306,0.74657 -1.306,1.3272 0,0.58057 0.37251,1.2029 1.2849,1.2029 0.91234,0 1.2849,0.64472 1.2849,1.2875 0,0.64278 -0.26843,1.2214 -1.2637,1.2214 -0.99527,0 -1.1606,0.8291 -1.1606,1.306 0,0.4769 0.28859,1.2029 1.3668,1.2029 1.0782,0 1.0786,1.0387 1.0786,1.2875 0,0.2488 0.24839,1.306 -1.0786,1.306 -1.327,0 -1.3272,0.93361 -1.3272,1.3483 0,0.41469 0.41704,1.1394 1.3086,1.1394 0.89156,0 1.0972,0.68479 1.0972,1.3483 0,0.66351 -0.37334,1.1183 -1.3272,1.1183 -0.95381,0 -1.2241,1.0174 -1.2241,1.3906 0,0.37324 0.0854,1.1606 1.1844,1.1606 1.099,0 1.1394,0.97549 1.1394,1.3694 0,0.39397 -0.29055,1.1183 -1.2029,1.1183 -0.91234,0 -1.121,-0.74715 -1.121,-1.224 0,-0.47691 -0.26717,-1.0972 -1.2002,-1.0972 -0.93309,0 -1.2029,0.93195 -1.2029,1.2637 0,0.33175 0.26884,1.0786 1.2849,1.0786 1.01606,0 1.1183,0.76788 1.1183,1.224 0,0.45612 -0.12203,1.2849 -1.2002,1.2849 -1.0782,0 -1.3695,0.84984 -1.3695,1.306 0,0.45616 0.10322,1.2452 1.4303,1.2452 1.327,0 1.0575,0.76731 1.0575,1.3272 0,0.55989 0.60195,1.2029 1.618,1.2029 1.01605,0 0.86979,-0.6656 0.86979,-1.1632 0,-0.4976 0.66365,-1.1818 1.3272,-1.1818 0.66352,0 1.0998,0.68494 1.0998,1.2241 0,0.53911 -0.24811,1.0786 -1.2849,1.0786 -1.0367,0 -1.0998,0.78681 -1.0998,1.2637 0,0.47691 0.55981,1.2452 1.4514,1.2452 0.89159,0 1.0998,-0.60076 1.0998,-1.1606 0,-0.55984 0.2068,-1.1209 1.1606,-1.1209 0.95382,0 1.2024,0.80769 1.1818,1.1394 -0.0206,0.33171 -0.0633,1.1421 -1.2452,1.1421 -1.1819,0 -1.0575,0.91245 -1.0575,1.3272 0,0.41471 0.20731,1.2029 1.4514,1.2029 1.2441,0 1.0178,0.85066 1.0178,1.3483 0,0.49764 -0.0221,1.2214 1.1183,1.2214 1.1404,0 1.3483,0.89338 1.3483,1.4118 0,0.51838 -0.12427,1.076 -1.1818,1.076 -1.0574,0 -1.1209,0.74839 -1.1209,1.2875 0,0.53911 0.2904,1.2214 1.3272,1.2214 1.0367,0 1.039,0.41481 1.039,1.3272 0,0.91234 0.26884,1.1818 1.2849,1.1818 1.016,0 1.2637,0.4567 1.2637,1.3483 0,0.8916 1.2029,1.2452 1.2029,1.2452 z m 25.272,-0.2115 c 0.66574,0 1.20545,-0.55511 1.2055,-1.2399 -5e-5,-0.68479 -0.53976,-1.2399 -1.2055,-1.2399 -0.66578,-6e-5 -1.20555,0.55507 -1.2056,1.2399 5e-5,0.68483 0.53982,1.23996 1.2056,1.2399 z m -30.181,-0.0502 c 0.61247,6.3e-4 1.10954,-0.50943 1.1104,-1.1394 5.9e-4,-0.63103 -0.4969,-1.14273 -1.1104,-1.1421 -0.61244,9.1e-4 -1.10829,0.51216 -1.1077,1.1421 8.6e-4,0.62889 0.49628,1.13849 1.1077,1.1394 z m 25.187,-0.10839 c 0.56627,-2.8e-4 1.02532,-0.47231 1.0258,-1.0548 9.7e-4,-0.58355 -0.4585,-1.05722 -1.0258,-1.0575 -0.5673,2.8e-4 -1.02677,0.47395 -1.0258,1.0575 4.8e-4,0.58249 0.45953,1.05452 1.0258,1.0548 z m 9.9114,-0.12954 c 0.476,8e-4 0.86219,-0.39606 0.86186,-0.88566 -0.001,-0.48856 -0.38686,-0.88381 -0.86186,-0.88301 -0.47397,7e-4 -0.85813,0.39551 -0.85922,0.88301 -3.3e-4,0.48854 0.38425,0.88496 0.85922,0.88566 z m -25.256,-0.037 c 0.47698,-3.2e-4 0.86371,-0.39768 0.86451,-0.88829 6.3e-4,-0.49164 -0.38652,-0.89063 -0.86451,-0.89095 -0.47799,3.2e-4 -0.86513,0.39931 -0.8645,0.89095 8e-4,0.4906 0.38752,0.88797 0.8645,0.88829 z m 10.326,-0.12954 c 0.42981,-1.5e-4 0.77797,-0.35896 0.77726,-0.80105 -7.1e-4,-0.44106 -0.34845,-0.79826 -0.77726,-0.79841 -0.42881,1.5e-4 -0.77655,0.35735 -0.77726,0.79841 -7.1e-4,0.44209 0.34745,0.8009 0.77726,0.80105 z m -25.256,-0.16656 c 0.25193,7.1e-4 0.45671,-0.20881 0.45736,-0.46794 7.7e-4,-0.26016 -0.20442,-0.47129 -0.45736,-0.47058 -0.25191,7.9e-4 -0.4555,0.21148 -0.45473,0.47058 6.5e-4,0.25807 0.20382,0.46715 0.45473,0.46794 z m 20.114,0 c 0.29685,6.1e-4 0.53756,-0.24721 0.53668,-0.55254 -5.4e-4,-0.30429 -0.24084,-0.55051 -0.53668,-0.5499 -0.29584,-6.1e-4 -0.53614,0.24561 -0.53668,0.5499 -8.8e-4,0.30533 0.23983,0.55315 0.53668,0.55254 z m 25.118,-0.0978 c 0.1987,3e-5 0.35974,-0.16575 0.35955,-0.37013 1.8e-4,-0.20438 -0.16085,-0.37015 -0.35955,-0.37012 -0.1987,-3e-5 -0.35973,0.16574 -0.35955,0.37012 -1.9e-4,0.20438 0.16085,0.37016 0.35955,0.37013 z m -35.051,-1.5459 c -0.68024,3.4e-4 -1.23189,-0.56671 -1.232,-1.2664 1.1e-4,-0.69969 0.55176,-1.26674 1.232,-1.2664 0.67919,10e-4 1.22919,0.5678 1.2293,1.2664 -1.1e-4,0.6986 -0.55011,1.26521 -1.2293,1.2664 z m 27.516,-0.3384 c 0.5673,-2.8e-4 1.02677,-0.47395 1.0258,-1.0575 -4.8e-4,-0.58249 -0.45953,-1.05452 -1.0258,-1.0548 -0.56627,2.8e-4 -1.02532,0.47231 -1.0258,1.0548 -9.7e-4,0.58355 0.4585,1.05722 1.0258,1.0575 z m -35.096,-0.0423 c 0.56631,-2.8e-4 1.02537,-0.47237 1.0258,-1.0549 9.7e-4,-0.58355 -0.4585,-1.05722 -1.0258,-1.0575 -0.5673,2.8e-4 -1.02677,0.47395 -1.0258,1.0575 4.3e-4,0.58253 0.45949,1.05462 1.0258,1.0549 z m 14.956,-0.0582 c 0.5673,-2.8e-4 1.02677,-0.47395 1.0258,-1.0575 -4.3e-4,-0.58253 -0.45949,-1.05462 -1.0258,-1.0549 -0.56733,-0.001 -1.02797,0.47132 -1.0284,1.0549 -9.7e-4,0.58459 0.46009,1.0587 1.0284,1.0575 z m 5.0416,0 c 0.56831,0.001 1.02937,-0.47291 1.0284,-1.0575 -4.3e-4,-0.58358 -0.46107,-1.05609 -1.0284,-1.0549 -0.56631,2.8e-4 -1.02537,0.47237 -1.0258,1.0549 -9.7e-4,0.58355 0.4585,1.05722 1.0258,1.0575 z m 20.132,-0.39128 c 0.28554,-9e-5 0.51723,-0.23769 0.51817,-0.53139 4.8e-4,-0.29473 -0.23162,-0.53395 -0.51817,-0.53404 -0.28655,9e-5 -0.51865,0.23931 -0.51817,0.53404 9.4e-4,0.2937 0.23263,0.5313 0.51817,0.53139 z m -45.274,-0.29874 c 0.13935,8.7e-4 0.25242,-0.11576 0.25116,-0.25909 -1.8e-4,-0.14229 -0.11282,-0.2573 -0.25116,-0.25644 -0.1373,6.4e-4 -0.24833,0.11521 -0.24851,0.25644 -0.001,0.14226 0.1102,0.25845 0.24851,0.25909 z m 50.427,-0.0661 c 0.085,-1.5e-4 0.15367,-0.0712 0.15333,-0.15862 3.4e-4,-0.0874 -0.0684,-0.15847 -0.15333,-0.15862 -0.085,1.5e-4 -0.15368,0.0712 -0.15334,0.15862 -3.4e-4,0.0874 0.0684,0.15847 0.15334,0.15862 z m -12.674,-1.4038 c 0.69815,-2.8e-4 1.26391,-0.58261 1.2637,-1.3007 2.1e-4,-0.71809 -0.56555,-1.30042 -1.2637,-1.3007 -0.69815,2.8e-4 -1.26391,0.58261 -1.2637,1.3007 -2.1e-4,0.71809 0.56555,1.30042 1.2637,1.3007 z m -27.807,-0.0132 c -0.63561,0.001 -1.15173,-0.52801 -1.1527,-1.1818 -4.3e-4,-0.6548 0.5161,-1.18554 1.1527,-1.1844 0.63554,4e-4 1.15043,0.53068 1.15,1.1844 -9.6e-4,0.6527 -0.51544,1.1814 -1.15,1.1818 z m 32.801,-0.47323 c 0.3884,-9.7e-4 0.70287,-0.32489 0.70324,-0.72439 -3.8e-4,-0.39949 -0.31484,-0.72341 -0.70324,-0.72438 -0.38943,-5.3e-4 -0.7055,0.32383 -0.70588,0.72438 3.8e-4,0.40056 0.31645,0.72492 0.70588,0.72439 z m -40.121,-0.11633 c 0.36633,6e-5 0.66339,-0.30528 0.66358,-0.68208 -1.8e-4,-0.37681 -0.29724,-0.68215 -0.66358,-0.68209 -0.3653,10e-4 -0.66075,0.30634 -0.66093,0.68209 1.8e-4,0.37574 0.29563,0.68064 0.66093,0.68208 z m 45.274,-0.43886 c 0.15354,5.9e-4 0.27816,-0.12759 0.27759,-0.28552 -8.5e-4,-0.1569 -0.12505,-0.28347 -0.27759,-0.28288 -0.15151,9e-4 -0.27411,0.12704 -0.27495,0.28288 -5.7e-4,0.15687 0.12244,0.28461 0.27495,0.28552 z m -50.469,-0.10575 c 0.0911,-8e-5 0.16534,-0.0755 0.16655,-0.1692 2e-4,-0.0948 -0.0744,-0.17175 -0.16655,-0.17184 -0.0922,8e-5 -0.16676,0.0771 -0.16656,0.17184 0.001,0.0938 0.0754,0.16913 0.16656,0.1692 z m 20.352,-1.3536 c -0.63554,-4e-4 -1.15043,-0.53068 -1.15,-1.1844 9.6e-4,-0.6527 0.51544,-1.1814 1.15,-1.1818 0.63561,-10e-4 1.15173,0.52801 1.1527,1.1818 4.3e-4,0.6548 -0.5161,1.18554 -1.1527,1.1844 z m 9.9114,-0.12426 c -0.56854,-7.9e-4 -1.02888,-0.47533 -1.0284,-1.0601 9.1e-4,-0.58375 0.46085,-1.05671 1.0284,-1.0575 0.56861,-7.4e-4 1.03019,0.47266 1.0311,1.0575 4.8e-4,0.58585 -0.46151,1.06084 -1.0311,1.0601 z m 5.1421,-0.0423 c -0.65686,-7.9e-4 -1.18911,-0.54839 -1.1897,-1.224 5.4e-4,-0.67565 0.5328,-1.22331 1.1897,-1.2241 0.65792,-6.8e-4 1.19176,0.5474 1.1923,1.2241 -5.9e-4,0.67666 -0.53442,1.22468 -1.1923,1.224 z m -20.235,-0.1269 c -0.47901,0.001 -0.86777,-0.39824 -0.86714,-0.89094 7.9e-4,-0.49167 0.38913,-0.88948 0.86714,-0.8883 0.47698,3.2e-4 0.86372,0.39769 0.86451,0.8883 6.2e-4,0.49164 -0.38652,0.89062 -0.86451,0.89094 z m -7.4157,-0.0238 c 0.58943,1.7e-4 1.06751,-0.49093 1.0681,-1.0972 -5.9e-4,-0.60627 -0.47867,-1.09737 -1.0681,-1.0972 -0.58943,-1.7e-4 -1.06751,0.49093 -1.0681,1.0972 5.9e-4,0.60627 0.47867,1.09737 1.0681,1.0972 z m 35.032,-0.0661 c 0.50383,-1.2e-4 0.91218,-0.4203 0.91209,-0.93853 8e-5,-0.51822 -0.40827,-0.9384 -0.91209,-0.93852 -0.50382,1.2e-4 -0.91217,0.4203 -0.91209,0.93852 -9e-5,0.51823 0.40826,0.93841 0.91209,0.93853 z m -40.119,-0.37805 c 0.25091,-7.9e-4 0.45408,-0.20987 0.45473,-0.46794 7.7e-4,-0.25911 -0.20282,-0.4698 -0.45473,-0.47059 -0.25294,-7.1e-4 -0.45814,0.21042 -0.45736,0.47059 6.5e-4,0.25913 0.20543,0.46865 0.45736,0.46794 z m 45.211,-0.18506 c 0.17486,2.1e-4 0.31684,-0.14532 0.31725,-0.32518 0.001,-0.1809 -0.14138,-0.32804 -0.31725,-0.32783 -0.17587,-2.1e-4 -0.31827,0.14693 -0.31725,0.32783 4.1e-4,0.17986 0.14239,0.32539 0.31725,0.32518 z m -25.121,-1.7502 c -0.52391,-3e-5 -0.94871,-0.43666 -0.94911,-0.97554 4e-4,-0.53888 0.4252,-0.97551 0.94911,-0.97554 0.5239,3e-5 0.9487,0.43667 0.9491,0.97554 -4e-4,0.53887 -0.4252,0.97551 -0.9491,0.97554 z m 10.16,-0.082 c -0.63554,-4e-4 -1.15043,-0.53068 -1.15,-1.1844 9.6e-4,-0.6527 0.51544,-1.1814 1.15,-1.1818 0.63561,-0.001 1.15173,0.52801 1.1527,1.1818 4.3e-4,0.6548 -0.5161,1.18554 -1.1527,1.1844 z m 7.2888,-0.0106 c 0.53455,-9.7e-4 0.96744,-0.44687 0.96761,-0.99669 -1.7e-4,-0.54982 -0.43306,-0.99572 -0.96761,-0.99669 -0.53559,-5.3e-4 -0.97009,0.4458 -0.97026,0.99669 1.7e-4,0.55089 0.43467,0.99722 0.97026,0.99669 z m -35.191,-0.0582 c 0.56733,0.001 1.02797,-0.47132 1.0284,-1.0549 -4.8e-4,-0.58354 -0.46111,-1.05599 -1.0284,-1.0548 -0.56627,2.8e-4 -1.02532,0.47231 -1.0258,1.0548 4.3e-4,0.58253 0.45949,1.05462 1.0258,1.0549 z m 7.5003,-0.0582 c -0.47902,0.001 -0.86778,-0.39824 -0.86715,-0.89094 7.9e-4,-0.49167 0.38913,-0.88948 0.86715,-0.8883 0.47698,3.2e-4 0.86371,0.39769 0.8645,0.8883 6.2e-4,0.49164 -0.38652,0.89062 -0.8645,0.89094 z m 5.2663,-0.0449 c -0.43183,2.4e-4 -0.78214,-0.35953 -0.78255,-0.8037 -0.001,-0.4452 0.34972,-0.80659 0.78255,-0.80634 0.43283,-2.5e-4 0.78356,0.36114 0.78255,0.80634 -4.1e-4,0.44417 -0.35072,0.80394 -0.78255,0.8037 z m 9.9934,-0.0423 c -0.43183,2.4e-4 -0.78214,-0.35953 -0.78255,-0.8037 4.1e-4,-0.44417 0.35072,-0.80394 0.78255,-0.8037 0.43183,-2.4e-4 0.78214,0.35953 0.78255,0.8037 -4.1e-4,0.44417 -0.35072,0.80394 -0.78255,0.8037 z m -27.638,-0.4653 c 0.22884,2.4e-4 0.41461,-0.19026 0.41507,-0.42564 9.6e-4,-0.23642 -0.18522,-0.42853 -0.41507,-0.42829 -0.22985,-2.4e-4 -0.41603,0.19187 -0.41507,0.42829 4.6e-4,0.23538 0.18623,0.42588 0.41507,0.42564 z m 45.211,-0.0185 c 0.17486,2.1e-4 0.31684,-0.14532 0.31725,-0.32518 -4.1e-4,-0.17986 -0.14239,-0.32539 -0.31725,-0.32518 -0.17486,-2.1e-4 -0.31684,0.14532 -0.31725,0.32518 4.1e-4,0.17986 0.14239,0.32539 0.31725,0.32518 z m -50.326,-0.1877 c 0.0911,-8e-5 0.16534,-0.0754 0.16655,-0.1692 2e-4,-0.0948 -0.0744,-0.17175 -0.16655,-0.17184 -0.0921,8e-5 -0.16676,0.0771 -0.16656,0.17184 10e-4,0.0938 0.0754,0.16913 0.16656,0.1692 z m 14.921,-1.3536 c -0.63554,-4e-4 -1.15043,-0.53068 -1.15,-1.1844 9.6e-4,-0.6527 0.51544,-1.1814 1.15,-1.1818 0.63456,4e-4 1.14904,0.5291 1.15,1.1818 4.3e-4,0.65372 -0.51446,1.184 -1.15,1.1844 z m 27.799,-0.0582 c 0.56627,-2.8e-4 1.02532,-0.47231 1.0258,-1.0548 -4.3e-4,-0.58253 -0.45949,-1.05462 -1.0258,-1.0549 -0.56631,2.8e-4 -1.02537,0.47237 -1.0258,1.0549 4.8e-4,0.58249 0.45953,1.05452 1.0258,1.0548 z m -35.072,-0.35162 c 0.56627,-2.8e-4 1.02532,-0.47231 1.0258,-1.0548 9.7e-4,-0.58355 -0.4585,-1.05722 -1.0258,-1.0575 -0.5673,2.8e-4 -1.02677,0.47395 -1.0258,1.0575 4.8e-4,0.58249 0.45953,1.05452 1.0258,1.0548 z m 27.759,-0.0106 c -0.5435,-1.4e-4 -0.98391,-0.45358 -0.98348,-1.0126 -4.3e-4,-0.55902 0.43998,-1.01246 0.98348,-1.0126 0.5435,1.4e-4 0.9839,0.45359 0.98347,1.0126 4.3e-4,0.55901 -0.43997,1.01246 -0.98347,1.0126 z m -5.1421,-0.25645 c -0.3603,-7.1e-4 -0.65224,-0.30091 -0.65301,-0.67151 -6.4e-4,-0.37163 0.2917,-0.67344 0.65301,-0.67415 0.3613,7.2e-4 0.65364,0.30253 0.653,0.67415 -7.7e-4,0.37059 -0.2927,0.6708 -0.653,0.67151 z m -10.16,-0.12425 c -0.29433,4.2e-4 -0.53334,-0.24452 -0.53403,-0.54726 -7.3e-4,-0.30377 0.2387,-0.55031 0.53403,-0.54989 0.29534,-4.2e-4 0.53477,0.24612 0.53404,0.54989 -6.9e-4,0.30275 -0.2397,0.54768 -0.53404,0.54726 z m 5.0601,0 c -0.29434,4.2e-4 -0.53335,-0.24451 -0.53404,-0.54726 -7.3e-4,-0.30377 0.2387,-0.55031 0.53404,-0.54989 0.2943,0.001 0.53212,0.24718 0.53139,0.54989 -6.8e-4,0.30169 -0.23809,0.54618 -0.53139,0.54726 z m 22.673,-0.0132 c 0.26332,-8.8e-4 0.47623,-0.22089 0.47587,-0.49174 -0.001,-0.26981 -0.21355,-0.48821 -0.47587,-0.48909 -0.26335,-6.2e-4 -0.47746,0.21822 -0.47852,0.48909 -3.6e-4,0.27191 0.21416,0.49236 0.47852,0.49174 z m -45.335,-0.074 c 0.22781,-0.001 0.41197,-0.19131 0.41243,-0.42564 -4.6e-4,-0.23433 -0.18462,-0.42439 -0.41243,-0.42564 -0.22884,-2.3e-4 -0.4146,0.19026 -0.41506,0.42564 4.6e-4,0.23538 0.18622,0.42587 0.41506,0.42564 z m -4.99,-0.32782 c 0.0922,-9e-5 0.16675,-0.0771 0.16655,-0.17184 2e-4,-0.0948 -0.0744,-0.17176 -0.16655,-0.17185 -0.0922,8e-5 -0.16676,0.0771 -0.16656,0.17185 -2e-4,0.0948 0.0744,0.17176 0.16656,0.17184 z m 42.624,-1.4805 c 0.56627,-2.8e-4 1.02532,-0.47231 1.0258,-1.0548 9.7e-4,-0.58355 -0.4585,-1.05722 -1.0258,-1.0575 -0.5673,2.8e-4 -1.02677,0.47395 -1.0258,1.0575 4.8e-4,0.58249 0.45953,1.05452 1.0258,1.0548 z m -34.895,-0.17713 c 0.56627,-2.8e-4 1.02532,-0.47231 1.0258,-1.0548 -4.8e-4,-0.58249 -0.45953,-1.05452 -1.0258,-1.0548 -0.56729,-0.001 -1.02792,0.47126 -1.0284,1.0548 4.8e-4,0.58354 0.46111,1.05599 1.0284,1.0548 z m 27.593,-0.11896 c -0.4765,9.9e-4 -0.86356,-0.39554 -0.8645,-0.88566 -4.8e-4,-0.49115 0.38699,-0.88929 0.8645,-0.8883 0.47648,5.1e-4 0.86234,0.39821 0.86186,0.8883 -9.4e-4,0.48906 -0.38639,0.88515 -0.86186,0.88566 z m -15.262,-0.2961 c -0.29534,4.2e-4 -0.53476,-0.24613 -0.53403,-0.5499 6.9e-4,-0.30274 0.2397,-0.54768 0.53403,-0.54726 0.29434,-4.2e-4 0.53335,0.24451 0.53404,0.54726 7.3e-4,0.30378 -0.2387,0.55032 -0.53404,0.5499 z m 27.815,-0.0132 c 0.26436,6.2e-4 0.47888,-0.21983 0.47852,-0.49174 3.6e-4,-0.27191 -0.21417,-0.49235 -0.47852,-0.49173 -0.26332,8.8e-4 -0.47623,0.22089 -0.47587,0.49173 -3.6e-4,0.27085 0.21255,0.49086 0.47587,0.49174 z m -22.63,-0.11633 c -0.18093,10e-4 -0.32809,-0.14965 -0.32782,-0.33575 -2.7e-4,-0.18611 0.14688,-0.33683 0.32782,-0.33576 0.17991,4.4e-4 0.32545,0.15071 0.32518,0.33576 2.6e-4,0.18504 -0.14528,0.33531 -0.32518,0.33575 z m -22.728,-0.0185 c 0.25043,5.2e-4 0.45394,-0.20772 0.45473,-0.4653 6.3e-4,-0.25861 -0.2033,-0.46846 -0.45473,-0.46794 -0.25143,-5.1e-4 -0.45535,0.20933 -0.45472,0.46794 7.9e-4,0.25758 0.20429,0.46581 0.45472,0.4653 z m 27.661,-0.0212 c -0.22506,-9.9e-4 -0.40703,-0.18887 -0.40714,-0.42036 1.2e-4,-0.23149 0.18208,-0.41936 0.40714,-0.42035 0.22609,-5.1e-4 0.40966,0.1878 0.40978,0.42035 -1.1e-4,0.23255 -0.18369,0.42087 -0.40978,0.42036 z m -32.711,-0.20622 c 0.0911,-8e-5 0.16534,-0.0754 0.16655,-0.16919 2e-4,-0.0948 -0.0744,-0.17176 -0.16655,-0.17185 -0.0922,8e-5 -0.16676,0.0771 -0.16656,0.17185 0.001,0.0937 0.0754,0.16912 0.16656,0.16919 z m 42.636,-1.4964 c 0.59805,2.8e-4 1.0832,-0.4979 1.0839,-1.113 7.5e-4,-0.61616 -0.48483,-1.11598 -1.0839,-1.1157 -0.59907,-2.8e-4 -1.08465,0.49954 -1.0839,1.1157 7e-4,0.6151 0.48585,1.11328 1.0839,1.113 z m -35.014,-0.2353 c 0.56627,-2.8e-4 1.02532,-0.47231 1.0258,-1.0548 -4.8e-4,-0.58249 -0.45953,-1.05452 -1.0258,-1.0548 -0.56627,2.8e-4 -1.02532,0.47231 -1.0258,1.0548 4.8e-4,0.58249 0.45953,1.05452 1.0258,1.0548 z m 27.743,-0.20885 c -0.43079,-0.001 -0.77949,-0.36059 -0.7799,-0.8037 4.1e-4,-0.44311 0.34911,-0.80244 0.7799,-0.8037 0.43183,-2.4e-4 0.78214,0.35953 0.78255,0.8037 -4.1e-4,0.44417 -0.35072,0.80394 -0.78255,0.8037 z m -15.26,-0.0872 c -0.36258,3.3e-4 -0.65703,-0.30121 -0.65829,-0.67415 -1.6e-4,-0.37397 0.29471,-0.67713 0.65829,-0.6768 0.36358,-3.3e-4 0.65845,0.30283 0.65829,0.6768 -10e-4,0.37294 -0.29571,0.67448 -0.65829,0.67415 z m 27.712,-0.11896 c 0.26333,-8.8e-4 0.47624,-0.22089 0.47588,-0.49174 3.6e-4,-0.27085 -0.21255,-0.49086 -0.47588,-0.49174 -0.26436,-6.2e-4 -0.47888,0.21983 -0.47852,0.49174 -3.6e-4,0.27191 0.21416,0.49236 0.47852,0.49174 z m -45.256,-0.19829 c 0.21579,-1.9e-4 0.39077,-0.17989 0.39128,-0.40184 9.2e-4,-0.22299 -0.17448,-0.40431 -0.39128,-0.4045 -0.21679,1.9e-4 -0.39219,0.18151 -0.39127,0.4045 5.1e-4,0.22195 0.17549,0.40165 0.39127,0.40184 z m 22.604,-0.0238 c -0.15784,5.9e-4 -0.28597,-0.1311 -0.28552,-0.29345 9.6e-4,-0.16132 0.12868,-0.29141 0.28552,-0.29082 0.15581,9e-4 0.28193,0.13056 0.28288,0.29082 4.5e-4,0.16129 -0.12607,0.29254 -0.28288,0.29345 z m 5.0575,-0.0423 c -0.15581,-9e-4 -0.28192,-0.13055 -0.28288,-0.29081 -4.6e-4,-0.16129 0.12607,-0.29255 0.28288,-0.29346 0.15785,-6e-4 0.28599,0.1311 0.28553,0.29346 -9.6e-4,0.16132 -0.12869,0.29141 -0.28553,0.29081 z m 22.683,-0.15069 c 0.0788,0.001 0.14318,-0.0644 0.14276,-0.14541 4.1e-4,-0.081 -0.064,-0.14662 -0.14276,-0.1454 -0.0778,2.9e-4 -0.14052,0.0654 -0.14012,0.1454 -4e-4,0.08 0.0624,0.14512 0.14012,0.14541 z m -40.473,-1.3642 c -0.63456,-4e-4 -1.14904,-0.5291 -1.15,-1.1818 -4.3e-4,-0.65372 0.51446,-1.184 1.15,-1.1844 0.63554,4e-4 1.15043,0.53068 1.15,1.1844 -9.6e-4,0.6527 -0.51544,1.1814 -1.15,1.1818 z m -7.3417,-0.54726 c 0.41938,-10e-4 0.75876,-0.35118 0.75876,-0.78255 0,-0.43136 -0.33938,-0.78138 -0.75876,-0.78254 -0.42041,-3.3e-4 -0.76138,0.35012 -0.76139,0.78254 0,0.43242 0.34098,0.78288 0.76139,0.78255 z m 12.441,0 c -0.36358,3.3e-4 -0.65845,-0.30283 -0.65829,-0.6768 -1.5e-4,-0.37397 0.29471,-0.67712 0.65829,-0.67679 0.36358,-3.3e-4 0.65844,0.30282 0.65829,0.67679 1.6e-4,0.37397 -0.29471,0.67713 -0.65829,0.6768 z m 15.262,-0.082 c -0.36358,3.4e-4 -0.65846,-0.30282 -0.6583,-0.6768 -1.6e-4,-0.37398 0.29472,-0.67714 0.6583,-0.6768 0.36358,-3.3e-4 0.65845,0.30283 0.65829,0.6768 1.6e-4,0.37397 -0.29471,0.67713 -0.65829,0.6768 z m 12.471,-0.16392 c 0.26335,6.2e-4 0.47746,-0.21822 0.47852,-0.48909 3.6e-4,-0.27191 -0.21417,-0.49235 -0.47852,-0.49173 -0.26435,-6.2e-4 -0.47888,0.21982 -0.47852,0.49173 10e-4,0.27087 0.21517,0.48971 0.47852,0.48909 z m -22.63,-0.26173 c -0.15784,5.9e-4 -0.28597,-0.1311 -0.28552,-0.29345 -4.6e-4,-0.16235 0.12768,-0.29405 0.28552,-0.29346 0.15681,9.1e-4 0.28334,0.13217 0.28288,0.29346 4.5e-4,0.16129 -0.12607,0.29254 -0.28288,0.29345 z m -22.657,-0.0344 c 0.11524,3.8e-4 0.20886,-0.0956 0.20885,-0.21414 1e-5,-0.11853 -0.0936,-0.21452 -0.20885,-0.21414 -0.11422,0.001 -0.20624,0.0967 -0.20622,0.21414 -2e-5,0.11748 0.092,0.21303 0.20622,0.21414 z m 27.714,-0.0106 c -0.0886,-8.2e-4 -0.15966,-0.0755 -0.15862,-0.16656 3.8e-4,-0.0901 0.0711,-0.1631 0.15862,-0.16391 0.0886,-6.8e-4 0.16088,0.0728 0.16127,0.16391 0.001,0.0922 -0.0717,0.16726 -0.16127,0.16656 z m 22.665,-0.005 c 0.0768,-2.9e-4 0.13911,-0.0638 0.14012,-0.14276 4e-4,-0.08 -0.0624,-0.14512 -0.14012,-0.14541 -0.0788,-10e-4 -0.14318,0.0644 -0.14276,0.14541 0.001,0.08 0.065,0.14397 0.14276,0.14276 z m -14.95,-1.5889 c -0.65789,-7.9e-4 -1.19056,-0.55003 -1.1897,-1.2267 5.4e-4,-0.67565 0.5328,-1.22331 1.1897,-1.2241 0.65792,-6.8e-4 1.19176,0.5474 1.1923,1.2241 8.6e-4,0.67771 -0.5334,1.22738 -1.1923,1.2267 z m -27.786,-0.0872 c 0.56627,-2.8e-4 1.02532,-0.47231 1.0258,-1.0548 9.7e-4,-0.58355 -0.4585,-1.05722 -1.0258,-1.0575 -0.5673,2.8e-4 -1.02677,0.47395 -1.0258,1.0575 4.8e-4,0.58249 0.45953,1.05452 1.0258,1.0548 z m 7.3813,-0.1692 c -0.4308,-0.001 -0.7795,-0.36059 -0.77991,-0.8037 4.1e-4,-0.44311 0.34911,-0.80245 0.77991,-0.8037 0.43182,-2.4e-4 0.78213,0.35954 0.78254,0.8037 -4.1e-4,0.44416 -0.35072,0.80394 -0.78254,0.8037 z m 27.733,-0.23529 c 0.32683,4.1e-4 0.59203,-0.27189 0.5922,-0.60806 -1.6e-4,-0.33617 -0.26537,-0.60848 -0.5922,-0.60807 -0.32683,-4.1e-4 -0.59204,0.2719 -0.5922,0.60807 1.7e-4,0.33617 0.26537,0.60847 0.5922,0.60806 z m -12.428,-0.14805 c -0.22609,5.1e-4 -0.40967,-0.18781 -0.40978,-0.42036 1.2e-4,-0.23255 0.18369,-0.42086 0.40978,-0.42035 0.22506,9.9e-4 0.40702,0.18886 0.40714,0.42035 -1.1e-4,0.23149 -0.18208,0.41937 -0.40714,0.42036 z m -27.725,-0.0397 c 0.2504,-9.9e-4 0.4527,-0.21039 0.45208,-0.46794 -7.9e-4,-0.25652 -0.20268,-0.46432 -0.45208,-0.4653 -0.25043,-5.1e-4 -0.45393,0.20772 -0.45472,0.4653 -6.3e-4,0.25861 0.20329,0.46845 0.45472,0.46794 z m 17.48,-0.0449 c -0.17991,-4.4e-4 -0.32545,-0.15071 -0.32518,-0.33576 -2.6e-4,-0.18504 0.14528,-0.33531 0.32518,-0.33575 0.1799,4.4e-4 0.32544,0.15071 0.32518,0.33575 2.7e-4,0.18505 -0.14527,0.33532 -0.32518,0.33576 z m 27.765,-0.2353 c 0.10085,1.8e-4 0.18263,-0.084 0.18242,-0.1877 2.2e-4,-0.10373 -0.0816,-0.18789 -0.18242,-0.18771 -0.10085,-1.8e-4 -0.18264,0.084 -0.18242,0.18771 -2.1e-4,0.10373 0.0816,0.18788 0.18242,0.1877 z m -7.7515,-1.7396 c 0.51098,-1.3e-4 0.92518,-0.42617 0.92531,-0.95175 -1.3e-4,-0.52558 -0.41433,-0.95161 -0.92531,-0.95174 -0.51098,1.3e-4 -0.92518,0.42616 -0.92531,0.95174 1.3e-4,0.52558 0.41433,0.95162 0.92531,0.95175 z m -7.1989,-0.1269 c -0.43183,2.4e-4 -0.78214,-0.35953 -0.78255,-0.8037 -0.001,-0.4452 0.34972,-0.80659 0.78255,-0.80634 0.43283,-2.5e-4 0.78356,0.36114 0.78255,0.80634 -4.1e-4,0.44417 -0.35072,0.80394 -0.78255,0.8037 z m -15.344,-0.1692 c -0.36358,3.3e-4 -0.65845,-0.30283 -0.65829,-0.6768 -1.5e-4,-0.37397 0.29471,-0.67712 0.65829,-0.67679 0.36358,-3.3e-4 0.65844,0.30282 0.65829,0.67679 1.6e-4,0.37397 -0.29471,0.67713 -0.65829,0.6768 z m -12.463,-0.0264 c 0.32908,-4e-5 0.59561,-0.27486 0.59485,-0.61334 -6.5e-4,-0.33745 -0.26677,-0.61067 -0.59485,-0.61071 -0.32807,5e-5 -0.59419,0.27326 -0.59484,0.61071 -7.6e-4,0.33847 0.26577,0.61329 0.59484,0.61334 z m -5.0918,-0.37012 c 0.11524,3.8e-4 0.20886,-0.0956 0.20885,-0.21414 2e-5,-0.11854 -0.0936,-0.21453 -0.20885,-0.21415 -0.11422,0.001 -0.20624,0.0967 -0.20622,0.21415 -2e-5,0.11748 0.092,0.21303 0.20622,0.21414 z m 45.34,-0.0132 c 0.13485,3.6e-4 0.2441,-0.11245 0.24322,-0.25115 -5.4e-4,-0.13767 -0.10937,-0.24888 -0.24322,-0.24852 -0.13385,-3.6e-4 -0.24269,0.11085 -0.24323,0.24852 -8.8e-4,0.1387 0.10838,0.25152 0.24323,0.25115 z m -22.683,-0.1031 c -0.0886,6.8e-4 -0.16089,-0.0728 -0.16127,-0.16392 3.9e-4,-0.0911 0.0727,-0.16459 0.16127,-0.16391 0.0876,8.1e-4 0.15825,0.0738 0.15863,0.16391 -3.8e-4,0.0901 -0.0711,0.16311 -0.15863,0.16392 z m 5.0178,0 c -0.0886,6.8e-4 -0.16089,-0.0728 -0.16127,-0.16392 3.9e-4,-0.0911 0.0727,-0.16459 0.16127,-0.16391 0.0876,8.1e-4 0.15824,0.0739 0.15862,0.16391 -3.8e-4,0.0901 -0.0711,0.1631 -0.15862,0.16392 z m -12.69,-1.3404 c -0.66013,2.8e-4 -1.19532,-0.55027 -1.195,-1.2293 -3.2e-4,-0.67903 0.53487,-1.22958 1.195,-1.2293 0.66013,-2.8e-4 1.19532,0.55027 1.195,1.2293 3.2e-4,0.67903 -0.53487,1.22958 -1.195,1.2293 z m 20.486,-0.1692 c -0.6366,0.001 -1.15313,-0.5296 -1.1527,-1.1844 -4.3e-4,-0.6548 0.5161,-1.18554 1.1527,-1.1844 0.63554,4e-4 1.15043,0.53068 1.15,1.1844 4.3e-4,0.65372 -0.51446,1.184 -1.15,1.1844 z m -27.844,-0.38334 c 0.38501,-0.001 0.69623,-0.32309 0.69531,-0.7191 -4.9e-4,-0.39498 -0.3113,-0.71524 -0.69531,-0.71646 -0.38503,-2.7e-4 -0.69745,0.32043 -0.69794,0.71646 -9.3e-4,0.39706 0.3119,0.71937 0.69794,0.7191 z m 35.127,-0.20357 c 0.30948,-2e-5 0.56038,-0.25802 0.56048,-0.57634 -1.1e-4,-0.31831 -0.251,-0.57631 -0.56048,-0.57633 -0.30947,3e-5 -0.56036,0.25802 -0.56047,0.57633 1e-4,0.31831 0.251,0.57631 0.56047,0.57634 z m -12.468,-0.0925 c -0.2271,5.1e-4 -0.41109,-0.18942 -0.40978,-0.423 1.1e-4,-0.23255 0.18369,-0.42087 0.40978,-0.42036 0.22609,-5.1e-4 0.40967,0.18781 0.40978,0.42036 0.001,0.23358 -0.18268,0.42351 -0.40978,0.423 z m -10.118,-0.0423 c -0.22609,5.1e-4 -0.40967,-0.18781 -0.40978,-0.42036 1.2e-4,-0.23255 0.18369,-0.42086 0.40978,-0.42035 0.22506,9.9e-4 0.40702,0.18886 0.40714,0.42035 -1.1e-4,0.23149 -0.18208,0.41937 -0.40714,0.42036 z m -17.597,-0.12162 c 0.14734,-6e-4 0.26658,-0.12339 0.26701,-0.27494 0.001,-0.15258 -0.11866,-0.27699 -0.26701,-0.2776 -0.14835,6e-4 -0.26802,0.12501 -0.26702,0.2776 4.3e-4,0.15155 0.11968,0.27434 0.26702,0.27494 z m 22.697,-0.21678 c -0.0896,7e-4 -0.16232,-0.0744 -0.16127,-0.16656 3.9e-4,-0.0911 0.0727,-0.16459 0.16127,-0.16391 0.0876,8.1e-4 0.15824,0.0739 0.15862,0.16391 0.001,0.0911 -0.07,0.16574 -0.15862,0.16656 z m -15.03,-1.5968 c 0.51198,-1.3e-4 0.9266,-0.42778 0.92531,-0.95439 -1.3e-4,-0.52558 -0.41433,-0.95162 -0.92531,-0.95175 -0.51098,1.3e-4 -0.92518,0.42617 -0.92531,0.95175 -0.001,0.52661 0.41333,0.95426 0.92531,0.95439 z m 29.901,0 c 0.57794,-0.001 1.04548,-0.48414 1.0443,-1.0786 -2.1e-4,-0.59344 -0.46735,-1.07475 -1.0443,-1.076 -0.57797,-2.3e-4 -1.04669,0.48152 -1.0469,1.076 -0.001,0.5955 0.46794,1.07883 1.0469,1.0786 z m -22.625,-0.2115 c -0.43183,2.4e-4 -0.78214,-0.35953 -0.78255,-0.8037 4.1e-4,-0.44417 0.35072,-0.80394 0.78255,-0.8037 0.4308,0.001 0.7795,0.36059 0.77991,0.8037 -4.1e-4,0.44311 -0.34911,0.80245 -0.77991,0.8037 z m 15.384,-0.1269 c -0.36358,3.3e-4 -0.65845,-0.30283 -0.65829,-0.6768 -1.6e-4,-0.37397 0.29471,-0.67713 0.65829,-0.6768 0.36358,-3.3e-4 0.65845,0.30283 0.65829,0.6768 1.6e-4,0.37397 -0.29471,0.67713 -0.65829,0.6768 z m -27.86,-0.33576 c 0.15992,0.001 0.2903,-0.13161 0.29081,-0.2961 9.1e-4,-0.16553 -0.12988,-0.29989 -0.29081,-0.29874 -0.1599,3.6e-4 -0.28907,0.13428 -0.28817,0.29874 5.1e-4,0.16343 0.12928,0.29574 0.28817,0.2961 z m 40.267,-0.0185 c 0.19608,6.2e-4 0.35511,-0.16316 0.35426,-0.36484 -5.7e-4,-0.20064 -0.15919,-0.36281 -0.35426,-0.36219 -0.19404,8.8e-4 -0.35105,0.16261 -0.35162,0.36219 -8.5e-4,0.20062 0.15657,0.36396 0.35162,0.36484 z m -17.631,-0.0291 c -0.18094,0.001 -0.3281,-0.14965 -0.32783,-0.33576 -2.7e-4,-0.18611 0.14689,-0.33683 0.32783,-0.33576 0.17991,4.4e-4 0.32545,0.15071 0.32518,0.33576 2.7e-4,0.18505 -0.14527,0.33532 -0.32518,0.33576 z m -5.0178,-0.082 c -0.18094,0.001 -0.32809,-0.14965 -0.32782,-0.33576 -2.7e-4,-0.1861 0.14689,-0.33682 0.32782,-0.33575 0.1799,4.4e-4 0.32544,0.15071 0.32518,0.33575 2.7e-4,0.18505 -0.14527,0.33532 -0.32518,0.33576 z m -7.7567,-1.5122 c -0.65907,-10e-4 -1.19262,-0.55136 -1.1923,-1.2293 -3.2e-4,-0.67794 0.53323,-1.22805 1.1923,-1.2293 0.66013,-2.8e-4 1.19532,0.55027 1.195,1.2293 3.2e-4,0.67903 -0.53487,1.22958 -1.195,1.2293 z m 20.486,-0.2538 c -0.5239,-3e-5 -0.9487,-0.43667 -0.9491,-0.97554 4e-4,-0.53887 0.4252,-0.97551 0.9491,-0.97554 0.52391,3e-5 0.94871,0.43666 0.94911,0.97554 -4e-4,0.53888 -0.4252,0.97551 -0.94911,0.97554 z m 7.2809,-0.12954 c 0.44274,-4e-5 0.80151,-0.36946 0.80106,-0.82485 4.5e-4,-0.45539 -0.35832,-0.82481 -0.80106,-0.82485 -0.44274,5e-5 -0.8015,0.36946 -0.80105,0.82485 -4.5e-4,0.45539 0.35831,0.8248 0.80105,0.82485 z m -22.583,-0.3384 c -0.29534,4.2e-4 -0.53477,-0.24612 -0.53404,-0.5499 6.9e-4,-0.30275 0.2397,-0.54768 0.53404,-0.54726 0.29434,-4.2e-4 0.53335,0.24451 0.53404,0.54726 7.3e-4,0.30378 -0.2387,0.55032 -0.53404,0.5499 z m 5.0601,0 c -0.29534,4.2e-4 -0.53476,-0.24613 -0.53403,-0.5499 6.9e-4,-0.30274 0.2397,-0.54768 0.53403,-0.54726 0.29434,-4.2e-4 0.53335,0.24451 0.53404,0.54726 7.3e-4,0.30378 -0.2387,0.55032 -0.53404,0.5499 z m -17.523,-0.045 c 0.2494,-9.8e-4 0.45129,-0.20878 0.45208,-0.4653 6.2e-4,-0.25755 -0.20168,-0.46695 -0.45208,-0.46794 -0.25143,-5.2e-4 -0.45536,0.20933 -0.45473,0.46794 7.9e-4,0.25758 0.2043,0.46582 0.45473,0.4653 z m 22.665,-0.0396 c -0.29433,4.2e-4 -0.53334,-0.24452 -0.53403,-0.54726 -7.3e-4,-0.30377 0.23869,-0.55032 0.53403,-0.5499 0.29534,-4.2e-4 0.53477,0.24612 0.53404,0.5499 -6.9e-4,0.30275 -0.2397,0.54768 -0.53404,0.54726 z m 17.541,-0.24058 c 0.0999,1.8e-4 0.18123,-0.0824 0.18242,-0.18507 2.1e-4,-0.10373 -0.0816,-0.18788 -0.18242,-0.1877 -0.10085,-1.8e-4 -0.18263,0.084 -0.18242,0.1877 0.001,0.1027 0.0826,0.18525 0.18242,0.18507 z m -9.8691,-1.4461 c -0.63456,-4e-4 -1.14904,-0.5291 -1.15,-1.1818 -4.3e-4,-0.65372 0.51446,-1.184 1.15,-1.1844 0.63554,4e-4 1.15043,0.53068 1.15,1.1844 -9.6e-4,0.6527 -0.51544,1.1814 -1.15,1.1818 z m -27.72,-0.29346 c 0.51098,-1.3e-4 0.92518,-0.42616 0.92531,-0.95174 -1.3e-4,-0.52558 -0.41433,-0.95162 -0.92531,-0.95175 -0.51098,1.3e-4 -0.92518,0.42617 -0.92531,0.95175 1.3e-4,0.52558 0.41433,0.95161 0.92531,0.95174 z m 7.3152,-0.1269 c -0.47647,-5.1e-4 -0.86233,-0.3982 -0.86186,-0.88829 9.4e-4,-0.48906 0.38639,-0.88515 0.86186,-0.88566 0.4765,-9.9e-4 0.86356,0.39554 0.8645,0.88566 4.7e-4,0.49115 -0.387,0.88928 -0.8645,0.88829 z m 5.1421,-0.16655 c -0.40847,-8.8e-4 -0.73939,-0.34126 -0.74025,-0.7614 -5.6e-4,-0.42117 0.33077,-0.76315 0.74025,-0.76404 0.41051,-6.2e-4 0.74345,0.34181 0.74289,0.76404 -8.6e-4,0.4212 -0.33338,0.76201 -0.74289,0.7614 z m 5.0178,0 c -0.40847,-8.8e-4 -0.73939,-0.34126 -0.74025,-0.7614 -5.6e-4,-0.42117 0.33077,-0.76315 0.74025,-0.76404 0.41051,-6.2e-4 0.74345,0.34181 0.74289,0.76404 -8.6e-4,0.4212 -0.33338,0.76201 -0.74289,0.7614 z m 5.0601,-0.045 c -0.36358,3.4e-4 -0.65845,-0.30282 -0.6583,-0.67679 0.001,-0.37295 0.29572,-0.6745 0.6583,-0.67416 0.36258,-3.3e-4 0.65703,0.30122 0.65829,0.67416 1.5e-4,0.37397 -0.29471,0.67712 -0.65829,0.67679 z m 12.502,-0.0899 c 0.28927,-4.3e-4 0.52353,-0.24179 0.52346,-0.53933 6e-5,-0.29753 -0.23419,-0.53889 -0.52346,-0.53932 -0.28927,4.3e-4 -0.52353,0.24178 -0.52347,0.53932 -7e-5,0.29754 0.23419,0.5389 0.52347,0.53933 z m -40.238,-0.32783 c 0.11524,3.8e-4 0.20886,-0.0956 0.20885,-0.21414 1e-5,-0.11853 -0.0936,-0.21452 -0.20885,-0.21414 -0.11421,0.001 -0.20623,0.0967 -0.20621,0.21414 -2e-5,0.11748 0.092,0.21303 0.20621,0.21414 z m 9.9458,-1.5175 c -0.66013,2.8e-4 -1.19532,-0.55027 -1.195,-1.2293 0.001,-0.67801 0.53586,-1.22698 1.195,-1.2267 0.65914,-2.8e-4 1.19393,0.54869 1.195,1.2267 3.2e-4,0.67903 -0.53487,1.22958 -1.195,1.2293 z m 10.242,-0.0872 c -0.68024,3.4e-4 -1.23189,-0.56671 -1.232,-1.2664 1.1e-4,-0.69969 0.55176,-1.26674 1.232,-1.2664 0.68024,-3.4e-4 1.23189,0.56671 1.232,1.2664 -1.1e-4,0.69969 -0.55176,1.26674 -1.232,1.2664 z m 17.441,-0.12425 c 0.58023,0.001 1.05145,-0.48179 1.0522,-1.0786 7e-4,-0.59786 -0.47095,-1.08255 -1.0522,-1.0813 -0.58024,2.3e-4 -1.0503,0.48449 -1.0496,1.0813 7.5e-4,0.59576 0.47039,1.07837 1.0496,1.0786 z m -22.416,-0.12426 c -0.52391,-3e-5 -0.94871,-0.43666 -0.94911,-0.97554 4e-4,-0.53888 0.4252,-0.97551 0.94911,-0.97554 0.5239,3e-5 0.9487,0.43667 0.9491,0.97554 -4e-4,0.53887 -0.4252,0.97551 -0.9491,0.97554 z m 9.9537,-0.0397 c -0.52491,-3e-5 -0.95013,-0.43827 -0.94911,-0.97818 4e-4,-0.53888 0.4252,-0.97551 0.94911,-0.97554 0.5239,3e-5 0.9487,0.43667 0.9491,0.97554 0.001,0.5399 -0.42419,0.97815 -0.9491,0.97818 z m 5.0575,-0.0899 c -0.40948,-8.9e-4 -0.74081,-0.34287 -0.74025,-0.76405 8.6e-4,-0.42014 0.33178,-0.76051 0.74025,-0.76139 0.4095,-6.1e-4 0.74203,0.34019 0.74289,0.76139 5.7e-4,0.42224 -0.33238,0.76467 -0.74289,0.76405 z m -27.64,-0.17185 c 0.31864,-0.001 0.57638,-0.2671 0.57633,-0.59484 5e-5,-0.32774 -0.25769,-0.59376 -0.57633,-0.59484 -0.31967,-4.3e-4 -0.57903,0.26603 -0.57898,0.59484 -5e-5,0.32881 0.25931,0.59527 0.57898,0.59484 z m 40.235,-0.21678 c 0.19507,6.2e-4 0.35369,-0.16155 0.35426,-0.3622 8.5e-4,-0.20167 -0.15819,-0.36545 -0.35426,-0.36483 -0.19607,-6.2e-4 -0.35511,0.16316 -0.35426,0.36483 5.7e-4,0.20065 0.15919,0.36282 0.35426,0.3622 z m -37.642,-1.811 c 0.58637,-2.8e-4 1.06184,-0.48877 1.0628,-1.0919 4.3e-4,-0.60415 -0.47545,-1.09422 -1.0628,-1.0945 -0.58735,2.8e-4 -1.06323,0.49035 -1.0628,1.0945 9.6e-4,0.60313 0.47643,1.09162 1.0628,1.0919 z m 7.5056,-0.0714 c -0.5932,-1.1e-4 -1.07388,-0.495 -1.0734,-1.1051 -4.8e-4,-0.6101 0.4802,-1.10499 1.0734,-1.1051 0.5932,1.1e-4 1.07388,0.495 1.0734,1.1051 4.8e-4,0.6101 -0.4802,1.10499 -1.0734,1.1051 z m 20.196,-0.005 c -0.56755,-7.9e-4 -1.02749,-0.47375 -1.0284,-1.0575 -4.8e-4,-0.58477 0.45986,-1.05931 1.0284,-1.0601 0.56955,-6.8e-4 1.03148,0.47429 1.031,1.0601 -9.1e-4,0.5848 -0.46243,1.05818 -1.031,1.0575 z m -5.2663,-0.0396 c -0.56854,-7.9e-4 -1.02888,-0.47533 -1.0284,-1.0601 -4.8e-4,-0.58477 0.45986,-1.05931 1.0284,-1.0601 0.56959,-7.4e-4 1.03158,0.47425 1.0311,1.0601 4.8e-4,0.58585 -0.46151,1.06084 -1.0311,1.0601 z m 12.505,-0.15598 c 0.44477,3.7e-4 0.80569,-0.37003 0.80634,-0.8275 7.6e-4,-0.4585 -0.36058,-0.8305 -0.80634,-0.83013 -0.44576,-3.7e-4 -0.8071,0.37163 -0.80634,0.83013 6.5e-4,0.45747 0.36157,0.82787 0.80634,0.8275 z m -40.08,-0.40978 c 0.20992,-5.5e-4 0.38001,-0.17536 0.3807,-0.39128 7.2e-4,-0.21695 -0.16978,-0.39336 -0.3807,-0.39392 -0.21092,5.6e-4 -0.38142,0.17697 -0.3807,0.39392 6.9e-4,0.21592 0.17078,0.39073 0.3807,0.39128 z m 45.306,-0.20357 c 0.10085,1.8e-4 0.18264,-0.084 0.18242,-0.18771 2.1e-4,-0.10373 -0.0816,-0.18788 -0.18242,-0.1877 -0.10085,-1.8e-4 -0.18263,0.084 -0.18242,0.1877 -2.2e-4,0.10373 0.0816,0.18789 0.18242,0.18771 z m -27.783,-1.43069 c 0.57921,-2.3e-4 1.04885,-0.48284 1.0496,-1.0786 7e-4,-0.59681 -0.46936,-1.08107 -1.0496,-1.0813 -0.58024,2.3e-4 -1.0503,0.48449 -1.0496,1.0813 7.5e-4,0.59576 0.47039,1.07837 1.0496,1.0786 z m 17.851,0 c -0.68024,3.4e-4 -1.23189,-0.56671 -1.232,-1.2664 1.1e-4,-0.69969 0.55176,-1.26674 1.232,-1.2664 0.68024,-3.4e-4 1.23189,0.56671 1.232,1.2664 -1.1e-4,0.69969 -0.55176,1.26674 -1.232,1.2664 z m -12.708,-0.0396 c 0.58024,-2.3e-4 1.0503,-0.48449 1.0496,-1.0813 -7.5e-4,-0.59576 -0.47039,-1.07837 -1.0496,-1.0786 -0.57921,2.3e-4 -1.04885,0.48284 -1.0496,1.0786 -7e-4,0.59681 0.46936,1.08107 1.0496,1.0813 z m -12.594,-0.0347 c -0.68345,-10e-4 -1.23698,-0.57127 -1.2373,-1.2743 3.2e-4,-0.70303 0.55385,-1.27311 1.2373,-1.2743 0.68447,-2.8e-4 1.23958,0.57023 1.2399,1.2743 -3.2e-4,0.70407 -0.55543,1.27458 -1.2399,1.2743 z m 19.989,-0.13219 c -0.63554,-4e-4 -1.15043,-0.53068 -1.15,-1.1844 9.6e-4,-0.6527 0.51544,-1.1814 1.15,-1.1818 0.63561,-10e-4 1.15173,0.52801 1.1527,1.1818 4.3e-4,0.6548 -0.5161,1.18554 -1.1527,1.1844 z m -27.503,-0.28817 c 0.43112,-4.5e-4 0.78028,-0.36025 0.77991,-0.80369 3.8e-4,-0.44344 -0.34878,-0.80325 -0.77991,-0.8037 -0.43215,-0.001 -0.78292,0.3592 -0.78254,0.8037 -3.7e-4,0.44449 0.35039,0.80474 0.78254,0.80369 z m 40.158,-0.21678 c 0.31982,7.8e-4 0.57937,-0.26589 0.57898,-0.59485 3.9e-4,-0.32896 -0.25917,-0.59562 -0.57898,-0.59484 -0.31878,7.2e-4 -0.57673,0.26695 -0.57634,0.59484 -3.9e-4,0.3279 0.25755,0.59413 0.57634,0.59485 z m -45.242,-0.2961 c 0.11525,3.8e-4 0.20887,-0.0956 0.20885,-0.21415 1e-5,-0.11853 -0.0936,-0.21452 -0.20885,-0.21414 -0.11525,-3.9e-4 -0.20887,0.0956 -0.20886,0.21414 -2e-5,0.11854 0.0936,0.21454 0.20886,0.21415 z m 50.408,-0.11368 c 0.10085,1.8e-4 0.18264,-0.084 0.18242,-0.18771 2.2e-4,-0.10373 -0.0816,-0.18789 -0.18242,-0.18771 -0.10085,-1.8e-4 -0.18264,0.084 -0.18242,0.18771 -2.2e-4,0.10373 0.0816,0.18789 0.18242,0.18771 z m -32.893,-1.4065 c 0.58125,0.001 1.0529,-0.48344 1.0522,-1.0813 -7.5e-4,-0.59681 -0.47197,-1.07985 -1.0522,-1.0786 -0.57921,2.3e-4 -1.04885,0.48284 -1.0496,1.0786 -7e-4,0.59681 0.46936,1.08107 1.0496,1.0813 z m -9.8797,-0.11104 c 0.61909,2.8e-4 1.12106,-0.51593 1.1209,-1.1527 1.6e-4,-0.63677 -0.50181,-1.15298 -1.1209,-1.1527 -0.61913,-3.4e-4 -1.12116,0.51589 -1.121,1.1527 -1.6e-4,0.63681 0.50187,1.15304 1.121,1.1527 z m 20.166,-0.0978 c 0.51223,-6e-4 0.92733,-0.42753 0.92795,-0.95439 8.1e-4,-0.52789 -0.41472,-0.95644 -0.92795,-0.95704 -0.51427,-9.1e-4 -0.93141,0.42808 -0.9306,0.95704 6.2e-4,0.52792 0.41734,0.9553 0.9306,0.95439 z m 14.837,0 c 0.58024,-2.3e-4 1.0503,-0.48449 1.0496,-1.0813 -7.5e-4,-0.59576 -0.47039,-1.07837 -1.0496,-1.0786 -0.57921,2.3e-4 -1.04885,0.48284 -1.0496,1.0786 -7e-4,0.59681 0.46936,1.08107 1.0496,1.0813 z m -20,-0.36748 c 0.32683,4.1e-4 0.59203,-0.27189 0.5922,-0.60806 -1.7e-4,-0.33617 -0.26537,-0.60847 -0.5922,-0.60806 -0.32683,-4.1e-4 -0.59203,0.27189 -0.5922,0.60806 1.7e-4,0.33617 0.26537,0.60847 0.5922,0.60806 z m -20.058,-0.20357 c 0.26436,6.2e-4 0.47888,-0.21983 0.47852,-0.49174 3.6e-4,-0.27191 -0.21417,-0.49235 -0.47852,-0.49173 -0.26332,8.8e-4 -0.47623,0.22089 -0.47587,0.49173 -3.6e-4,0.27085 0.21255,0.49086 0.47587,0.49174 z m 45.271,-0.13219 c 0.20871,1e-5 0.37794,-0.17396 0.37806,-0.38863 -1.2e-4,-0.21467 -0.16935,-0.38864 -0.37806,-0.38863 -0.20871,0 -0.37793,0.17396 -0.37805,0.38863 1.2e-4,0.21467 0.16934,0.38863 0.37805,0.38863 z m -37.755,-1.5413 c 0.66918,10e-4 1.21204,-0.55686 1.2108,-1.2452 -1.6e-4,-0.68732 -0.54261,-1.24402 -1.2108,-1.2426 -0.66717,6e-5 -1.20804,0.55632 -1.2082,1.2426 -0.001,0.68729 0.54004,1.24514 1.2082,1.2452 z m 4.8989,-0.1692 c 0.5607,-6e-5 1.0152,-0.46759 1.0152,-1.0443 0,-0.57671 -0.4545,-1.04424 -1.0152,-1.0443 -0.5607,6e-5 -1.0152,0.46759 -1.0152,1.0443 0,0.57671 0.4545,1.04424 1.0152,1.0443 z m 15.294,-0.20092 c 0.46708,-3e-5 0.84576,-0.38937 0.846,-0.86979 -2.3e-4,-0.48042 -0.37892,-0.86977 -0.846,-0.8698 -0.46708,3e-5 -0.84577,0.38938 -0.846,0.8698 2.4e-4,0.48042 0.37892,0.86976 0.846,0.86979 z m -25.205,-0.15863 c 0.43112,-4.5e-4 0.78028,-0.36025 0.77991,-0.80369 3.8e-4,-0.44344 -0.34878,-0.80325 -0.77991,-0.8037 -0.43215,-0.001 -0.78292,0.3592 -0.78254,0.8037 -3.7e-4,0.44449 0.35039,0.80474 0.78254,0.80369 z m 40.121,-0.003 c 0.43058,7e-4 0.77998,-0.35817 0.7799,-0.80105 8e-5,-0.44288 -0.34932,-0.80176 -0.7799,-0.80106 -0.42955,8e-4 -0.77734,0.35924 -0.77726,0.80106 -8e-5,0.44182 0.34771,0.80025 0.77726,0.80105 z m -25.118,-0.25909 c 0.26435,6.2e-4 0.47887,-0.21983 0.47851,-0.49173 3.6e-4,-0.27191 -0.21416,-0.49236 -0.47851,-0.49174 -0.26436,-6.2e-4 -0.47888,0.21983 -0.47852,0.49174 -3.6e-4,0.27191 0.21417,0.49235 0.47852,0.49173 z m 5.1421,-0.0846 c 0.26335,6.1e-4 0.47745,-0.21822 0.47851,-0.48909 3.6e-4,-0.27191 -0.21416,-0.49236 -0.47851,-0.49174 -0.26436,-6.2e-4 -0.47888,0.21983 -0.47852,0.49174 0.001,0.27087 0.21517,0.48971 0.47852,0.48909 z m -25.258,-0.22472 c 0.11524,3.8e-4 0.20886,-0.0956 0.20885,-0.21414 1e-5,-0.11853 -0.0936,-0.21452 -0.20885,-0.21414 -0.11525,-3.9e-4 -0.20887,0.0956 -0.20886,0.21414 -1e-5,0.11854 0.0936,0.21453 0.20886,0.21414 z m 50.35,-0.0555 c 0.10085,1.8e-4 0.18264,-0.084 0.18242,-0.18771 2.2e-4,-0.10373 -0.0816,-0.18789 -0.18242,-0.18771 -0.10085,-1.8e-4 -0.18264,0.084 -0.18242,0.18771 -2.2e-4,0.10373 0.0816,0.18789 0.18242,0.18771 z m -12.55,-1.4118 c 0.64124,-5.1e-4 1.16076,-0.53543 1.1606,-1.195 1.6e-4,-0.65957 -0.51936,-1.19449 -1.1606,-1.195 -0.64124,5.1e-4 -1.16076,0.53543 -1.1606,1.195 -1.6e-4,0.65957 0.51936,1.19449 1.1606,1.195 z m 4.9253,-0.14541 c 0.58023,0.001 1.05145,-0.48179 1.0522,-1.0786 7e-4,-0.59786 -0.47095,-1.08255 -1.0522,-1.0813 -0.58024,2.3e-4 -1.0503,0.48449 -1.0496,1.0813 7.5e-4,0.59576 0.47039,1.07837 1.0496,1.0786 z m -30.194,-0.0106 c 0.5283,2.2e-4 0.95677,-0.44008 0.95703,-0.98348 -2.7e-4,-0.54339 -0.42873,-0.98369 -0.95703,-0.98347 -0.5283,-2.3e-4 -0.95677,0.44007 -0.95704,0.98347 2.6e-4,0.5434 0.42873,0.98371 0.95704,0.98348 z m -4.9253,-0.0872 c 0.52828,-0.001 0.95555,-0.44274 0.9544,-0.98611 -2.6e-4,-0.54234 -0.42712,-0.98221 -0.9544,-0.98348 -0.5283,-2.2e-4 -0.95677,0.44008 -0.95703,0.98348 -0.001,0.54442 0.42773,0.98633 0.95703,0.98611 z m 25.282,-0.13218 c 0.46708,-4e-5 0.84576,-0.38938 0.84599,-0.8698 -2.4e-4,-0.48041 -0.37892,-0.86975 -0.84599,-0.86979 -0.46708,3e-5 -0.84576,0.38937 -0.846,0.86979 2.3e-4,0.48042 0.37892,0.86977 0.846,0.8698 z m -5.1817,-0.33576 c 0.26332,-8.8e-4 0.47623,-0.22089 0.47587,-0.49174 3.6e-4,-0.27084 -0.21255,-0.49085 -0.47587,-0.49173 -0.26435,-6.2e-4 -0.47888,0.21982 -0.47852,0.49173 -3.6e-4,0.27191 0.21416,0.49236 0.47852,0.49174 z m -10.12,-0.0423 c 0.26436,6.2e-4 0.47888,-0.21983 0.47852,-0.49174 3.6e-4,-0.27191 -0.21417,-0.49235 -0.47852,-0.49173 -0.26435,-6.2e-4 -0.47887,0.21983 -0.47851,0.49173 -3.6e-4,0.27191 0.21416,0.49236 0.47851,0.49174 z m 30.236,-0.0344 c 0.27219,-2e-4 0.49252,-0.22764 0.49174,-0.5076 -6.4e-4,-0.27893 -0.22056,-0.50475 -0.49174,-0.50495 -0.27118,2e-4 -0.4911,0.22602 -0.49174,0.50495 -7.8e-4,0.27996 0.21955,0.5074 0.49174,0.5076 z m -45.271,-0.0159 c 0.26436,6.2e-4 0.47888,-0.21983 0.47852,-0.49174 -10e-4,-0.27087 -0.21517,-0.48971 -0.47852,-0.48909 -0.26232,8.7e-4 -0.47482,0.21927 -0.47588,0.48909 -3.6e-4,0.27085 0.21255,0.49086 0.47588,0.49174 z m 20.145,-0.30667 c 0.10085,1.8e-4 0.18264,-0.084 0.18242,-0.18771 2.2e-4,-0.10373 -0.0816,-0.18789 -0.18242,-0.18771 -0.10085,-1.8e-4 -0.18264,0.084 -0.18242,0.18771 -2.2e-4,0.10373 0.0816,0.18789 0.18242,0.18771 z m 17.626,-1.618 c 0.53115,1.9e-4 0.96194,-0.44243 0.96232,-0.98876 -3.9e-4,-0.54632 -0.43117,-0.98894 -0.96232,-0.98875 -0.53115,-1.9e-4 -0.96193,0.44243 -0.96232,0.98875 3.8e-4,0.54633 0.43117,0.98895 0.96232,0.98876 z m -30.284,-0.0952 c 0.46583,4.3e-4 0.8436,-0.38801 0.84335,-0.86715 2.5e-4,-0.47914 -0.37752,-0.86758 -0.84335,-0.86715 -0.46583,-4.3e-4 -0.84361,0.38801 -0.84336,0.86715 -2.5e-4,0.47914 0.37753,0.86758 0.84336,0.86715 z m 25.256,-0.12426 c 0.39883,5e-5 0.72207,-0.33267 0.72174,-0.74289 3.3e-4,-0.41022 -0.32291,-0.74294 -0.72174,-0.74289 -0.39883,-5e-5 -0.72207,0.33267 -0.72174,0.74289 -3.3e-4,0.41022 0.32291,0.74294 0.72174,0.74289 z m -30.231,-0.1269 c 0.35265,-8.9e-4 0.63787,-0.29557 0.63715,-0.65829 -6.9e-4,-0.36169 -0.2855,-0.65477 -0.63715,-0.65565 -0.35267,-6.1e-4 -0.63908,0.2929 -0.63978,0.65565 -7.2e-4,0.36378 0.2861,0.6589 0.63978,0.65829 z m 40.209,-0.0555 c 0.35267,6.1e-4 0.63908,-0.2929 0.63978,-0.65565 7.2e-4,-0.36378 -0.2861,-0.6589 -0.63978,-0.65829 -0.35265,8.9e-4 -0.63786,0.29557 -0.63714,0.65829 6.9e-4,0.36169 0.2855,0.65476 0.63714,0.65565 z m -30.215,-0.11104 c 0.26436,6.2e-4 0.47888,-0.21983 0.47852,-0.49174 3.6e-4,-0.27191 -0.21417,-0.49235 -0.47852,-0.49173 -0.26332,8.8e-4 -0.47623,0.22089 -0.47587,0.49173 -3.6e-4,0.27085 0.21255,0.49086 0.47587,0.49174 z m 15.262,-0.1692 c 0.19508,-7.9e-4 0.35255,-0.16419 0.35162,-0.36484 -4.9e-4,-0.19962 -0.15755,-0.3614 -0.35162,-0.36219 -0.1951,-7.1e-4 -0.35377,0.16151 -0.35426,0.36219 -9.4e-4,0.20172 0.15815,0.36555 0.35426,0.36484 z m 20.032,-0.13483 c 0.13157,-6.7e-4 0.23789,-0.11054 0.23794,-0.24587 -5e-5,-0.13533 -0.10637,-0.2452 -0.23794,-0.24587 -0.1326,-8.3e-4 -0.24053,0.10948 -0.24058,0.24587 5e-5,0.13639 0.10798,0.2467 0.24058,0.24587 z m -50.35,-0.0608 c 0.11524,3.8e-4 0.20886,-0.0956 0.20885,-0.21414 1e-5,-0.11853 -0.0936,-0.21452 -0.20885,-0.21414 -0.11525,-3.9e-4 -0.20887,0.0956 -0.20886,0.21414 -10e-6,0.11854 0.0936,0.21453 0.20886,0.21414 z m 20.145,-0.0264 c 0.10084,1.7e-4 0.18262,-0.084 0.18241,-0.1877 -10e-4,-0.10269 -0.0826,-0.18524 -0.18241,-0.18506 -0.0999,-1.8e-4 -0.18122,0.0824 -0.18242,0.18506 -2.1e-4,0.10373 0.0816,0.18788 0.18242,0.1877 z m 17.679,-1.9326 c 0.35268,6.1e-4 0.63909,-0.2929 0.63979,-0.65565 7.2e-4,-0.36378 -0.28611,-0.65891 -0.63979,-0.65829 -0.35368,-6.1e-4 -0.6405,0.29451 -0.63978,0.65829 7e-4,0.36275 0.28711,0.65626 0.63978,0.65565 z m 4.9861,-0.0291 c 0.35165,-8.8e-4 0.63646,-0.29396 0.63715,-0.65565 7.2e-4,-0.36272 -0.2845,-0.6574 -0.63715,-0.65829 -0.35368,-6.1e-4 -0.6405,0.29451 -0.63978,0.65829 7e-4,0.36275 0.28711,0.65626 0.63978,0.65565 z m -35.178,-0.0925 c 0.30951,6e-5 0.56045,-0.25799 0.56047,-0.57634 -2e-5,-0.31835 -0.25096,-0.5764 -0.56047,-0.57634 -0.30951,-6e-5 -0.56045,0.25799 -0.56047,0.57634 2e-5,0.31835 0.25096,0.5764 0.56047,0.57634 z m 4.9782,-0.0423 c 0.26332,-8.8e-4 0.47623,-0.22089 0.47587,-0.49174 3.6e-4,-0.27085 -0.21255,-0.49086 -0.47587,-0.49174 -0.26436,-6.2e-4 -0.47888,0.21983 -0.47852,0.49174 -3.6e-4,0.27191 0.21416,0.49236 0.47852,0.49174 z m 35.241,-0.19035 c 0.20871,1e-5 0.37794,-0.17396 0.37806,-0.38863 -1.2e-4,-0.21467 -0.16935,-0.38864 -0.37806,-0.38863 -0.20871,0 -0.37793,0.17396 -0.37805,0.38863 1.2e-4,0.21467 0.16934,0.38863 0.37805,0.38863 z m -15.046,-0.0212 c 0.19408,-7.9e-4 0.35114,-0.16258 0.35162,-0.3622 9.3e-4,-0.20065 -0.15655,-0.36404 -0.35162,-0.36483 -0.19611,-7.1e-4 -0.35519,0.16312 -0.35426,0.36483 4.9e-4,0.20068 0.15915,0.36291 0.35426,0.3622 z m -30.284,-0.037 c 0.16332,-3e-5 0.29579,-0.13605 0.2961,-0.30403 0.001,-0.16902 -0.13178,-0.30665 -0.2961,-0.30667 -0.16432,2e-5 -0.29721,0.13765 -0.2961,0.30667 3.1e-4,0.16798 0.13278,0.304 0.2961,0.30403 z m 15.072,-0.14804 c 0.0999,1.8e-4 0.18123,-0.0824 0.18242,-0.18507 2.1e-4,-0.10373 -0.0816,-0.18788 -0.18242,-0.1877 -0.10084,-1.7e-4 -0.18262,0.084 -0.18241,0.1877 0.001,0.10269 0.0826,0.18525 0.18241,0.18507 z m 22.665,-2.1705 c 0.27118,-2e-4 0.4911,-0.22602 0.49174,-0.50495 7.8e-4,-0.27996 -0.21955,-0.5074 -0.49174,-0.5076 -0.27322,-10e-4 -0.49517,0.22657 -0.49438,0.5076 6.4e-4,0.27999 0.22217,0.50625 0.49438,0.50495 z m 5.1024,-0.0872 c 0.20871,0 0.37793,-0.17396 0.37805,-0.38863 -1.2e-4,-0.21467 -0.16934,-0.38863 -0.37805,-0.38863 -0.20871,-1e-5 -0.37794,0.17396 -0.37806,0.38863 1.2e-4,0.21467 0.16935,0.38864 0.37806,0.38863 z m -35.302,-0.11633 c 0.16332,-3e-5 0.29579,-0.13605 0.2961,-0.30403 -3.1e-4,-0.16798 -0.13278,-0.304 -0.2961,-0.30403 -0.16332,3e-5 -0.29579,0.13605 -0.2961,0.30403 3.1e-4,0.16798 0.13278,0.304 0.2961,0.30403 z m 25.277,-0.0555 c 0.14892,-2.4e-4 0.26955,-0.12442 0.26966,-0.2776 -1.1e-4,-0.15317 -0.12074,-0.27735 -0.26966,-0.27759 -0.14892,2.4e-4 -0.26955,0.12442 -0.26966,0.27759 1.1e-4,0.15318 0.12074,0.27736 0.26966,0.2776 z m -30.321,-0.003 c 0.16332,-3e-5 0.29579,-0.13605 0.2961,-0.30403 0.001,-0.16902 -0.13178,-0.30665 -0.2961,-0.30667 -0.16432,2e-5 -0.29721,0.13765 -0.2961,0.30667 3.1e-4,0.16798 0.13278,0.304 0.2961,0.30403 z m 10.086,-0.0582 c 0.10085,1.7e-4 0.18263,-0.084 0.18241,-0.18771 2.1e-4,-0.10372 -0.0816,-0.18787 -0.18241,-0.1877 -0.0998,0.001 -0.18,0.085 -0.17978,0.1877 -2.2e-4,0.10268 0.08,0.1864 0.17978,0.18771 z m 35.307,0 c 0.10085,1.8e-4 0.18264,-0.084 0.18242,-0.18771 2.1e-4,-0.10373 -0.0816,-0.18788 -0.18242,-0.1877 -0.10085,-1.8e-4 -0.18263,0.084 -0.18242,0.1877 -2.2e-4,0.10373 0.0816,0.18789 0.18242,0.18771 z m -7.5955,-2.464 c 0.1326,8.3e-4 0.24053,-0.10948 0.24058,-0.24587 -5e-5,-0.13639 -0.10798,-0.2467 -0.24058,-0.24587 -0.13157,6.7e-4 -0.23789,0.11054 -0.23794,0.24587 5e-5,0.13533 0.10637,0.2452 0.23794,0.24587 z m 5.0733,-0.0582 c 0.10085,1.8e-4 0.18264,-0.084 0.18242,-0.18771 2.1e-4,-0.10373 -0.0816,-0.18788 -0.18242,-0.1877 -0.10085,-1.8e-4 -0.18263,0.084 -0.18242,0.1877 -2.2e-4,0.10373 0.0816,0.18789 0.18242,0.18771 z m -10.057,-0.0291 c 0.0998,-10e-4 0.18,-0.085 0.17978,-0.18771 2.2e-4,-0.10267 -0.08,-0.18639 -0.17978,-0.1877 -0.10085,-1.8e-4 -0.18263,0.084 -0.18242,0.1877 -2.2e-4,0.10373 0.0816,0.18789 0.18242,0.18771 z m -30.234,-0.0291 c 0.085,-1.5e-4 0.15368,-0.0712 0.15334,-0.15863 3.4e-4,-0.0874 -0.0684,-0.15847 -0.15334,-0.15862 -0.085,1.5e-4 -0.15368,0.0712 -0.15334,0.15862 -3.4e-4,0.0874 0.0684,0.15848 0.15334,0.15863 z m 5.0152,0 c 0.085,-1.5e-4 0.15368,-0.0712 0.15334,-0.15863 3.4e-4,-0.0874 -0.0684,-0.15847 -0.15334,-0.15862 -0.086,-0.001 -0.15633,0.0701 -0.15598,0.15862 -3.6e-4,0.0885 0.07,0.16 0.15598,0.15863 z"
     clip-path="url(#a)"
     id="path9" /><metadata
     id="metadata392"><rdf:RDF><cc:Work
         rdf:about=""><dc:title>Mapping Creative Education</dc:title></cc:Work></rdf:RDF></metadata></svg>
