<?xml version="1.0" encoding="UTF-8"?>
<svg enable-background="new 0 0 175.462 52.642" height="52.642" viewBox="0 0 175.462 52.642" width="175.462" xmlns="http://www.w3.org/2000/svg"><path d="m175.462 50.022c0 .126 0 .284-.049.493-.037.212-.075.369-.123.441-.384-.038-1.563-.055-3.528-.055h-.511l-.048-.158.033-1.332c.034-.458.053-1.055.053-1.775 0-.738-.021-1.333-.053-1.789l-.033-1.352.048-.141h1.089l.054.141c-.054 1.058-.088 2.105-.088 3.141 0 .793.017 1.723.088 2.773 1.082.037 1.891.02 2.4-.069.299-.051.512-.156.668-.318zm-70.993-28.402-.159 1.071-16.596 7.754c.248.56.758 1.473 1.522 2.717 1.405 2.305 3.586 3.441 6.495 3.441 3.402 0 6.266-1.51 8.578-4.526.354.667.338 1.683-.048 3.033-3.228 2.808-6.37 4.212-9.439 4.212-3.725 0-6.737-1.178-9.056-3.49-2.336-2.334-3.49-5.266-3.49-8.824 0-3.475 1.088-6.354 3.276-8.634 2.32-2.403 5.198-3.616 8.634-3.616 3.105 0 5.634 1 7.6 2.979.454.495 1.351 1.797 2.683 3.883zm-4.527 1.665c-.279-1.422-.807-2.736-1.575-3.945-1.159-1.846-2.948-2.773-5.388-2.773-2.176 0-3.754.979-4.735 2.927-.843 1.743-1.28 4.04-1.318 6.879 0 .966.084 1.808.262 2.565zm28.267-1.665-.173 1.071-16.582 7.754c.246.56.751 1.473 1.528 2.717 1.399 2.305 3.562 3.441 6.472 3.441 3.402 0 6.28-1.51 8.6-4.526.346.667.33 1.683-.053 3.033-3.248 2.808-6.387 4.212-9.442 4.212-3.718 0-6.755-1.178-9.075-3.49-2.313-2.334-3.474-5.266-3.474-8.824 0-3.475 1.092-6.354 3.265-8.634 2.318-2.403 5.214-3.616 8.651-3.616 3.092 0 5.616 1 7.598 2.979.459.495 1.354 1.797 2.685 3.883zm-4.541 1.665c-.281-1.422-.809-2.736-1.577-3.945-1.16-1.846-2.951-2.773-5.372-2.773-2.173 0-3.769.979-4.753 2.927-.842 1.743-1.28 4.04-1.318 6.879 0 .966.091 1.808.266 2.565zm-69.992 23.844-1.211 1.862 1.667 1.846h-12.812v-2.599h-2.016v-1.105h14.371v-.004zm-39.411 1.846h26.392v3.667h-26.392zm-13.09-1.846h14.356v1.091h-2.003v2.614h-12.823l1.668-1.863zm13.042-39.459c0-.283.312-.492.716-.492.387 0 .703.209.703.492 0 .281-.315.512-.701.512l-.176-.018c-.541.612-.596 1.383-.596 1.383v1.102h-6.666s.017-.783 0-1.066c-.04-.33-.457-1.089-.723-1.4h-.086c-.407 0-.721-.23-.721-.512 0-.283.313-.492.721-.492.386 0 .699.209.699.492l-.013.085c1.646 1.739 2.946 1.948 3.119-.068h.652c.035 1.933 1.035 1.914 3.104.123-.016-.035-.032-.086-.032-.141zm-4.053-.682c0-.282.313-.51.696-.51.406 0 .721.228.721.51 0 .277-.314.486-.721.486-.381.001-.696-.208-.696-.486zm-2.65 4.524c0 .055-.057.617.37.795.962.383 2.75-.092 3.297 2.438.035.086.158.121.229-.021-.07-1.472.785-2.19 2.157-2.544.385-.12.753-.212.838-.438.07-.243-.117-1.105.687-1.105.104 0 .367.071.388.335.053.456-.317.575-.197.736.145.176.039.35.022.366-.123.161-.193.091-.67.3-.525.231-.785.543-.857.738-.055.174-.04.141 0 .371.016.259.527.383.399.413-.139.025-.418.055-.488.144-.072.109-.332.438-.702.477-.37.049-.37-.021-.63.115-.717.338-.859.863-.915 1.09-.031.232-.07.283-.17.215-.09-.07-.022-.195-.198-.439-.192-.248-.352-.7-.894-.721-.352-.018-1.053.068-1.227-.175-.318-.452-.598-.384-.619-.509 0-.07.323-.104.285-.402-.034-.318-.176-.51-.703-.756-.527-.245-.984-.245-1.068-.369-.072-.125-.072-.158-.039-.299.057-.243.023-.137-.176-.315-.189-.191-.101-.966.386-.931.355.018.495.336.495.491zm1.507 2.475c.038.28.28.478.547.439.26-.038.455-.278.416-.562-.031-.265-.258-.456-.543-.422-.262.04-.455.282-.42.545zm3.158-.177c.035.282.283.476.547.438.263-.031.457-.281.421-.541-.035-.283-.265-.477-.543-.438-.267.03-.46.284-.425.541zm2.914 11.193-.278 1.092c-.124-.278-.458-.177-.688-.037l.42-1.264c.247-.277.474-.207.546.209zm-1.301 4.003c-.383 1.102-1.544 2.354-2.576 3.121-1 .652-.175-.088-.158-.139 1.349-1.438 1.753-2.068 2.298-3.35.229-.227.65.001.436.368zm1.563-7.824v1.141c-.192-.213-.384-.213-.579 0v-1.141c.159-.353.407-.383.579 0zm-1.017-3.264c.509.439.579.805.648 1.227-.033-.049-.455-.473-.648-.035-.104-.388-.244-.705-.527-.948-.105-.017-.16-.664.527-.244zm-1.155 3.248.049 1.137c-.189-.189-.386-.189-.558.036l-.055-1.123c.14-.366.369-.417.564-.05zm-1.387-3.106c.524.403.735.643.893 1.067-.037-.05-.79-.65-.856.055-.122-.387-.265-.637-.548-.842-.125-.021-.194-.651.511-.28zm27.529-10.39c0-.283.316-.509.717-.509.389 0 .706.226.706.509 0 .055 0 .086-.021.141 2.052 1.771 3.056 1.808 3.105-.123h.632c.177 2 1.472 1.791 3.124.068l-.022-.086c0-.283.336-.509.724-.509.384 0 .696.226.696.509 0 .281-.313.512-.696.512l-.107-.018c-.262.314-.687 1.064-.701 1.418-.034.283 0 1.066 0 1.066h-6.667v-1.097s-.052-.773-.614-1.385l-.158.016c-.403 0-.718-.231-.718-.512zm4.067-.701c0-.263.318-.49.702-.49.386 0 .722.228.722.49 0 .277-.336.506-.722.506-.384 0-.702-.229-.702-.506zm4.074 4.529c-.019-.141.139-.459.473-.492.492-.018.596.756.402.931-.193.192-.247.072-.193.315.035.141.035.176-.036.314-.069.123-.545.123-1.066.367-.527.229-.671.438-.702.736-.038.321.296.338.277.424 0 .103-.298.055-.613.493-.174.243-.877.175-1.23.188-.541.021-.699.46-.875.721-.192.244-.107.369-.214.439-.084.052-.12.018-.175-.212-.051-.228-.19-.753-.894-1.106-.259-.123-.283-.071-.65-.102-.368-.056-.615-.371-.7-.477-.073-.106-.336-.118-.475-.158-.144-.019.367-.14.401-.419.018-.231.054-.177-.015-.371-.072-.188-.316-.486-.844-.718-.491-.209-.543-.139-.686-.3-.015-.036-.123-.19.018-.387.141-.159-.229-.26-.189-.716.03-.284.279-.335.402-.335.789-.016.596.862.685 1.105.067.227.437.298.823.438 1.369.354 2.23 1.051 2.176 2.544.072.12.175.089.211 0 .563-2.522 2.354-2.051 3.317-2.438.425-.153.353-.716.372-.784zm-4.864 2.312c.034-.257-.151-.511-.419-.541-.261-.038-.512.155-.543.419-.036.277.158.529.423.547.261.033.504-.158.539-.425zm3.164.177c.032-.277-.159-.525-.423-.548-.268-.03-.51.16-.546.423-.034.266.161.513.422.543.264.039.508-.157.547-.418zm-5.898 11.002c.068-.425.313-.476.538-.208l.44 1.261c-.228-.122-.56-.248-.7.035zm1.297 3.999c-.191-.37.229-.577.459-.37.523 1.302.926 1.915 2.277 3.354.019.049.842.807-.161.139-1.032-.752-2.186-2.004-2.575-3.123zm-1.542-7.822c.158-.367.401-.337.558.016v1.123c-.171-.209-.365-.209-.558 0zm.996-3.248c.687-.42.652.209.527.248-.265.227-.398.54-.509.947-.208-.441-.613-.018-.649.014.074-.404.142-.787.631-1.209zm1.16 3.248c.192-.367.439-.316.585.033l-.072 1.126c-.178-.212-.353-.229-.564-.021zm1.404-3.106c.699-.392.614.246.51.26-.279.226-.421.476-.546.862-.087-.705-.824-.109-.854-.072.136-.408.368-.647.89-1.05zm-7.263-18.019c1.948.329 2.137.682 2.244.84.122.39.071.808 0 1.599 0 .261-.474.683-.474.647-.09-1.174-.232-.822-.651-1.191-.575-.604-1.015-1.387-1.119-1.895zm14.81 2.35c.581.26.333 1.125.245 1.227-.457.895-1.319 1.475-2.898 1.529.478-.229 1.18-.369 1.443-1.546.174-.951.504-1.423 1.21-1.21zm-31.866-2.391c-.107.511-.546 1.3-1.103 1.898-.438.369-.583.016-.668 1.177 0 .051-.476-.37-.476-.634-.07-.787-.104-1.209 0-1.592.107-.161.299-.509 2.247-.849zm-14.794 2.353c.706-.209 1.017.267 1.197 1.211.278 1.177.984 1.313 1.439 1.545-1.56-.07-2.439-.632-2.878-1.527-.09-.123-.352-.962.242-1.229zm32.622-.226c.314.154.472.476.582.999.066.261.438.401 1.223.331-.154.193-.328.316-.399.457-.213.668-.353 1.421-.456 2.28-.11.018-.229-.806-.229-.806-.352.296-.805.563-1.299.806l-.369.141c-.631.583-1.191 1.634-2.035 2.633-.475.388-1.039.401-1.581.388-.119.035-.911-.176-.911-.176.017.018 1.052-.421 1.052-.421.262-.159.665-.369.966-.825.296-.547.491-1.314.559-2.352 0 0-.106-1.178.582-1.843.071-.122.159-.229.246-.421.104.175.104.246.157.366.228.28.368.404.527.739.016.052.084.069.144.125-.039-.422-.017-.775.101-1.092.208-.556.822-1.12 1.14-1.329zm11.075.493c.681-.125 1.207.048 1.505.506-.015.315.036 1.949-1.984 1.702-.329-.351-.77-.616-1.033-.525-.16.19 0 .402.296.666.195.246.18.438.18.617-1.402.206-2.563-.705-2.861-2.25-.189-.486-.771-.856-1.352-1.225 1.21-.091 2.543.137 2.788-.091.438-.438.651-.522 1.069-.63.176 0 .878.068 1.215.212.332 0 .684-.089.981-.229-.068.438-.336.859-.804 1.247zm-40.748-.038c-.473-.387-.718-.825-.806-1.25.297.145.651.213.987.213.331-.12 1.033-.213 1.206-.188.423.089.652.188 1.073.614.246.242 1.58 0 2.808.104-.599.366-1.157.72-1.354 1.229-.314 1.545-1.472 2.456-2.858 2.243-.018-.174-.034-.365.156-.611.3-.265.457-.477.3-.668-.265-.09-.685.172-1.018.526-2.021.245-1.984-1.387-1.998-1.705.297-.454.823-.63 1.504-.507zm17.494 9.845c-.07-.212.142-.317.299-.192.369.699.636 1.034 1.545 1.805.018.038.035.154-.104.089-.703-.419-1.472-1.086-1.74-1.702zm-.839-2.179c.05-.226.211-.242.368-.104l.298.687c-.157-.071-.387-.144-.476.018zm-.139-2.084c.119-.195.276-.182.385.018v.608c-.126-.12-.246-.12-.385 0zm3.751 20.807c0-.297.229-.523.51-.523.298 0 .526.227.526.523 0 .281-.229.527-.526.527-.278 0-.51-.246-.51-.527zm-.178 3.425c-.262.26-.438.542-.51.855l-.014 1.055.177.649.07 1.667c-.056.386-.599.368-.685.488-.141.25-.071.773-.157 1.071-.125.4-.423.617-.455.701-.07.121 0 .547 0 .547.069.225.032 3.21.155 3.402.107.35.175.686.212 1-.019.35-.14.523-.367.523-.179.037-.283-.086-.319-.332.02-.647-.016-1.525-.104-2.681-.015-.354-.053-.686-.143-.985l-.649-1.125c-.07-.119-.227-.279-.435-.455l.175-.475c.052-.226.07-.474.052-.74.459-.014.827-.206 1.104-.524.634-.51.281-2.298-.456-2.751-.331-.234-.738-.193-1.245-.107-.596.157-1.019.367-1.086.895-.055.438.05.594.367.577.314-.089.244-.329.505-.562.32-.209.773-.189 1.071-.068.493.316.545 1.227.386 1.527-.278.314-.597.369-1.018.248-.137-.057-.39-.299-.247-.549.195-.176.297-.141.424-.049.173.141.37.141.491-.037.12-.192.018-.401-.214-.559-.178-.109-.437-.123-.803-.037-.438.212-.616.633-.581 1.02.07.475.283.895.665.928.056.178.056.334.017.492-.142.389-.298.669-.471.861-.197.105-.438.105-.74.016-.316-.177-.561-.646-.719-1.384-.122-.495-.331-.827-.65-.997-.279-.075-.437-.232-.473-.479 0-.334.335-.402.84-.352.457-.178.563-.314.776-.787.033-.037.189-.281.213-.315.049-.142.013-.302 0-.441l.013-.229c.123-.787.528-.682.858-.859.036-.018.091-.066.091-.137-.036-1.229.577-1.74 1.962-1.825.49-.843 1.018-1.127 1.914-.827v2.146zm-4.226 7.227c.283-.051.527-.178.722-.35.032.121.087.209.159.281-.072.896-.089 1.823-.055 2.823l.125.187c.032.356.032.425-.055.566-.104.07-.243.016-.316-.039-.195-.209-.245-.35-.297-.578-.071-.388-.089-.877-.089-1.454-.053-.053-.123-.193-.144-.371zm5.633-9.32c.229-.195.526-.246.861-.139.278.209.457.475.578.824.756-.09 1.246.055 1.491.421.09.229.09.474 0 .739.614.367 1.002.664 1.16.927.228.333.228.632-.021.86-.05.162-.05.264 0 .332l.582.74c.316.383.266.734-.122 1.034-.091.209-.091.366.019.474.369.772.507 1.423.438 1.945-.14.334-.368.354-.72.091l-.015-1.791c-.179-.403-.652-.245-.634.179v2.051c.011.28.104.596.157.821.068.157.035 2.176.035 2.176-.035.372-.107.652-.211.845l-.473.598c-.072.015-.121 0-.141-.09.192-1.296.204-2.439.051-3.42l-.84-1.897c-.087-.755-.125-1.382-.056-1.912.178-.368.353-.616.511-.753.143-.404 0-.565-.402-.49-.527.4-.753 1.064-.701 1.996.155.701.214 1.178.155 1.391-.102.086-.171.207-.189.366-.108.562-.073 1.09-.018 1.634l-.105 1.773c-.126.26-.281.438-.457.541.019-2.102-.052-3.383-.192-4.016-.157-.614-.298-1.107.018-1.512.126-.438.055-.809.055-.809l-.193-.734c-.092-.486-.053-1.018.121-1.613.035-.684-.213-1.157-.736-1.455v-2.127zm21.809-7.071c.036.281.05.545.05.809l.723 1.069c-.02-.121 0-.563-.299-1.019-.142-.28-.295-.577-.474-.859zm-.032 2.493c-.037.299-.089.597-.159.877l1.418 1.473-.052-.682c-.385-.51-.732-1-1.207-1.668zm-.477 2.086-.246.721c.755.738 1.56 1.419 2.423 2.071l-.056-.474c-.98-.914-1.63-1.682-2.121-2.318zm-.615 1.632-.315.721c.721.807 1.895 1.754 3.506 2.81-.015-.093 0-.264-.032-.353-1.367-1.229-2.422-2.278-3.159-3.178zm-.665 1.455-.582 1.179c1.304 1.578 2.989 3.19 5.057 4.845-.422-.791-.634-1.546-.735-2.284-.757-.454-1.983-1.719-3.74-3.74zm-3.984-9.646c.894-1.316 2.179-2.282 3.6-2.197.055-.209-.057-.4-.335-.596-.315-.14-.509-.085-.963.141-.702.018-1.177-.123-1.439-.438-.036-.071 0-.123.084-.14l1.193-.457v-.177c-.719.191-1.475.212-2.262.089-.404-.068-.649-.366-.72-.91-.089-.192.07-.213.192-.106.189.298.49.455.893.455 1.071-.017 1.706-.071 1.896-.175.424-.141.668-.387.721-.756.036-.105-.016-.124-.141-.086-.543.226-.703.155-1.053.141-.211 0-.195-.124.051-.249.949-.524 1.368-1.175 1.261-1.929.058-.143.125-.195.194-.143.615 1.121.525 2.423-.174 3.367-.05.059-.068.113-.068.182l.107.141c1.753 2.144 2.93 4.635 3.735 7.439.562 2.613 1.177 9.42 2.211 11.283.385 1.089.859 2.051 1.421 2.948-.964.12-2.018-.159-2.652-.386l.734 5.734-4.015-1.227-1.021-2.79c-.053-.139-.143-.209-.314-.089-.35.212-1.402.071-1.473.071-.281-.055-.369-.036-.408.106-.032.246-.046.771-.014 1.56.039.283.227.509.545.687l.545.209c.264.072.455.212.561.407.085.277.279.541.58.769.178.053.296.07.263.389-.038.241-.226.384-.402.367-.298-.035-.526-.162-.7-.388-.319-.438-.723-.771-1.213-1-.49-.264-1.242-.277-2.16 0-1.067.386-1.961.88-2.522 1.425-.104.064-.178.051-.231-.021l.263-1.353c.073-.205.196-.366.371-.416l2.95-.789.051-2.127c-.634-.438-1.089-.998-1.387-1.666-.3-1.154-1.668-1.738-1.668-1.738-.526-.311-.791-.541-1.139-.561l-.055-.048c-.264-.021-.736-.021-1.4.018-.282.05-.494.243-.666.579l-.195.54c-.068.268-.142.334-.385.565-.283.105-.546.314-.756.596l-.071.137v.109c-.403 1.281-3.856 6.633-9.545 8.845-4.422-1.637-8.612-6.513-9.349-8.772v-.09c-.07-.051-.125-.143-.156-.209-.212-.308-.457-.5-.758-.605-.247-.227-.316-.298-.387-.558l-.192-.562c-.158-.34-.387-.511-.667-.566-.647-.033-1.125-.051-1.402-.033l-.036.052c-.353.037-.613.265-1.158.562 0 0-1.367.578-1.666 1.756-.296.664-.756 1.209-1.368 1.647l.051 2.14 2.932.775c.172.068.313.207.383.438l.244 1.351c-.047.066-.117.066-.225 0-.543-.546-1.457-1.019-2.527-1.403-.912-.301-1.666-.266-2.14-.02-.511.228-.913.558-1.228.997-.161.245-.402.369-.702.386-.172.039-.368-.103-.403-.348-.033-.334.105-.334.279-.403.283-.214.476-.475.581-.769.084-.182.28-.336.544-.408l.543-.209c.316-.156.512-.387.561-.664.023-.808.023-1.318-.033-1.564-.016-.158-.104-.178-.405-.121-.049.015-1.122.156-1.471-.057-.159-.119-.263-.049-.317.092l-1.019 2.773-4.018 1.227.737-5.722c-.633.212-1.668.493-2.654.371.566-.875 1.058-1.86 1.444-2.929 1.035-1.859 1.646-8.67 2.189-11.301.828-2.807 2.004-5.283 3.757-7.439l.085-.123c.023-.068-.019-.141-.067-.191-.702-.945-.771-2.246-.179-3.352.071-.072.145-.019.213.139-.124.758.298 1.387 1.263 1.914.229.124.247.247.035.247-.35.035-.509.103-1.055-.127-.118-.05-.172-.017-.14.089.069.35.3.613.721.757.195.087.824.157 1.897.175.399 0 .696-.162.894-.475.123-.107.281-.069.19.122-.067.546-.315.844-.719.897-.789.141-1.543.103-2.263-.09v.176l1.211.455c.09.038.104.089.09.157-.283.3-.756.462-1.441.441-.472-.246-.669-.301-.982-.157-.297.209-.384.438-.297.664 1.367-.086 2.611.81 3.506 2.089.755.599 1.091 2.421.843 3.896-.175 3.28-2.7 7.089-7.597 11.439l-.947 6.77.633-.241.667-4.826.577-.231-.718 4.914 1.631-.486 2.316-6.004.492-.65.615-.328c.279-.091.385.103.279.314-.421.4-.682.771-.805 1.086l-.685 1.771c-.179.421-.141.757.069.998.16.302 1.174.284 2.088-.064 1.107-.74 1.209-1.246 1.489-1.984.266-.666.668-1.129 1.209-1.368.986-.842.846-1.646.846-1.808l.106-2.335c.034-.35.363-1.386 1.631-3.771 1.298-3.525 1.647-6.371 1.018-8.527-.174-1.56-.894-2.405-2.176-2.542l-1.737.101c-.33-.156-.558-.368-.688-.646-.151-.265-.101-.372.161-.317.161.243.387.387.685.399l1.157-.082c.353-.04.635-.176.795-.459.4-.559.189-1.35.242-2.227.056-.439.437-.525.615-.125.107.247.09.456-.071.613-.02.916-.052 1.527-.279 1.914-.213.264-.161.422.157.455.647.404 1.174.981 1.542 1.754 1.403 3.633.699 7.354-1.968 12.635-.314.859-.438 1.895-.383 3.088l.013.72h2.042l.823-2.948c.073-.193.214-.315.438-.37l.598-.106v-10.88h6.352c-.07-.052.213-.753.385-.839.175-.106 1.913-.425 1.913-.425v-1.017c0-.137-.423-.399-.597-.575-.174-.179-.367-.563-.545-.863-.193-.314-.403-.735-.491-.859-.085-.119-.563-.982-.703-1.207-.142-.248-.174-.687-.244-1.019-.07-.314-.597-1.157-.841-1.544-.353.315-.509.368-1.036.596-.491.126-.964.211-1.458.196-.875-.09-1.473-.439-1.771-1.037-.194-.546-.125-1.125.19-1.755.053-.071.091-.071.143 0l1.141 1.559c.51.51.998.705 1.615.637.575-.144.699-.25 1.017-.476l-.175-.442c-.157.25-.353.404-.598.493-.23.106-.455.123-.668.051-.283-.087-.492-.193-.578-.314.123-.755 1.142-1.296 1.28-1.365 0 0 .088-.056.161-.072l-.091-.333c-1.034-.034-4.717.069-6.51-3.14-.84-1.51-1.543-3.28-2.528-3.929-.719-.391-1.279-.353-1.983.05.389-.44.722-.718 1.144-.822.35-.057.825 0 1.225 0 1.092.246 2.511 1.697 2.441 1.646.155.261.349 1.158.508 2.104.107.406.634.877.841 1.21-.105-.458-.136-.896-.065-1.263.4.318.647.366 1.226.597.734.526 1.103 1.383 1.668 2.156.422.473 1.228.791 1.896.859l-.018-.089-.038-.157c-.365-.035-.861-.104-1.247-.436-.792-1.02-1.366-2.071-1.998-2.633l-.368-.14c-.496-.247-.933-.508-1.299-.808 0 0-.12.808-.229.808-.086-.856-.243-1.612-.438-2.28-.086-.156-.243-.264-.418-.456.788.051 1.156-.069 1.245-.336.091-.524.248-.841.577-1.017.321.232.915.791 1.144 1.335.103.332.142.685.103 1.104.039-.072.107-.085.143-.121.157-.333.299-.455.523-.736.039-.123.039-.209.145-.367.105.188.177.299.265.402.685.687.577 1.857.557 1.857.09 1.02.265 1.811.563 2.354.298.438.422.509.702.614.089-1.352.893-2.455 1.264-2.542.07-.016.156-.108 0-.142-.283-.106-.511-.332-.546-.788-.016-.318-.141-1.931-.088-2.105.052-.179.336-.034.351.055.035.087.089 1.243.141 1.732.07.476.513.791.67.862.155.069 1.014.018 1.242.018.209 0 .049-.055.178-.109.14-.068.227-.068.298-.014.087.034.034.26-.033.363-.089.126-.404.283-.671.336-.259.053-.507-.053-.697-.053-.438.035-.637.247-.793.404-.368.387-.562.856-.754 1.686-.178.822.069 1.68.227 2.088.157.416.477 1.421.752 1.979.284.548.668 1.017.846 1.369.189.366.211.384.299.948.104.58 1.052 2.298 1.491 2.928.439.635.875.701 1.438.774.562.087.805-.161.876-.195.071-.048-.754-1.562-.911-1.753-.138-.195-.263-.213-.263-.213s-.069-.174 0-.229c.052-.066.548.056.807.194.25.121 1.441 3.031 1.514 3.123.067.107.994.347 1.05.332.07-.016-.805-2.299-.79-2.386.021-.107.385 0 .438 0 .057 0 .807 2.441.807 2.441l.353.103c-.141-.488-.526-3.176-.563-3.207-2.613-1.758-3.544-3.054-4.172-3.911-.666-.914-.79-1.862-.807-2.828-.02-.986.315-1.315.473-1.511l.088-.084c.438-.474 1.103-.826 1.84-.878 0-.087.213-.071.368-.071.18 0 .229-.031.247-.175.018-.124-.124-.209-.297-.318-.178-.12-.32 0-.633.068-.316.096-.737-.103-.862-.157-.105-.051-.087-.104.054-.14.385-.087.666-.104.843-.415-.704.104-1.809.116-1.948.03-.104-.068-.332-.315-.402-.438-.09-.102.029-.154.121-.154.086 0 .191.227.402.277.193.052 1.56-.033 1.827-.068.276-.035.437-.298.527-.389.083-.086 0-.159-.109-.174-.12-.019-.509.088-.668.088-.139 0-.155 0-.155-.106 0-.122.563-.333.771-.49.193-.16.277-.53.277-.53s.051-.138.136-.115c.09.016.142.244.248.543.106.314-.158.98-.423 1.296-.051.038-.139.093-.264.123.11.124.936 1.141 1.354 1.791.177.261.366.596.56.962l.176.178c.263.418.72.72 1.405.686.964.086 1.733-.318 2.174-.812.565-.753.948-1.629 1.666-2.153.584-.213.829-.281 1.228-.579.069.351.037.805-.049 1.246.209-.332.717-.791.826-1.194.155-.948.346-1.859.508-2.123-.069.053 1.368-1.404 2.438-1.647.404 0 .879-.034 1.229.018.419.106.757.368 1.143.806-.704-.402-1.267-.438-1.982-.035-.965.63-1.684 2.406-2.524 3.91-1.812 3.248-5.618 3.178-6.774 3.127l-.791-.021.053.159c.086-.035.351-.09.964.176.224.107 1.14.612 1.281 1.352-.106.137-.315.243-.579.332-.212.068-.546.035-.789-.071-.227-.068-.438-.208-.615-.456l.089.491c.3.243.418.386 1.015.507.601.07 1.088-.121 1.599-.628l1.142-1.564c.051-.068.104-.068.139 0 .322.63.389 1.212.195 1.757-.298.597-.895.944-1.773 1.053-.49 0-.95-.07-1.459-.209-.401-.18-.647-.283-.769-.438.121.786.284 1.614.421 2.228.317 1.438 1.404 2.753 1.473 3.088.072.33-1.578-.208-1.682-.157-.107.048.402 2.542.316 2.56-.107.016-2.511-.56-2.758-.738-.26-.157-.421-.91-.526-.999-.104-.069-.19.075-.332.176-.142.124.017.793.157.916.141.137.701.243.841.329.144.107.232.353.319.404l.418.332-.225.017h6.808v10.878l.509.09c.23.071.367.191.439.371l.826 2.964 2.049-.02.017-.703c.054-1.19-.087-2.226-.402-3.103-2.667-5.283-3.351-8.984-1.962-12.635.385-.771.893-1.35 1.56-1.736.3-.051.371-.212.141-.472-.21-.37-.264-1-.279-1.897-.157-.174-.177-.387-.07-.629.171-.4.561-.297.632.143.033.877-.178 1.666.228 2.225.177.266.438.423.809.459l1.14.069c.298-.017.524-.14.684-.385.264-.07.318.032.155.315-.101.262-.328.49-.681.631l-1.742-.105c-1.262.154-2 1-2.174 2.544-.633 2.175-.284 5.021 1.018 8.546 1.278 2.383 1.615 3.4 1.633 3.771l.103 2.317c.021.175-.139.981.847 1.822.54.229.941.685 1.206 1.35.298.76.389 1.266 1.514 2.006.894.349 1.91.349 2.065.051.23-.229.246-.563.09-.986l-.687-1.773c-.138-.33-.403-.701-.827-1.103-.085-.194 0-.387.282-.298l.616.329.509.652 2.302 6.001 1.629.49-.702-4.914.581.229.664 4.828.613.243-.947-6.77c-4.896-4.353-7.42-8.159-7.599-11.441-.252-1.445.066-3.216.784-3.864zm-14.859-6.635c1.401 1.281 2.733 2.123 2.492 1.877-.041-.053-.354-.859-.422-.998-.032-.086-1.157-.963-1.824-1.529zm.454-1.263c.65.403 1.558 1.051 1.669 1.051.051-.017 0-.085-.038-.171-.019-.072-.926-.795-1.506-1.248zm.266-.927c.469.314 1.178.842 1.228.858.088.035-.024-.157-.036-.244 0-.07-.685-.704-1.09-1.091zm.193-1.179.858.736s0-.139-.07-.314c-.055-.143-.49-.686-.752-.983zm-.036-1.475c.036-.107.542.561.542.561s.036.02-.07-.227c-.142-.313-.367-.667-.629-1 .067.227.119.459.157.666zm-2.524 8.95c-.354.109-.757-.051-.757-.064 0 0-.034.696-.02.805 0 .105.438.191.511.244.085.054.282-.123.282-.123s.033-.53-.016-.862zm-2.232 2.036h3.808c-.121-.07-.56-.471-.769-.423-.073.023.383.423.383.423s-.65 0-.735-.031c-.087-.022-.791-.457-.913-.512-.108-.055-1.44.456-1.774.543zm-.984 0h.897c-.051-.07-.159-.282-.159-.331-.002-.037-.579.244-.738.331zm12.142 12.122v4.529c.284-.281.493-.611.671-.983.243-.491.243-1.261-.055-2.174-.195-.509-.385-.962-.616-1.372zm-18.894 4.599v-4.719c-.264.439-.493.948-.687 1.492-.316.93-.297 1.682-.052 2.175.172.424.424.754.739 1.052zm8.755-7.968c-.93-.209-1.616.127-2.092 1.006-1.331.049-2.035.701-2.103 1.942-.598.159-.914.545-.965 1.212-.631.054-1 .527-1.125 1.422-1.019 0-1.104 1.561.089 1.735.259.248.559.809.772 1.441.279.575.609 1.12.98 1.331-.034.734.051 1.244.193 1.633l.122 1.598c.176.4.456.842.898.857.697-.05.822-.546.594-1.488l.074-1.896c.119.103.212.314.26.596.108.754.108 1.877.209 3.353.267.681.438.596.825.702.455-.036.704-.266.805-.827 0-.457-.069-.843-.191-1.177-.122-.752-.158-1.633-.07-2.581.017-.684.053-1.138.212-1.384.298-.336.368-.596.456-1.335.069-.175.56-.141.738-.49.104-.544.088-1.299-.035-2.354-.193-.488-.245-.947-.159-1.381.034-.337.214-.494.565-.477.299-.018.506.178.597.578.013.404 0 .759-.071 1.106-.072.404-.02 1.105.277 1.721.035.143-.034.33.021.473-.086.296-.265.457-.317 1.087 0 .353.192.948.192.948.21.457.315 1.582.315 3.4-.123.195-.177.459.021.739.455.247.664.212 1.103-.052.19-.229.332-.473.438-.752.067-1.179.067-2.072-.036-2.688.015-.142.07-.209.177-.209.209.332.334.684.419 1.053-.015 1.895-.21 2.982-.156 3.4.086.264.332.406.862.372.384-.175 1.052-1.228 1.052-1.228.141-.789.155-1.701.032-2.723-.015-.211-.015-.328.039-.578.051-.173.069-.209.193-.229.51.123.859-.138 1.067-.788.036-.314.036-.77-.035-1.332-.034-.332-.118-.612-.317-.828.492-.82.37-1.614-.367-2.4.265-.986-.139-1.739-1.191-2.246.033-.981-.529-1.459-1.703-1.438-.191-.615-.721-.915-1.595-.897.086-.896-.089-1.525-1-1.65-.245-.013-1.509.059-1.069 1.723zm-3.512-2.315-.666-2.102 1.774-1.299h-2.194l-.686-2.105-.664 2.105h-2.194l1.768 1.299-.682 2.102 1.772-1.296zm5.915 0-.686-2.102 1.771-1.299h-2.175l-.684-2.105-.686 2.105h-2.178l1.775 1.299-.686 2.102 1.773-1.296zm5.983 0-.683-2.102 1.771-1.299h-2.195l-.664-2.105-.683 2.105h-2.195l1.772 1.299-.667 2.102 1.772-1.296zm-28.793 3.724c-1.754 2.016-2.982 3.278-3.736 3.717-.107.755-.315 1.493-.718 2.303 2.051-1.669 3.733-3.265 5.033-4.843zm-.685-1.458c-.722.895-1.771 1.946-3.142 3.158-.021.089 0 .26-.021.353 1.602-1.037 2.759-2.003 3.495-2.79zm-.594-1.631c-.493.629-1.122 1.383-2.125 2.313l-.036.457c.843-.632 1.65-1.316 2.404-2.052zm-.458-2.107c-.491.668-.827 1.158-1.229 1.668l-.037.682 1.401-1.452c-.047-.302-.101-.6-.135-.898zm-.037-2.526c-.173.297-.332.598-.473.896-.298.455-.298.91-.298 1.033l.72-1.085c.021-.281.036-.564.051-.844zm22.125-19.494c0 .209.16.368.373.368.189 0 .368-.159.368-.368s-.179-.369-.368-.369c-.212 0-.373.157-.373.369zm-3.261-1.752c-.019.104.021.19.107.26.07.092.243.14.471.229l.635.281c.189.086.354.036.526.23.157.174.228.365.282.522.052.179.052.336.143.563.07.211.034.3.139.348.121.051.191.04.262-.048.07-.071.107-.281.144-.438.013-.144.085-.373.246-.564.156-.209.545-.455.913-.527.367-.05.488-.018.783-.086.321-.088.479-.12.527-.281.039-.16.053-.349-.174-.421-.229-.05-1.455-.456-2.525-.418-1.049.034-2.087.243-2.195.227-.195-.005-.284.123-.284.123zm.857 1.596c0 .19.178.365.368.365.214 0 .37-.175.37-.365 0-.213-.158-.388-.37-.388-.191 0-.368.175-.368.388zm-2.525-2.281s3.209-.404 3.93-.418c.721-.022 2.088.243 2.649.35.581.104 1.686.033 1.755.086.072.071.189.213.017.352-.177.137-.877.559-.877.716 0 .179.035.298-.071.388-.121.068-.227 0-.58.178-.347.159-.597.332-.665.473-.07.125-.104.089-.087.264.017.157.176.281.087.348-.07.071-.12 0-.19.071-.07.07-.299.3-.58.3s-.281-.052-.495.018c-.56.191-.718.578-.767.735-.056.179-.09.212-.16.143-.068-.05-.035-.122-.16-.333-.103-.191-.295-.629-.559-.665-.264-.056-.734-.071-.914-.195-.157-.14-.35-.14-.33-.281.032-.137.193-.137.193-.366 0-.246-.089-.492-.479-.718-.368-.23-.753-.299-.808-.388-.032-.109 0-.121.04-.229.048-.106.154-.069-.04-.14-.189-.053-.737-.18-.854-.299-.109-.121-.195-.35-.144-.369.036-.041.089-.021.089-.021zm44.024 20.019c0 4.755.124 9.999.367 15.721 3.265.141 5.44.212 6.495.212 2.874 0 5.035-.279 6.472-.808 1.019-.389 1.824-1.086 2.438-2.072l.634.209c.034.459-.125 1.246-.476 2.373-.349 1.119-.686 1.947-.966 2.473-1.997-.209-7.913-.317-17.754-.317h-1.843l-.313-.807.348-7.3c.108-2.51.178-5.735.178-9.684 0-2.629-.263-6.967-.263-6.967l-.178-2.863.314-.809h4.757l.316.809-.141 2.791c.001 0-.385 4.708-.385 7.039zm88.273 17.143-.297.736h-4.155l-.374-.736v-2.336c-1.759 2.194-4.051 3.279-6.908 3.279-3.392 0-6.266-1.191-8.671-3.578-2.388-2.383-3.579-5.277-3.579-8.684 0-3.369 1.191-6.245 3.599-8.652 2.398-2.382 5.296-3.576 8.683-3.576 2.964 0 5.387.947 7.251 2.878 0-4.267-.121-3.722-.371-10.073l.371-.74h4.159l.297.74c-.318 5.355-.477 6.054-.477 13.792-.001 5.09.157 10.754.472 16.95zm-4.453-14.564c-.987-4.789-3.81-7.175-8.443-7.175-1.826 0-3.335.807-4.508 2.436-1.194 1.633-1.789 3.721-1.789 6.283 0 .596.045 1.212.153 1.861.357 3.035 1.264 5.565 2.754 7.563 1.492 2.018 3.264 3.018 5.302 3.018 1.403 0 2.704-.44 3.896-1.316 1.192-.859 2.016-2.055 2.473-3.582.073-2.265.125-5.298.162-9.088zm25.685 7.999c0 2.369-.947 4.283-2.863 5.687-1.733 1.351-3.82 2.034-6.258 2.034-2.444 0-4.563-.509-6.351-1.545l-3.301-1.28c0-2.174.175-3.756.542-4.735 1.369 2.191 2.563 3.599 3.543 4.207 1.881 1.128 3.724 1.706 5.527 1.706 1.279 0 2.493-.438 3.668-1.28 1.297-.931 1.963-1.982 1.963-3.195 0-1.424-.578-2.578-1.732-3.472-.825-.664-2.299-1.243-4.439-1.756-2.563-.63-4.266-1.153-5.104-1.541-1.794-.812-2.986-2.037-3.544-3.671-.279-.821-.423-1.63-.423-2.451 0-1.109.441-2.229 1.318-3.354.784-1.035 1.874-1.792 3.278-2.245 1.058-.318 2.579-.474 4.579-.474.947 0 2.58.248 4.909.737 1.302.298 2.602.558 3.896.808.11 2.562.025 4.527-.257 5.91-1.44-2.174-2.683-3.592-3.739-4.264-1.491-.997-3.193-1.49-5.124-1.49-1.332 0-2.312.177-2.948.526-1.51.858-2.264 1.913-2.264 3.14 0 1.035.562 1.896 1.684 2.564 1.021.646 2.667 1.278 4.932 1.893 2.266.617 3.788 1.123 4.563 1.524 2.628 1.422 3.945 3.424 3.945 6.017zm-108.627 14.198-.42.015c-.315-.821-.949-1.242-1.932-1.242-.65 0-1.193.247-1.635.755-.455.505-.684 1.125-.684 1.84 0 .809.264 1.511.771 2.106.492.579 1.035.878 1.631.878.93 0 1.58-.246 1.944-.721l.252.371c-.28.331-.55.577-.808.701-.353.176-.843.264-1.459.264-.894 0-1.685-.336-2.369-1.004-.7-.662-1.052-1.506-1.052-2.472 0-.863.33-1.634 1.034-2.315.684-.667 1.475-1.017 2.354-1.017.487 0 1.066.139 1.716.386.195.07.389.087.563.054l.089.05v1.352h.005zm6.894-1.494c-.068 1.053-.087 2.071-.087 3.069 0 .829.019 1.846.087 3.039l-.087.225h-1.035l-.087-.225.052-1.354c.035-.439.035-.997.035-1.686 0-.668-.018-1.685-.087-3.069l.087-.21h1.035zm11.739.353-1.669-.035-1.067.017c-.055.862-.068 1.773-.068 2.735 0 .863.014 1.897.068 3.105l-.055.158h-1.088l-.072-.158.072-1.332c0-.455.021-1.055.021-1.773 0-.723-.021-1.296-.039-1.735l-.052-1.017h-1.034l-1.65.035c.035-.282.073-.461.125-.563h.07 1.731.708.684.771.771 1.58.084c.055.106.078.281.109.563zm10.457-.478-.734 1.058c-.373.541-.899 1.314-1.616 2.35v.193l.104 2.699-.068.158h-1.108l-.046-.158c.046-1.42.082-2.311.082-2.699v-.3c-.543-.771-1.084-1.542-1.666-2.298l-.682-1.003.052-.085h1.053l.142.085.54.932c.456.827.899 1.54 1.3 2.178.278-.386.687-1.093 1.244-2.106l.549-1.003.142-.085h.667zm19.039 1.619-.423.015c-.296-.821-.946-1.242-1.931-1.242-.65 0-1.195.247-1.634.755-.453.505-.683 1.125-.683 1.84 0 .809.264 1.511.771 2.106.489.579 1.035.878 1.629.878.933 0 1.6-.246 1.951-.721l.241.371c-.28.331-.539.577-.804.701-.35.176-.824.264-1.438.264-.912 0-1.703-.336-2.386-1.004-.7-.662-1.055-1.506-1.055-2.472 0-.863.335-1.634 1.032-2.315.689-.667 1.478-1.017 2.354-1.017.51 0 1.072.139 1.719.386.195.07.391.087.563.054l.089.05v1.352h.005zm12.105 1.559c0 .914-.369 1.722-1.125 2.421-.736.701-1.561 1.055-2.454 1.055-.947 0-1.79-.354-2.507-1.036-.705-.698-1.073-1.511-1.073-2.439 0-.932.368-1.735 1.12-2.458.74-.72 1.565-1.082 2.46-1.082.925 0 1.752.362 2.489 1.066.721.716 1.09 1.541 1.09 2.473zm-1.089 0c-.035-.808-.316-1.509-.858-2.085-.526-.6-1.104-.897-1.737-.897-.697 0-1.264.298-1.736.876-.477.598-.684 1.281-.631 2.106.017.808.297 1.489.844 2.089.526.596 1.103.894 1.734.894.683 0 1.247-.298 1.719-.88.474-.593.683-1.295.665-2.103zm11.371-3.123c-.072.423-.104 1.455-.104 3.14v1.176c-.04.404-.21.829-.527 1.266-.406.598-.966.911-1.668.928-.667.036-1.161-.017-1.508-.156-.461-.174-.792-.387-.986-.65-.189-.278-.329-.736-.384-1.422l-.017-1.141c0-1.701-.039-2.735-.109-3.14l.049-.14h1.054l.073.14-.073 1.353c-.014.455-.032 1.051-.032 1.787 0 .456.019.791.032.969.041.35.096.611.159.805.234.686.792 1.035 1.692 1.035.276 0 .575-.106.895-.332.258-.192.457-.439.597-.736.086-.213.156-.51.187-.895l.018-.846c0-.734-.018-1.332-.033-1.785l-.053-1.354.053-.139h.633zm10.79 6.245-.069.158h-1.247l-.173-.158c-.125-.209-.268-.417-.423-.629l-.454-.596c-.354-.545-.912-1.333-1.648-2.404l-.58-.771c-.056.438-.087.876-.087 1.294 0 .863.031 1.897.087 3.105l-.056.158h-.612l-.069-.158.069-1.332c.02-.455.02-1.055.02-1.773l-.035-1.383-.054-1.318v-.438l.069-.14h.723c.281.492.627 1.037 1.017 1.595.386.6.944 1.456 1.718 2.582l1.107 1.525.016-.475c.018-.507.034-1.153.034-1.948 0-.734-.017-1.332-.034-1.785l-.071-1.354.071-.139h.613l.069.139c-.069 1.058-.103 2.106-.103 3.14-.001.863.032 1.895.102 3.105zm10.829-4.681-.423.015c-.313-.821-.948-1.242-1.932-1.242-.651 0-1.191.247-1.631.755-.454.505-.682 1.125-.682 1.84 0 .809.259 1.511.767 2.106.495.579 1.038.878 1.632.878.931 0 1.601-.246 1.952-.721l.244.371c-.284.331-.542.577-.808.701-.353.176-.825.264-1.435.264-.918 0-1.709-.336-2.392-1.004-.698-.662-1.052-1.506-1.052-2.472 0-.863.331-1.634 1.038-2.315.683-.667 1.472-1.017 2.351-1.017.508 0 1.066.139 1.715.386.193.07.389.087.564.054l.086.05v1.352h.006zm6.894-1.494c-.07 1.053-.088 2.071-.088 3.069 0 .829.018 1.846.088 3.039l-.088.225h-1.02l-.104-.225.054-1.354c.035-.439.049-.997.049-1.686 0-.668-.034-1.685-.103-3.069l.103-.21h1.019z" fill="currentColor"/></svg>