<?xml version="1.0" encoding="UTF-8"?>
<svg  version="1.1" viewBox="0 0 529.17 195" xml:space="preserve" xmlns="http://www.w3.org/2000/svg"><g transform="translate(138.62 -34.501)"><path d="m288.54 173.6c-0.0706-0.18396-0.0966-3.607-0.0578-7.6068l0.0705-7.2723 0.74729-0.0856c0.56616-0.0649 0.78081 0.0426 0.88564 0.44347 0.13711 0.52436 0.14581 0.52454 0.9725 0.0205 1.1684-0.71243 3.0268-0.67413 4.1542 0.0856 1.5734 1.0603 1.9716 2.089 1.9716 5.0923 0 2.1924-0.0931 2.8044-0.54348 3.571-1.1856 2.0183-3.7257 2.739-5.6081 1.5913l-0.8599-0.52429v5.0193h-0.80206c-0.44111 0-0.85981-0.15052-0.9304-0.33449zm5.2953-5.3332c1.3923-0.58175 1.7962-1.6348 1.6877-4.4007-0.0789-2.0126-0.17561-2.4149-0.7197-2.9938-1.2944-1.3772-3.2137-1.0813-4.0674 0.62707-0.30822 0.61675-0.46263 1.5439-0.46263 2.7778 0 2.1166 0.5484 3.5085 1.5867 4.0273 0.835 0.41722 0.88895 0.41619 1.9753-0.0377zm88.045-1.9391 0.0702-7.6068 0.6146-0.0871c0.4358-0.0617 0.65498 0.0673 0.75335 0.44347 0.13756 0.52597 0.14597 0.52616 0.9729 0.0219 2.2034-1.3435 5.1551-0.11329 5.9918 2.4973 0.50868 1.5872 0.24241 5.5379-0.43487 6.4522-1.394 1.8818-3.7959 2.4802-5.5827 1.3907l-0.8599-0.52428v5.0193h-1.5956l0.0702-7.6068zm5.9576 1.4552c1.1773-1.0989 1.4914-4.2589 0.61505-6.1887-0.91271-2.01-3.4347-2.1551-4.4566-0.2564-0.56346 1.0469-0.61244 4.426-0.0824 5.6831 0.67405 1.5985 2.6223 1.9769 3.9239 0.76198zm-299.75 1.6489c-0.53147-0.28078-1.2458-0.96013-1.5875-1.5097-0.54384-0.87473-0.62119-1.3286-0.62119-3.645 0-2.9904 0.32965-3.9042 1.7819-4.9401 0.70692-0.50422 1.2004-0.61617 2.716-0.61617 2.1718 0 3.1976 0.55816 4.0022 2.1776 0.73346 1.4763 0.70105 5.3667-0.05681 6.8182-1.0812 2.0709-4.0272 2.8813-6.2346 1.715zm3.3355-1.1638c1.1418-0.47706 1.6333-1.27 1.818-2.9325 0.21923-1.9736-0.15599-3.762-0.95746-4.5634-0.54239-0.5424-0.94267-0.68412-1.9322-0.68412-1.056 0-1.3585 0.12361-1.9656 0.80303-1.2939 1.4481-1.289 5.4467 0.0083 6.8276 0.51403 0.54716 0.84599 0.70033 1.925 0.88821 0.11381 0.0198 0.61057-0.13262 1.1039-0.33874zm7.2611 1.0971c-1.6199-1.0822-1.8405-1.901-1.762-6.5432l0.06927-4.101h1.5875l0.13229 4.2727c0.15516 5.0113 0.31511 5.3846 2.3074 5.3846 1.3168 0 2.0239-0.29594 2.353-0.98484 0.1236-0.2587 0.28644-2.3158 0.36185-4.5714l0.13712-4.101h1.3229v11.112l-0.61461 0.0871c-0.43579 0.0617-0.65497-0.0673-0.75335-0.44347-0.13754-0.52597-0.14594-0.52616-0.97289-0.0219-1.1708 0.71389-3.025 0.67386-4.1685-0.09zm10.207 0.28095c-0.0753-0.19621-0.10453-2.7346-0.065-5.641l0.0719-5.2842h0.66146c0.52735 0 0.67865 0.14975 0.74624 0.73864l0.0848 0.73865 0.91661-0.80479c1.4046-1.2333 3.4259-1.0562 3.2364 0.28346-0.075 0.53026-0.25901 0.64328-1.1476 0.70479-1.2853 0.089-2.1856 0.518-2.6002 1.2392-0.17797 0.30957-0.36664 2.1753-0.44253 4.3761-0.12874 3.7335-0.1483 3.8387-0.72879 3.9212-0.32807 0.0466-0.6581-0.0758-0.73339-0.27205zm14.217-0.12162c-1.8336-0.90369-2.5654-2.7221-2.3779-5.9087 0.19525-3.3188 1.4193-4.7765 4.1783-4.9761 1.1572-0.0837 1.744 0.0199 2.6074 0.46034 1.107 0.56477 2.1488 1.8721 2.1507 2.699 3e-3 0.61833-1.1205 0.86921-1.4542 0.32518-1.2117-1.9755-2.601-2.5726-4.2096-1.8092-1.1662 0.55341-1.5966 1.6214-1.5966 3.9623 0 3.0846 0.85581 4.2536 3.0716 4.1955 1.0912-0.0286 2.1866-0.78902 2.4832-1.7238 0.18809-0.59259 1.391-0.66325 1.6093-0.0945 0.24138 0.62908-0.76931 2.07-1.9019 2.7116-1.2605 0.71398-3.2902 0.78455-4.5603 0.15856zm11.076-0.0222c-1.8524-0.94457-2.0032-1.4239-2.0032-6.3683v-4.4131h1.5875l0.1323 4.3236c0.12689 4.1475 0.15774 4.3442 0.75692 4.8286 0.39698 0.32098 1.0372 0.50504 1.7566 0.50504s1.3596-0.18406 1.7566-0.50504c0.59917-0.48447 0.63002-0.68117 0.75692-4.8286l0.13229-4.3236h1.5875v11.112l-0.74729 0.0856c-0.56615 0.0649-0.78081-0.0426-0.88564-0.44347-0.13711-0.52436-0.14581-0.52455-0.9725-0.0205-1.0396 0.63389-2.6684 0.65381-3.858 0.0472zm9.9472 0.28704c-0.097-0.097-0.1764-3.5536-0.1764-7.6812 0-6.704 0.0462-7.5226 0.43283-7.6709 0.23808-0.0913 0.62503-0.0449 0.8599 0.10314 0.37306 0.2352 0.43598 1.1814 0.49752 7.4843 0.0498 5.1016-0.0177 7.3214-0.23082 7.5781-0.3171 0.38206-1.0841 0.48558-1.383 0.18665zm7.3099-0.11052c-1.5087-0.44696-1.6655-0.95952-1.6655-5.4437v-4.0254l-0.8599-0.0829c-0.71871-0.0693-0.8599-0.1915-0.8599-0.74437 0-0.55286 0.14119-0.67507 0.8599-0.74436 0.8445-0.0814 0.8599-0.1066 0.8599-1.4066 0-1.288 0.0196-1.3215 0.7276-1.24 0.66498 0.0765 0.73448 0.1907 0.80767 1.3266l0.0801 1.2428 1.2428 0.0801c1.128 0.0727 1.2429 0.14122 1.2429 0.74153 0 0.6014-0.11412 0.66878-1.2568 0.7421l-1.2568 0.0806 4e-3 3.6235c3e-3 1.9929 0.10891 3.7891 0.23705 3.9914 0.12811 0.20234 0.69185 0.44249 1.2527 0.53365 0.865 0.1406 1.0198 0.26546 1.0198 0.82272 0 0.54285-0.1379 0.66537-0.79375 0.70528-0.43656 0.0266-1.1754-0.0648-1.6418-0.20293zm7.0387-0.31367c-1.62-1.0822-1.8405-1.901-1.762-6.5432l0.0693-4.101h1.5875l0.1323 4.293c0.11848 3.8446 0.18756 4.3468 0.66145 4.8079 0.92192 0.89693 2.817 0.82714 3.7103-0.13664 0.61534-0.66397 0.64529-0.86639 0.71495-4.8286l0.0727-4.1356h1.3229v11.112l-0.6146 0.0871c-0.4358 0.0617-0.65498-0.0673-0.75335-0.44347-0.13756-0.52597-0.14597-0.52616-0.9729-0.0219-1.1708 0.71389-3.0251 0.67386-4.1685-0.09zm9.677 0.28011c-0.0751-0.19575-0.1042-2.7338-0.0646-5.6401l0.0719-5.2842h0.79375c0.61399 0 0.81235 0.13057 0.87582 0.57652l0.0821 0.57652 0.94703-0.64267c1.6155-1.0963 3.4342-0.72563 3.0802 0.62787-0.12708 0.48599-0.34021 0.58155-1.2971 0.58155-0.82825 0-1.3504 0.17641-1.8874 0.63771-0.74073 0.63631-0.74266 0.64668-0.87466 4.6964l-0.13229 4.0586-0.72911 0.0839c-0.43212 0.0497-0.78473-0.0611-0.86569-0.27205zm8.4418-0.0597c-1.1654-0.50722-1.6876-1.3792-1.6876-2.818 0-2.315 1.4928-3.403 4.9664-3.6197l2.2217-0.13861-0.17306-0.95351c-0.26532-1.4618-0.93419-1.9813-2.551-1.9813-1.2244 0-1.4499 0.0926-2.0893 0.85853-0.5892 0.70575-0.84072 0.8274-1.4135 0.68365-0.81745-0.20517-0.81237-0.1847-0.2944-1.1864 0.86786-1.6782 4.2263-2.4144 6.1959-1.3581 1.6552 0.88768 1.8869 1.7248 1.8067 6.528-0.0701 4.2044-0.0748 4.2339-0.68522 4.3204-0.4418 0.0626-0.65505-0.0676-0.75848-0.46302-0.0791-0.30255-0.16431-0.5501-0.18934-0.5501-0.0251 0-0.51255 0.23813-1.0834 0.52917-1.2003 0.61196-3.0531 0.67667-4.2655 0.14898zm4.3435-1.6376c0.74165-0.4778 1.1652-1.5163 1.0595-2.5975l-0.0791-0.80863-1.9063 0.0523c-2.1465 0.0588-3.158 0.53538-3.4291 1.6155-0.21992 0.87622 0.38759 1.9582 1.2384 2.2056 0.85799 0.24949 2.3518 0.0256 3.1167-0.4672zm5.4728 1.702c-0.0745-0.19407-0.10371-3.685-0.0649-7.7576l0.0704-7.4048h1.3229v15.346l-0.59651 0.0847c-0.32805 0.0466-0.65741-0.0741-0.73189-0.26816zm11.383-0.0553c-1.7022-0.75139-2.4838-2.4209-2.5019-5.3441-0.024-3.8775 1.4583-5.6619 4.7033-5.6619 2.4905 0 4.0835 1.7745 4.1248 4.5949l0.0238 1.6228-3.638 0.0736c-3.9513 0.08-3.8298 0.0191-3.367 1.6851 0.60584 2.1812 3.672 2.6863 5.1828 0.8538 0.49927-0.6056 0.61939-0.6403 1.1245-0.32487 0.31102 0.19424 0.56549 0.48084 0.56549 0.63689 0 0.42945-1.3581 1.6353-2.2 1.9534-1.0123 0.38248-3.0511 0.33698-4.0177-0.0897zm4.6872-7.0316c-0.10697-1.3066-0.68977-2.0529-1.8821-2.4101-1.5-0.44942-2.9368 0.27803-3.4097 1.7262-0.55012 1.6849-0.42354 1.7651 2.6504 1.6797l2.7167-0.0754-0.0753-0.9204zm5.7639 6.9364c-1.5215-0.81965-2.1175-2.3277-2.1123-5.3444 5e-3 -2.9654 0.56978-4.327 2.1163-5.1029 1.2687-0.63653 3.1838-0.60534 4.037 0.0657 0.36999 0.29104 0.73893 0.52917 0.81984 0.52917 0.0809 0 0.18121-1.1609 0.22286-2.5797 0.075-2.5551 0.082-2.5797 0.73718-2.5797h0.66146v15.346l-0.6146 0.0871c-0.4418 0.0626-0.65506-0.0676-0.75848-0.46302-0.17397-0.66523-0.29451-0.67936-0.92531-0.1085-0.7466 0.67568-3.0548 0.75867-4.1839 0.15042zm4.0349-1.9286c0.5297-0.57403 0.73941-1.0932 0.77105-1.9088 0.13695-3.5327-0.34126-5.0166-1.7685-5.4877-2.0903-0.68987-3.5666 1.0075-3.5666 4.1007 0 2.2358 0.51281 3.4759 1.6438 3.975 1.1341 0.5006 2.0221 0.29404 2.9203-0.67933zm6.8844 2.0173c-0.47008-0.21242-1.0963-0.7799-1.3916-1.2611-0.49099-0.80003-0.53105-1.2482-0.46824-5.2405l0.0687-4.3656h1.3229l0.1371 4.101c0.0754 2.2556 0.23826 4.3127 0.36188 4.5714 0.31485 0.65899 1.0252 0.98484 2.1468 0.98484 2.2597 0 2.5996-0.69747 2.7728-5.6885l0.13767-3.9688h1.3229v11.112h-0.66145c-0.49271 0-0.6839-0.15844-0.74938-0.62099l-0.0879-0.62098-0.63767 0.59904c-0.80481 0.75608-3.0244 0.96254-4.2745 0.39761zm11.173 7e-3c-1.7341-0.76546-2.5135-2.4354-2.5135-5.3852 0-3.5982 1.335-5.3599 4.2197-5.5686 1.3461-0.0974 1.7542-0.0128 2.7472 0.56915 1.0417 0.61047 2.0289 1.9551 2.0289 2.7634 0 0.32695-1.4136 0.70439-1.5188 0.40554-0.34909-0.99099-0.88484-1.615-1.7503-2.0385-0.86082-0.42126-1.1691-0.45127-2.0192-0.19657-1.5794 0.47319-1.9877 1.3223-1.9877 4.1333 0 2.852 0.40654 3.6762 2.0287 4.113 0.86503 0.23292 1.2132 0.19916 2.0217-0.196 0.53716-0.26257 1.1353-0.81178 1.3292-1.2205 0.27676-0.58329 0.50432-0.72552 1.0583-0.66146 0.57626 0.0666 0.69233 0.20133 0.63259 0.73405-0.24837 2.2154-3.7816 3.6498-6.2768 2.5484zm9.3657-0.23391c-1.1164-0.75125-1.6368-2.1391-1.2829-3.4209 0.51539-1.8666 2.3735-2.8323 5.4771-2.8468 1.3722-6e-3 1.3891-0.0163 1.3891-0.81761 0-1.1454-0.387-1.7334-1.3654-2.0744-1.2232-0.42642-2.5046-0.10205-3.223 0.81588-0.50094 0.6401-0.73761 0.74825-1.3184 0.60248-0.85778-0.21529-0.89143-0.60928-0.13425-1.5719 1.6624-2.1134 5.8117-1.9414 7.2834 0.30196 0.41158 0.6274 0.47739 1.3312 0.47739 5.1059v4.3782l-0.74729 0.0856c-0.55796 0.0639-0.78103-0.0435-0.88054-0.42398-0.13052-0.49909-0.15309-0.49949-1.0946-0.0195-1.3785 0.70277-3.4425 0.65101-4.5806-0.11487zm3.4298-0.88254c0.45267-0.0905 1.1224-0.44204 1.4883-0.78112 0.54602-0.50603 0.66521-0.8627 0.66521-1.9904v-1.3739l-1.9068 0.15986c-2.2795 0.1911-3.2124 0.75327-3.3368 2.0108-0.15505 1.5669 1.1045 2.3719 3.0901 1.9748zm8.6143 1.2091c-1.6682-0.49669-1.8216-0.93092-1.9151-5.4213l-0.0845-4.0583-0.70921-0.0819c-0.55825-0.0645-0.70922-0.22275-0.70922-0.74342 0-0.52173 0.15079-0.67886 0.71377-0.74384 0.64847-0.0749 0.72109-0.19587 0.79375-1.3229 0.0731-1.1334 0.14285-1.2478 0.80759-1.3242 0.70813-0.0815 0.7276-0.0482 0.7276 1.243v1.3267l1.3891 0.08c1.284 0.0739 1.3891 0.13003 1.3891 0.74143 0 0.61264-0.10399 0.66742-1.4088 0.74212l-1.4088 0.0807 0.0859 3.6772c0.0561 2.4002 0.19605 3.7871 0.40317 3.9937 0.17449 0.17409 0.76981 0.39008 1.3229 0.47998 0.85055 0.13826 1.0056 0.26477 1.0056 0.82043 0 0.54285-0.13791 0.66537-0.79375 0.70528-0.43657 0.0266-1.1606-0.0609-1.609-0.19444zm11.537-0.3c-1.968-1.3369-2.7497-3.7971-2.18-6.8608 0.35525-1.9102 0.91604-2.767 2.2595-3.4524 1.3664-0.69711 3.7946-0.58719 4.8787 0.22085 1.4192 1.0578 1.7824 2.073 1.7824 4.9823 0 2.9853-0.33042 3.9055-1.7707 4.931-1.2929 0.92062-3.748 1.0091-4.9699 0.17908zm4.1638-1.6157c1.1409-1.0479 1.4537-4.4375 0.58378-6.3259-0.76817-1.6675-3.3762-1.9076-4.6231-0.42575-0.59894 0.71177-0.65998 1.0095-0.65998 3.2187 0 2.727 0.28716 3.4123 1.6876 4.0272 1.0064 0.44185 2.2071 0.24481 3.0117-0.49422zm4.951 1.8745c-0.0753-0.19621-0.10451-2.7346-0.065-5.641l0.0719-5.2842 0.6146-0.0871c0.4418-0.0626 0.65505 0.0676 0.75848 0.46302 0.17423 0.66633 0.29419 0.67963 0.93109 0.10324 0.77902-0.70499 3.3138-0.76807 4.3637-0.1086 1.5194 0.95441 1.6882 1.6311 1.6069 6.442l-0.0727 4.2999h-1.3229l-0.1371-4.101c-0.0754-2.2556-0.23056-4.2927-0.34478-4.5269-0.61389-1.2589-3.0188-1.4852-4.1171-0.38744-0.67498 0.67463-0.69607 0.79874-0.82498 4.8538-0.1294 4.0708-0.14528 4.1634-0.72879 4.2462-0.32806 0.0466-0.6581-0.0758-0.7334-0.27205zm28.005-0.10721c-1.0712-0.52829-1.782-1.9703-1.5812-3.2079 0.34771-2.1427 1.6254-2.9804 4.853-3.1818 2.0825-0.12992 2.1995-0.16976 2.1995-0.74893 0-1.1416-0.57272-1.9513-1.5972-2.2583-1.2762-0.38236-2.8164 0.0887-3.2255 0.98655-0.30327 0.66555-0.85828 0.80114-1.5274 0.37311-0.35277-0.22568-0.35277-0.33261 0-0.96243 0.6676-1.1918 1.7053-1.7739 3.3784-1.8949 1.9325-0.13978 3.2996 0.39735 4.0267 1.5821 0.4917 0.80121 0.53165 1.2477 0.46881 5.2414-0.0683 4.3435-0.0718 4.3661-0.68328 4.4527-0.43905 0.0622-0.65503-0.0674-0.75608-0.45387-0.14144-0.54085-0.14165-0.54085-1.1608-0.0209-1.2328 0.6289-3.2232 0.67109-4.395 0.0932zm3.799-1.2958c1.304-0.54483 1.654-1.095 1.6639-2.6153l8e-3 -1.2951-1.9068 0.15986c-2.0939 0.17554-3.1923 0.75303-3.3406 1.7563-0.29147 1.9714 1.3879 2.9082 3.5752 1.9943zm6.0306 1.4021c-0.0751-0.19575-0.10419-2.7338-0.0646-5.6401l0.0719-5.2842h0.79375c0.63151 0 0.81172 0.12692 0.88168 0.62098l0.0879 0.62099 0.62323-0.58549c0.77398-0.72712 2.7806-1.0201 3.2352-0.47241 0.17007 0.20495 0.2408 0.63432 0.15716 0.95417-0.12949 0.49515-0.33718 0.58155-1.398 0.58155-0.99653 0-1.3744 0.13646-1.8874 0.68173-0.60619 0.64426-0.64871 0.90234-0.77372 4.6964l-0.1323 4.0146-0.72911 0.0839c-0.43211 0.0497-0.78473-0.0611-0.86569-0.27205zm10.76 0.0618c-1.6678-0.40444-1.7477-0.6342-1.8408-5.2905l-0.0841-4.2088-0.70961-0.082c-0.55867-0.0645-0.70961-0.22269-0.70961-0.74345 0-0.5249 0.1502-0.67874 0.7276-0.74517 0.68411-0.0787 0.72761-0.16174 0.72761-1.3891 0-1.274 0.019-1.3053 0.79375-1.3053 0.77499 0 0.79375 0.0309 0.79375 1.3091v1.3091l1.3891 0.08c1.2839 0.0739 1.3891 0.13003 1.3891 0.74143 0 0.61141-0.10512 0.66751-1.3891 0.74144l-1.3891 0.08v3.558c0 3.2053 0.0525 3.6105 0.52916 4.0872 0.29909 0.29908 0.88194 0.52917 1.3405 0.52917 0.72901 0 0.80282 0.0738 0.7276 0.7276-0.0939 0.81628-0.7262 0.98185-2.2958 0.60122zm5.1155-0.061c-0.0753-0.19621-0.10451-2.7346-0.065-5.641l0.0719-5.2842 0.6146-0.0871c0.43452-0.0616 0.65497 0.0672 0.75231 0.43952 0.13714 0.52437 0.14155 0.52432 1.0489-0.011 1.2569-0.74161 3.5101-0.57036 4.4995 0.34197 1.2213 1.1262 1.4191 2.0082 1.4191 6.3279 0 3.4458-0.0586 4.008-0.43283 4.1516-0.23807 0.0914-0.62503 0.0452-0.8599-0.10248-0.35314-0.22209-0.44995-0.98043-0.55935-4.381-0.14394-4.4744-0.32697-5.0227-1.7685-5.2983-1.0091-0.19291-2.4133 0.28255-2.7924 0.94554-0.21035 0.36778-0.3828 2.1009-0.46615 4.6848-0.1293 4.0081-0.14581 4.103-0.72879 4.1858-0.32806 0.0466-0.6581-0.0758-0.7334-0.27205zm12.837-0.27567c-1.711-1.1645-1.9733-1.7898-2.061-4.9132-0.0667-2.3771 0-2.9729 0.42442-3.7519 0.69175-1.2717 2.2295-2.107 3.8882-2.1119 2.7852-8e-3 4.3533 1.6786 4.3613 4.6916l4e-3 1.6536h-7.1438v0.89036c0 1.156 0.83619 2.1984 2.0273 2.5273 1.293 0.357 2.334 0.0974 3.2124-0.80109 0.6912-0.70698 0.77738-0.72987 1.3192-0.35036 0.55163 0.38637 0.55864 0.43817 0.14497 1.0695-1.0886 1.6613-4.4663 2.2606-6.1774 1.096zm5.0298-6.6766c0-0.63809-0.2304-1.1797-0.74843-1.7595-0.6265-0.70119-0.94874-0.84194-1.9782-0.86408-1.5699-0.0337-2.5342 0.82363-2.7519 2.4467l-0.14734 1.0987h5.6259zm3.8292 6.9514c-0.0751-0.19575-0.1042-2.7338-0.0646-5.6401l0.0719-5.2842h0.79375c0.63151 0 0.81172 0.12692 0.88167 0.62098l0.0879 0.62099 0.6137-0.57653c0.71337-0.67019 2.6036-1.0109 3.1397-0.56597 0.20707 0.17183 0.30835 0.5836 0.23628 0.96054-0.11316 0.59205-0.254 0.65978-1.3721 0.65978-0.99653 0-1.3744 0.13646-1.8874 0.68173-0.60618 0.64426-0.6487 0.90234-0.77372 4.6964l-0.13229 4.0146-0.72911 0.0839c-0.43212 0.0497-0.78473-0.0611-0.86569-0.27205zm9.3772 0.0676c-1.1664-0.35348-2.0421-1.0703-2.3354-1.9116-0.33607-0.96403-0.18986-1.2786 0.58796-1.2649 0.3588 6e-3 0.78296 0.33399 1.1131 0.85989 1.157 1.8432 4.626 1.5049 4.626-0.4511 0-0.81125-0.64413-1.3188-2.3812-1.8765-2.0338-0.65286-3.3744-1.366-3.6953-1.9656-0.40391-0.75474-0.33208-2.3269 0.1392-3.0461 0.84312-1.2868 3.6968-1.8589 5.5046-1.1035 1.7668 0.73822 2.7931 3.0748 1.3505 3.0748-0.39891 0-0.73615-0.18724-0.83396-0.46302-0.48271-1.3611-1.9898-1.9388-3.6385-1.3947-1.0242 0.33802-1.5049 1.3249-1.0214 2.0971 0.14534 0.23213 1.3237 0.80337 2.6186 1.2694 1.6152 0.58133 2.5828 1.1018 3.082 1.6578 0.82521 0.91919 0.89342 1.4806 0.34068 2.8035-0.64583 1.5457-3.2814 2.3738-5.4568 1.7145zm8.0869-0.0637c-0.0743-0.19361-0.1034-3.6842-0.0646-7.7568l0.0704-7.4048h1.5875l0.0761 2.6117c0.0756 2.5929 0.0799 2.6082 0.60521 2.1328 0.81436-0.73697 3.322-0.81711 4.3991-0.14059 1.5194 0.95441 1.6882 1.6311 1.6069 6.442l-0.0727 4.2999h-1.3229l-0.13229-4.101c-0.0822-2.5473-0.25684-4.3186-0.46099-4.6752-0.50874-0.88858-1.9356-1.2569-3.0559-0.78882-0.50403 0.2106-1.0203 0.54388-1.1472 0.74063-0.12692 0.19675-0.29028 2.2627-0.36304 4.5911l-0.13229 4.2333-0.72911 0.0839c-0.42873 0.0493-0.78476-0.0612-0.86418-0.26815zm-108.28-5.4381 0.0715-5.4901h1.3229l0.143 10.98h-1.609zm119.86 0 0.0715-5.4901h1.3229l0.143 10.98h-1.609zm-120.2-8.0371c-0.46165-0.86259 0.0733-1.8186 1.0177-1.8186 0.88665 0 1.3815 0.42648 1.3815 1.1906 0 0.76033-0.49387 1.1906-1.3665 1.1906-0.47525 0-0.83701-0.19711-1.0326-0.56263zm119.86 0c-0.46164-0.86259 0.0733-1.8186 1.0177-1.8186 0.88664 0 1.3815 0.42648 1.3815 1.1906 0 0.76033-0.49387 1.1906-1.3665 1.1906-0.47524 0-0.83701-0.19711-1.0326-0.56263zm-232.86-10.152c-8.201-1.3802-13.774-6.3317-15.882-14.11-0.78071-2.8807-0.78224-8.5836-3e-3 -11.458 1.915-7.0636 6.9892-12.076 14.211-14.037 3.0321-0.82361 10.144-0.82701 13.151-6e-3 7.0363 1.9207 11.699 6.5301 13.705 13.549 0.38883 1.3602 0.61457 3.0871 0.71768 5.4901l0.15042 3.5057h-30.31l0.16295 1.189c0.35396 2.5825 2.3107 5.103 4.8911 6.3006 1.0577 0.49085 1.7116 0.57387 4.5428 0.5768 3.0911 3e-3 3.406-0.0451 4.8175-0.7382 0.87394-0.42915 1.8587-1.1816 2.3373-1.7859l0.82714-1.0443h12.162l-0.18068 0.59531c-0.0994 0.32742-0.66876 1.5417-1.2653 2.6984-2.6559 5.1498-7.7711 8.3838-14.862 9.396-2.4793 0.35392-6.681 0.2985-9.1736-0.12101zm13.399-25.335c-0.56915-2.6879-1.9456-4.4933-4.2256-5.5427-1.1491-0.52887-1.7401-0.60847-4.4979-0.60585-3.4633 3e-3 -4.6547 0.34185-6.4026 1.8194-0.89278 0.75468-2.0388 2.8841-2.3298 4.3292l-0.17317 0.8599h17.811zm31.312 25.446c-2.6107-0.38297-4.7742-1.0382-7.0708-2.1415-1.7875-0.85872-2.6787-1.5188-4.5306-3.356-1.8854-1.8704-2.5025-2.6967-3.3871-4.536-2.717-5.649-2.9673-12.907-0.63661-18.454 2.3502-5.5936 7.042-9.5559 13.293-11.226 1.9225-0.51371 2.8826-0.59892 6.6146-0.58701 3.6437 0.0116 4.7156 0.10985 6.4823 0.59401 6.913 1.8945 11.682 6.5383 13.635 13.276 0.41056 1.4163 0.61267 3.009 0.71263 5.6152l0.13954 3.638h-30.298l0.17421 1.1245c0.25283 1.6321 1.3564 3.7384 2.4716 4.7176 0.53322 0.46818 1.6298 1.1609 2.4368 1.5394 1.325 0.62148 1.7751 0.68821 4.6423 0.68821 2.8755 0 3.3149-0.0656 4.658-0.69541 0.90141-0.42269 1.8267-1.1231 2.3594-1.7859l0.87636-1.0905h6.0412c5.0467 0 6.0411 0.0619 6.0411 0.37629 0 0.20697-0.49118 1.3342-1.0915 2.5051-2.7258 5.3163-7.7564 8.6818-14.496 9.6977-2.7325 0.41191-6.6486 0.45522-9.0682 0.10028zm12.625-25.578c-0.4609-2.5038-1.8129-4.3084-4.0372-5.3889-0.97893-0.47554-1.8352-0.63693-3.8065-0.71743-2.8716-0.11728-4.9033 0.32866-6.5936 1.4472-1.5322 1.014-2.9015 3.3874-2.9015 5.0293v0.62198h17.521zm29.324 25.592c-3.6139-0.65139-6.9684-2.4142-9.5979-5.0436-3.6842-3.6842-5.5794-8.6759-5.5794-14.696 0-8.7655 4.8393-16.146 12.657-19.304 5.8517-2.3636 13.842-1.6897 17.836 1.5043l0.99219 0.79344v-19.604h12.435v55.562h-12.099l-0.16825-1.2276c-0.0925-0.67516-0.16825-1.6226-0.16825-2.1053v-0.87778l-1.2477 1.3339c-2.4843 2.6559-5.195 3.649-10.394 3.8078-1.819 0.0556-3.9189-9e-3 -4.6665-0.14393zm11.746-10.412c1.3584-0.68839 2.9313-2.2414 3.6212-3.5756 1.6007-3.0954 1.5536-9.4536-0.0939-12.683-0.75496-1.4799-2.6335-3.0769-4.2776-3.6366-1.976-0.67267-5.4547-0.67452-7.3875-4e-3 -2.01 0.69742-4.4372 3.1268-5.3095 5.3144-0.54922 1.3773-0.63304 2.0254-0.63304 4.8948 0 2.8275 0.0877 3.5261 0.60426 4.8158 0.76205 1.9025 2.6426 4.0117 4.3468 4.8753 2.4535 1.2433 6.6744 1.2427 9.1293-1e-3zm34.725 10.512c-6.1017-0.9164-9.782-2.4675-12.654-5.3331-1.7456-1.7415-3.279-4.4716-3.6329-6.4678l-0.17589-0.99219h12.19l0.62011 1.1245c1.2791 2.3193 4.7511 3.5652 9.2244 3.3102 3.0569-0.1743 4.7009-0.92574 5.2494-2.3994 0.33303-0.89477 0.32551-1.1112-0.0672-1.9347-0.71506-1.4995-2.9614-2.2322-10.486-3.4204-7.8194-1.2347-12.707-3.8388-14.482-7.716-1.9335-4.2233-0.51959-9.8773 3.2122-12.845 3.0493-2.425 6.8964-3.6024 12.458-3.8126 7.7738-0.29373 13.719 1.5125 17.189 5.2218 1.365 1.4593 2.6716 4.0063 2.9429 5.7368l0.17629 1.1245h-11.963l-0.52853-1.036c-0.29073-0.56983-0.85868-1.2709-1.2622-1.558-1.118-0.79533-3.4052-1.3748-5.427-1.3748-3.6469 0-5.4931 0.98686-5.4931 2.9362 0 1.9357 1.0779 2.4136 8.3344 3.6953 5.7279 1.0117 7.8911 1.6114 10.848 3.0075 2.9488 1.3923 4.8812 3.0852 5.849 5.1241 0.9566 2.0153 1.1921 5.785 0.50834 8.1371-1.5266 5.2514-6.2965 8.4085-14.156 9.3694-2.1206 0.25927-7.0346 0.31883-8.4736 0.1027zm44.053-0.01c-9.0025-1.1572-15.044-5.8783-16.916-13.218-0.69189-2.7136-1.2332-2.4753 5.6222-2.4753h6.0367l0.60198 1.4524c0.79182 1.9104 2.6384 3.5833 4.703 4.2604 2.3599 0.77404 6.8793 0.70404 8.7607-0.13568 1.6015-0.7148 3.1059-2.3113 3.4938-3.7078 0.76809-2.765-0.0802-5.8579-1.9563-7.1329-1.7551-1.1928-2.7121-1.4095-6.8406-1.5491l-3.9026-0.13203v-9.3982l3.5057-0.13348c1.9282-0.0734 3.9653-0.28979 4.527-0.48084 2.3184-0.78855 3.3976-2.8652 2.857-5.4978-0.36991-1.8014-1.2742-2.9878-2.8789-3.7771-1.0706-0.52657-1.6687-0.62178-3.9098-0.6224-1.567-5.2e-4 -3.0645 0.14714-3.6726 0.36194-1.4743 0.52073-3.0621 2.0655-3.7746 3.6722l-0.61595 1.3891h-5.8086c-3.1947 0-5.8726-0.10365-5.9509-0.23033-0.23167-0.37485 0.60209-3.199 1.4572-4.9361 2.079-4.223 5.7545-7.1597 10.964-8.7603 2.2563-0.69322 2.6367-0.72928 7.6658-0.72688 4.6151 0.0021 5.5623 0.07648 7.4083 0.58097 3.112 0.85046 5.7214 2.2322 7.6862 4.0702 5.8309 5.4546 5.2758 15.054-1.0622 18.366-0.80484 0.42055-1.4624 0.82417-1.4612 0.89693 0 0.0728 0.74441 0.47781 1.6517 0.90012 2.3806 1.1081 4.6688 3.4015 5.7635 5.7766 0.76618 1.6622 0.89043 2.2414 0.99756 4.6501 0.21754 4.8916-0.90591 7.9535-4.0642 11.077-2.9669 2.9339-7.0999 4.7022-12.547 5.3682-2.1351 0.26105-6.6423 0.31118-8.3413 0.0928zm43.218-0.22676c-7.6094-1.1854-13.119-5.5796-15.181-12.107-0.35867-1.1353-0.6521-2.3557-0.6521-2.712v-0.6478h12.065l0.35832 0.99219c1.203 3.331 3.7726 4.9814 8.2147 5.276 4.1352 0.27431 7.0894-0.89775 8.4632-3.3578 0.55554-0.99478 0.66492-1.5388 0.66492-3.3073 0-1.8183-0.0998-2.2864-0.70779-3.3206-1.3183-2.2424-3.9628-3.1617-9.0948-3.1617h-3.0297v-9.4637l3.5121-0.10263c3.1802-0.0929 3.6527-0.17142 4.9998-0.83053 1.8163-0.88861 2.336-1.8097 2.336-4.1396 0-3.4782-1.9247-5.2101-6.1146-5.5021-3.9895-0.27802-6.5347 0.9363-7.9383 3.7874l-0.83648 1.6991h-11.892l0.18465-0.9843c0.58383-3.1121 2.2573-6.194 4.6381-8.5421 2.0551-2.0268 4.4184-3.3579 7.8137-4.4011 2.2531-0.69228 2.6353-0.72849 7.6631-0.72609 4.6173 0.0021 5.5573 0.07598 7.3761 0.57901 6.705 1.8544 10.728 5.8433 11.588 11.49 0.72887 4.7856-1.3638 9.2042-5.2719 11.131-0.61846 0.30498-1.1245 0.62417-1.1245 0.7093 0 0.0851 0.73576 0.50422 1.635 0.93129 0.89926 0.42708 2.3039 1.3958 3.1215 2.1527 2.539 2.3507 3.7101 5.2621 3.7101 9.2235 0 8.4438-6.1726 14.146-16.748 15.472-2.8636 0.35907-6.932 0.30161-9.7522-0.13773zm-278.3-26.981v-26.331l12.832 0.1417 0.13546 42.201h14.711c11.658 0 14.686 0.0686 14.589 0.33073-0.0671 0.1819-0.4668 2.5034-0.88821 5.159l-0.76615 4.8282-20.307 5.3e-4 -20.307 3e-4z" stroke-width=".26458" fill="currentColor"/><path d="m96.046 35.526a1.0001 1.0001 0 0 0-0.39378 0.1695l-56.388 40.49a1 1 0 0 0-0.16433-0.013436 1 1 0 0 0-0.52503 0.30386l-62.038 6.6745-38.348-23.904a1.0001 1.0001 0 0 0-0.22479-0.10594l-36.131-11.541a1.0001 1.0001 0 0 0-0.81855 0.094051l-39.142 23.461a1 1 0 0 0 0 0.002067 1 1 0 0 0-0.00207 0 1 1 0 0 0-0.34003 1.3653 1 1 0 0 0 0 0.004134 1 1 0 0 0 0.00207 0 1 1 0 0 0 0 0.003618l35.834 59.268 11.014 27.279a1.0001 1.0001 0 0 0 0.17777 0.2868l30.211 34.205 6.4611 22.615a1.0001 1.0001 0 0 0 0.58601 0.65267l30.359 12.293a1.0001 1.0001 0 0 0 0.82424-0.03307l51.739-25.994a1.0001 1.0001 0 0 0 0.02067-0.00259l64.248-2.2495a1.0001 1.0001 0 0 0 0.77515-1.586l-41.32-57.002 44.693-105.36a1.0001 1.0001 0 0 0-0.68161-1.3612 1.0001 1.0001 0 0 0-0.4284-0.011368zm-2.1244 3.8747-42.357 99.861-11.106-61.209 0.03669-0.14004a1.0001 1.0001 0 0 0 0.027388-0.16898l53.398-38.343zm-190.88 10.683 33.433 10.679-14.434 43.771-18.999-54.45zm-2.1182 0.001551 19.221 55.087-55.576-33.298 36.355-21.789zm37.916 11.918 35.447 22.097-31.254 19.36-4.1925-41.457zm-1.6955 3.1202 3.9445 39.011-17.524 2.1642 13.58-41.175zm-72.074 9.3829 55.578 33.3-22.176 21.942-33.402-55.242zm172.07 4.1367-33.327 33.327-25.613-26.985 58.94-6.3417zm0.49041 2.3378-14.003 53.261-18.447-20.811 32.45-32.45zm1.635 1.648 10.662 58.757-24.5-6.1247 13.838-52.632zm-64.251 3.376-0.67696 27.224-29.721-8.3948 30.398-18.829zm1.9839 0.61805 24.662 25.984-25.327 0.89659 0.66559-26.881zm-36.315 19.576-13.797 26.3-3.9104-24.113 17.707-2.1869zm4.5997 0.90123 28.443 8.0341-9.5167 14.591-18.926-22.626zm-1.7022 1.0831 18.567 22.196-15.846 0.20671-2.7213-22.403zm-1.9529 0.5209 2.6753 22.01-15.914 3.2262 13.238-25.236zm-20.406 1.3519 3.9388 24.295-24.76-3.6923 20.821-20.602zm79.792 4.577-15.385 14.3-8.5437-13.455 23.928-0.84542zm1.6614 1.1844-1.9187 20.994-13.438-6.7184 15.357-14.275zm2.0025 0.06201 17.092 19.282-19.069 2.3311 1.9761-21.613zm-29.382 0.50953 8.3039 13.082-17.657 1.2604 9.3534-14.342zm8.539 15.07-8.6103 14.016-9.1075-12.75 17.718-1.2661zm2.2045 0.231 13.292 6.6461-21.738 7.106 8.446-13.752zm-24.338 0.69556-15.677 12.169 0.39894-11.971 15.278-0.19844zm-61.841 0.21446 25.017 3.73-15.419 20.047-9.5984-23.777zm44.559 0.13022-0.42581 12.783-14.926-9.6712 15.352-3.1114zm18.672 1.1085 1.573 40.893-18.741-27.547 0.002067-0.02067 17.166-13.325zm2.0381 0.94517 8.9819 12.574a1.0001 1.0001 0 0 0 0.022737 0.69349l0.048059 0.11317-7.628 23.668-1.4247-37.049zm57.789 2.2536 4.8374 20.662-23.324-18.402 18.487-2.2603zm2.097 0.18293 23.648 5.9128-18.665 15.369-4.9826-21.282zm-98.647 0.45372 11.494 51.836-27.455-31.086 15.961-20.75zm3.1393 0.83716 14.347 9.295-1.8118 18.516-12.535-27.811zm70.949 1.5617-1.4562 15.937-21.21-8.5282 22.666-7.4088zm1.9906 0.2067 24.351 19.212-25.818-3.1704 1.4671-16.041zm-72.597 3.8623 11.789 26.157-2.2185 17.005-9.571-43.161zm120.34 0.32143 1.7859 36.603-21.114-20.686 19.328-15.918zm2.0454 0.88263 37.853 52.22-35.945-14.376-0.064596-0.06304-1.8433-37.781zm-75.427 3.8969 21.571 8.6739-12.945 11.673-8.6258-20.347zm-31.192 1.0526 17.258 25.365-19.178-5.7314 1.9203-19.633zm29.757 0.68626 8.337 19.667-16.417 5.4017 8.0796-25.069zm26.89 7.5127 26.11 3.207a1 1 0 0 0 0.10904-0.0155l-0.44287 36.601-25.776-39.793zm-2.0717 0.48059 25.87 39.939-39.33-27.802 13.46-12.136zm30.277 3.8215 20.948 20.521-21.397 16.543 0.44907-37.064zm-87.03 9.1431 19.811 5.92-22.424 14.126 2.6133-20.046zm40.207 0.83406-2.6474 25.135-13.929-19.679 16.576-5.456zm2.0071 0.02377 39.856 28.173-42.633-1.8045 2.7761-26.369zm-22.731 7.6321-16.509 32.59-5.3738-18.803 21.882-13.787zm2.2118 0.06304 9.8929 46.011-27.549-11.156 17.656-34.855zm2.4639 1.9456 12.911 18.24a1.0001 1.0001 0 0 0 0.07338 0.06562l-4.3196 21.999-8.6651-40.305zm85.262 2.2929 0.027906 0.02739a1.0001 1.0001 0 0 0 0.32814 0.21291l35.108 14.043-56.499 1.9777 21.035-16.261zm-70.318 16.422 42.083 1.7818-47.08 23.653 4.9971-25.435z" fill="currentColor" stroke-linecap="round" stroke-linejoin="round" style="-inkscape-stroke:none"/></g></svg>
