<?xml version="1.0" encoding="UTF-8"?>
<svg class="icon" width="232.38" height="80.002" version="1.1" viewBox="0 0 232.38 144.38" xml:space="preserve" xmlns="http://www.w3.org/2000/svg" xmlns:cc="http://creativecommons.org/ns#" xmlns:dc="http://purl.org/dc/elements/1.1/" xmlns:rdf="http://www.w3.org/1999/02/22-rdf-syntax-ns#"><defs><clipPath id="a"><path d="M 0,841.89 H 595.276 V 0 H 0 Z"/></clipPath></defs><title>Mapping Creative Education</title><path transform="matrix(1.3333 0 0 -1.3333 -272.65 357.7)" d="m134.36 268.28v-108.29h314.55v108.29zm216.92-16.587c0.422 0 0.62059-0.20023 0.89359-0.47323l12.391-13.94v14.377h1.3615v-20.439h-1.3615v4.0158l-12.857 14.424v-18.44h-1.3589v19.543c0 0.531 0.40125 0.9306 0.93325 0.9306zm-109.19-0.037h0.61335c0.643 0 1.1613-0.29528 1.5043-0.85128l4.4415-6.7733c0.786-1.196 0.80957-1.195 1.3615-1.195 0.551 0 0.5739-1e-3 1.3589 1.195l4.4494 6.7865c0.33899 0.55199 0.834 0.83806 1.462 0.83806h0.6107c0.672 0 1.4726-0.28036 1.4726-1.6153v-18.823h-1.3589v18.823c0 0.19999-0.037 0.25379-0.037 0.25379h-0.61599c-0.206 0-0.23785 2e-3 -0.40185-0.26437l-4.5076-6.7997c-0.801-1.204-1.1662-1.7554-2.4322-1.7554-1.268 0-1.6339 0.55146-2.4349 1.7554l-4.497 6.7838c-0.172 0.281-0.23079 0.28023-0.44679 0.28023h-0.54197c-0.044 0.014-0.0767-0.0474-0.0767-0.25644v-18.821h-1.3589v18.821c0 1.335 0.7805 1.618 1.4356 1.618zm31.032 0h3.5268c1.9369 0 2.4795-1.324 3.0535-2.723l2.4825-5.8612c0.441-1.161 0.65036-2.363 0.65036-3.688v-8.1665h-1.3589v6.1916h-13.039v-6.1916h-1.3589v8.1665c0 1.325 0.21107 2.5267 0.64507 3.6695l2.3027 5.9088c0.538 1.328 1.0938 2.694 3.0958 2.694zm17.393 0h8.2749c5.1978 0 5.8982-2.7305 5.8982-5.3985v-2.6622c0-2.615-0.70037-5.2875-5.8982-5.2875h-6.916v-7.0905h-1.3589zm20.952 0h8.2749c5.198 0 5.8982-2.7305 5.8982-5.3985v-2.6622c0-2.615-0.70022-5.2875-5.8982-5.2875h-6.916v-7.0905h-1.3589zm19.582 0h12.447v-1.3589h-5.5069v-17.721h5.5069v-1.3589h-12.447v1.3589h5.5783v17.721h-5.5783zm48.811 0h6.7283v-1.3589h-6.7283c-4.2188 0-4.9015-1.1382-4.9015-3.8572v-10.078c0-2.6678 0.78285-3.7858 5.6206-3.7858h6.3053v6.8764h1.3589v-8.2352h-7.6642c-5.2828 0-6.9795 1.2519-6.9795 5.1447v10.078c0 3.8998 1.5806 5.2161 6.2604 5.2161zm-201.47-0.39392a0.1667 0.17147 0 0 0 0.1692-0.17184 0.1667 0.17147 0 0 0-0.1692-0.1692 0.1667 0.17147 0 0 0-0.16655 0.1692 0.1667 0.17147 0 0 0 0.16655 0.17184zm5.1844-0.082a0.1667 0.17147 0 0 0 0.16656-0.17185 0.1667 0.17147 0 0 0-0.16656-0.17184 0.1667 0.17147 0 0 0-0.16656 0.17184 0.1667 0.17147 0 0 0 0.16656 0.17185zm108.3-0.88301v-10.628h6.9134c3.797 0 4.542 1.438 4.542 3.926v2.6649c0 2.492-0.7619 4.037-4.542 4.037zm20.952 0v-10.628h6.916c3.796 0 4.5367 1.438 4.5367 3.926v2.6649c0 2.492-0.75765 4.037-4.5367 4.037zm-39.704-3e-3c-1.032 0-1.3384-0.53142-1.8374-1.8374l-2.3054-5.9061c-0.364-0.982-0.54196-2.0212-0.54196-3.1672v-0.61335h13.039v0.61335c0 1.146-0.17862 2.1851-0.54462 3.1751l-2.4745 5.8453c-0.563 1.314-0.85133 1.8903-1.8083 1.8903zm-92.161-1.4356a0.3706 0.38119 0 0 0 0.37013-0.3807 0.3706 0.38119 0 0 0-0.37013-0.3807 0.3706 0.38119 0 0 0-0.37012 0.3807 0.3706 0.38119 0 0 0 0.37012 0.3807zm4.8936-0.082a0.24965 0.25678 0 0 0 0.24851-0.25645 0.24965 0.25678 0 0 0-0.24851-0.25644 0.24965 0.25678 0 0 0-0.24851 0.25644 0.24965 0.25678 0 0 0 0.24851 0.25645zm-9.9537-0.1269a0.1667 0.17147 0 0 0 0.16655-0.17185 0.1667 0.17147 0 0 0-0.16655-0.17184 0.1667 0.17147 0 0 0-0.16656 0.17184 0.1667 0.17147 0 0 0 0.16656 0.17185zm7.5611-2.07a0.58053 0.59712 0 0 0 0.58163-0.59749 0.58053 0.59712 0 0 0-0.58163-0.59749 0.58053 0.59712 0 0 0-0.57898 0.59749 0.58053 0.59712 0 0 0 0.57898 0.59749zm-4.9887-0.12426a0.45124 0.46413 0 0 0 0.45208-0.4653 0.45124 0.46413 0 0 0-0.45208-0.46265 0.45124 0.46413 0 0 0-0.45208 0.46265 0.45124 0.46413 0 0 0 0.45208 0.4653zm10.078-0.20886a0.24965 0.25678 0 0 0 0.24851-0.25644 0.24965 0.25678 0 0 0-0.24851-0.25644 0.24965 0.25678 0 0 0-0.25116 0.25644 0.24965 0.25678 0 0 0 0.25116 0.25644zm-15.096-0.1269a0.1667 0.17147 0 0 0 0.16655-0.17184 0.1667 0.17147 0 0 0-0.16655-0.1692 0.1667 0.17147 0 0 0-0.16656 0.1692 0.1667 0.17147 0 0 0 0.16656 0.17184zm35.291 0a0.1667 0.17147 0 0 0 0.16656-0.17184 0.1667 0.17147 0 0 0-0.16656-0.1692 0.1667 0.17147 0 0 0-0.16656 0.1692 0.1667 0.17147 0 0 0 0.16656 0.17184zm4.9755-0.0396a0.1667 0.17147 0 0 0 0.16656-0.17185 0.1667 0.17147 0 0 0-0.16656-0.17184 0.1667 0.17147 0 0 0-0.16655 0.17184 0.1667 0.17147 0 0 0 0.16655 0.17185zm-32.761-1.8982a0.74153 0.76272 0 0 0 0.74289-0.7614 0.74153 0.76272 0 0 0-0.74289-0.76404 0.74153 0.76272 0 0 0-0.74025 0.76404 0.74153 0.76272 0 0 0 0.74025 0.7614zm5.0178-0.1269a0.61712 0.63475 0 0 0 0.61599-0.6345 0.61712 0.63475 0 0 0-0.61599-0.63714 0.61712 0.63475 0 0 0-0.616 0.63714 0.61712 0.63475 0 0 0 0.616 0.6345zm25.269-0.13483a0.41465 0.4265 0 0 0 0.41507-0.42564 0.41465 0.4265 0 0 0-0.41507-0.42829 0.41465 0.4265 0 0 0-0.41507 0.42829 0.41465 0.4265 0 0 0 0.41507 0.42564zm-35.305-0.0793a0.3706 0.38119 0 0 0 0.37012-0.3807 0.3706 0.38119 0 0 0-0.37012-0.3807 0.3706 0.38119 0 0 0-0.37013 0.3807 0.3706 0.38119 0 0 0 0.37013 0.3807zm15.178-0.12426a0.24965 0.25678 0 0 0 0.25115-0.25644 0.24965 0.25678 0 0 0-0.25115-0.25644 0.24965 0.25678 0 0 0-0.24852 0.25644 0.24965 0.25678 0 0 0 0.24852 0.25644zm25.089 0a0.24965 0.25678 0 0 0 0.25115-0.25644 0.24965 0.25678 0 0 0-0.25115-0.25644 0.24965 0.25678 0 0 0-0.24852 0.25644 0.24965 0.25678 0 0 0 0.24852 0.25644zm-10.075-0.0396a0.24965 0.25678 0 0 0 0.24851-0.25645 0.24965 0.25678 0 0 0-0.24851-0.25908 0.24965 0.25678 0 0 0-0.25115 0.25908 0.24965 0.25678 0 0 0 0.25115 0.25645zm-4.9782-0.0873a0.1667 0.17147 0 0 0 0.16656-0.1692 0.1667 0.17147 0 0 0-0.16656-0.17184 0.1667 0.17147 0 0 0-0.16655 0.17184 0.1667 0.17147 0 0 0 0.16655 0.1692zm-17.747-1.729a0.98344 1.0115 0 0 0 0.98083-1.0126 0.98344 1.0115 0 0 0-0.98083-1.0126 0.98344 1.0115 0 0 0-0.98347 1.0126 0.98344 1.0115 0 0 0 0.98347 1.0126zm-4.8936-0.20885a0.78185 0.80419 0 0 0 0.7799-0.8037 0.78185 0.80419 0 0 0-0.7799-0.8037 0.78185 0.80419 0 0 0-0.78255 0.8037 0.78185 0.80419 0 0 0 0.78255 0.8037zm9.9643-0.13219a0.58053 0.59712 0 0 0 0.58162-0.59748 0.58053 0.59712 0 0 0-0.58162-0.59749 0.58053 0.59712 0 0 0-0.57898 0.59749 0.58053 0.59712 0 0 0 0.57898 0.59748zm25.213 0a0.58053 0.59712 0 0 0 0.58163-0.59748 0.58053 0.59712 0 0 0-0.58163-0.59749 0.58053 0.59712 0 0 0-0.57898 0.59749 0.58053 0.59712 0 0 0 0.57898 0.59748zm-5.0178-0.0423a0.58053 0.59712 0 0 0 0.58162-0.59748 0.58053 0.59712 0 0 0-0.58162-0.59485 0.58053 0.59712 0 0 0-0.57898 0.59485 0.58053 0.59712 0 0 0 0.57898 0.59748zm-5.0178-0.0872a0.41465 0.4265 0 0 0 0.41506-0.42564 0.41465 0.4265 0 0 0-0.41506-0.42829 0.41465 0.4265 0 0 0-0.41243 0.42829 0.41465 0.4265 0 0 0 0.41243 0.42564zm15.04-0.16127a0.24965 0.25678 0 0 0 0.25115-0.25644 0.24965 0.25678 0 0 0-0.25115-0.25645 0.24965 0.25678 0 0 0-0.24851 0.25645 0.24965 0.25678 0 0 0 0.24851 0.25644zm-45.203-0.0423a0.24965 0.25678 0 0 0 0.25116-0.25644 0.24965 0.25678 0 0 0-0.25116-0.25645 0.24965 0.25678 0 0 0-0.24851 0.25645 0.24965 0.25678 0 0 0 0.24851 0.25644zm25.174-0.082a0.24965 0.25678 0 0 0 0.24851-0.25644 0.24965 0.25678 0 0 0-0.24851-0.25644 0.24965 0.25678 0 0 0-0.24851 0.25644 0.24965 0.25678 0 0 0 0.24851 0.25644zm-5.0601-3e-3a0.1667 0.17147 0 0 0 0.16655-0.17184 0.1667 0.17147 0 0 0-0.16655-0.1692 0.1667 0.17147 0 0 0-0.16656 0.1692 0.1667 0.17147 0 0 0 0.16656 0.17184zm-12.648-1.5043a1.1899 1.2239 0 0 0 1.1897-1.224 1.1899 1.2239 0 0 0-1.1897-1.2214 1.1899 1.2239 0 0 0-1.1897 1.2214 1.1899 1.2239 0 0 0 1.1897 1.224zm4.8936-0.1269a1.024 1.0533 0 0 0 1.0231-1.0548 1.024 1.0533 0 0 0-1.0231-1.0522 1.024 1.0533 0 0 0-1.0258 1.0522 1.024 1.0533 0 0 0 1.0258 1.0548zm20.375-0.19299a0.86046 0.88504 0 0 0 0.85921-0.88566 0.86046 0.88504 0 0 0-0.85921-0.88565 0.86046 0.88504 0 0 0-0.86186 0.88565 0.86046 0.88504 0 0 0 0.86186 0.88566zm4.9755-0.0423a0.86046 0.88504 0 0 0 0.86186-0.88301 0.86046 0.88504 0 0 0-0.86186-0.88566 0.86046 0.88504 0 0 0-0.85922 0.88566 0.86046 0.88504 0 0 0 0.85922 0.88301zm-35.207-0.20093a0.66347 0.68243 0 0 0 0.66358-0.68208 0.66347 0.68243 0 0 0-0.66358-0.68473 0.66347 0.68243 0 0 0-0.66358 0.68473 0.66347 0.68243 0 0 0 0.66358 0.68208zm25.089-0.0132a0.61164 0.62911 0 0 0 0.6107-0.62921 0.61164 0.62911 0 0 0-0.6107-0.62921 0.61164 0.62911 0 0 0-0.61335 0.62921 0.61164 0.62911 0 0 0 0.61335 0.62921zm15.096-0.0396a0.61164 0.62911 0 0 0 0.6107-0.62921 0.61164 0.62911 0 0 0-0.6107-0.62921 0.61164 0.62911 0 0 0-0.61335 0.62921 0.61164 0.62911 0 0 0 0.61335 0.62921zm-20.074-0.12161a0.41465 0.4265 0 0 0 0.41507-0.42565 0.41465 0.4265 0 0 0-0.41507-0.42564 0.41465 0.4265 0 0 0-0.41242 0.42564 0.41465 0.4265 0 0 0 0.41242 0.42565zm-5.1421-0.0397a0.41465 0.4265 0 0 0 0.41507-0.42829 0.41465 0.4265 0 0 0-0.41507-0.42564 0.41465 0.4265 0 0 0-0.41242 0.42564 0.41465 0.4265 0 0 0 0.41242 0.42829zm-20.085-0.16391a0.1667 0.17147 0 0 0 0.16656-0.17184 0.1667 0.17147 0 0 0-0.16656-0.17185 0.1667 0.17147 0 0 0-0.16655 0.17185 0.1667 0.17147 0 0 0 0.16655 0.17184zm50.469-0.0423a0.1667 0.17147 0 0 0 0.16655-0.17184 0.1667 0.17147 0 0 0-0.16655-0.17185 0.1667 0.17147 0 0 0-0.16656 0.17185 0.1667 0.17147 0 0 0 0.16656 0.17184zm-37.93-1.3668s1.2664-0.4568 1.2664-1.618c0-1.1612 0.60018-0.99404 1.2637-0.99404 0.66352 0 1.2637-0.5807 1.2637-1.3272 0-0.74647-0.26817-1.1632-1.1183-1.1632-0.85013 0-1.306-0.62051-1.306-1.2426s0.68437-1.121 1.3272-1.121 1.0972 0.56136 1.0972 1.2664c0 0.70499 0.26967 1.0575 1.3272 1.0575 1.0575 0 1.1818-0.64316 1.1818-1.4726s0.0222-1.0575 1.2664-1.0575c1.2441 0 1.2637-0.43529 1.2637-1.1818 0-0.74647 0.68438-1.121 1.3272-1.121 0.64279 0 1.1606 0.43571 1.1606 1.2029 0 0.7672-0.0598 1.121-1.2003 1.121-1.1404 0-1.2452 0.726-1.2452 1.2029 0 0.47691 0.51767 1.2029 1.2849 1.2029 0.7672 0 1.2452-0.45795 1.2452-1.4118s0.55996-0.99405 1.3272-0.99405c0.76719 0 1.1818 0.51709 1.1818 1.388 0 0.87087 0.64358 1.1606 1.4937 1.1606 0.85016 0 0.9729-0.68271 0.9729-1.2426s0.45587-1.121 1.306-1.121c0.85013 0 1.2664 0.56012 1.2664 1.2029 0 0.64278-0.28984 1.1606-1.4303 1.1606-1.1404 0-1.1421 0.89369-1.1421 1.1632 0 0.26955 0.0836 1.1818 1.224 1.1818 1.1404 0 1.2849-0.78805 1.2849-1.3272s0.12577-1.0364 1.3906-1.0364c1.2649 0 1.2029 0.76607 1.2029 1.2637s0.26925 1.3483 1.306 1.3483 1.2029-0.82921 1.2029-1.5757-0.14501-1.0178-1.1818-1.0178c-1.0368 0-1.3906-0.57862-1.3906-1.2214s0.12493-1.306 1.3483-1.306c1.2234 0 1.2029-0.89198 1.2029-1.4726 0-0.58059-0.68546-1.0575-1.5149-1.0575s-0.9729-0.12608-0.9729-1.1421-0.35426-1.3457-1.4118-1.3457c-1.0574 0-1.1394-0.49802-1.1394-1.4726s-0.51948-1.0575-1.2452-1.0575c-0.72573 0-1.2849-0.31198-1.2849-1.3695 0-1.0575-0.43486-1.1606-1.1606-1.1606-0.72572 0-1.306-0.39475-1.306-1.4937s0.55971-0.9729 1.1818-0.9729c0.62205 0 1.1606-0.58292 1.1606-1.3086s-0.99457-1.1606-1.2849-1.1606-1.0998 0.16599-1.0998 1.3272c0 1.1612-0.53882 1.0364-1.306 1.0364-0.7672 0-1.0998-0.57971-1.0998-1.4091 0-0.82941 0.31129-1.0786 1.2029-1.0786s1.2665-0.84489 1.121-1.388c-0.14551-0.54307-0.54032-1.1421-1.5149-1.1421-0.97457 0-0.97555-0.60185-0.97555-1.3483s0.23059-1.1606 1.1844-1.1606c0.95382 0 1.2214-0.66266 1.2214-1.4091s-0.30906-1.0364-1.2214-1.0364c-0.91233 0-1.1421-0.74699-1.1421-1.3483 0-0.60132 0.4354-1.2452 1.4514-1.2452 1.0161 0 1.0575-0.70355 1.0575-1.5122s0.0842-0.99669 1.1209-0.99669c1.0368 0 1.2849-0.78665 1.2849-1.388 0-0.60132-0.24825-1.0364-1.1606-1.0364-0.91234 0-1.1421-0.45712-1.1421-1.3695 0-0.91235 0.5612-1.2029 1.3906-1.2029 0.8294 0 1.0998-0.39434 1.0998-1.4726 0-1.0782 0.41288-1.0786 1.0972-1.0786 0.68425 0 1.2664-0.53699 1.2664-1.3457s-0.47868-1.1632-1.4118-1.1632c-0.93309 0-1.076-0.39185-1.076-1.3457 0-0.95382 0.28999-1.2029 1.306-1.2029s1.2029-0.70691 1.2029-1.2875c0-0.58058-0.18855-1.2214-1.2875-1.2214-1.0989 0-1.1606 0.93138-1.1606 1.3668s0.02 1.224-1.2241 1.224c-1.2441 0-1.2637-0.82895-1.2637-1.4303 0-0.60132-0.43653-1.1395-1.2452-1.1395-0.80866 0-1.2637 0.76648-1.2637 1.2849s0.10437 1.2426 1.2241 1.2426c1.1197 0 1.2426 0.85025 1.2426 1.3272s-0.37268 1.1421-1.1606 1.1421c-0.78794 0-1.2849-0.68423-1.2849-1.4514 0-0.76721-0.43596-1.0998-1.3483-1.0998-0.91234 0-1.224 1.0571-1.224 1.6999 0 0.6428-0.10296 0.78784-1.2849 0.78784-1.182 0-1.2452 1.2655-1.2452 1.618s0.27152 0.97554-1.2214 0.97554-1.2875 1.036-1.2875 1.2849 0.10522 1.3272-1.2426 1.3272-1.2452-0.80796-1.2452-1.2849c0-0.47691-0.28917-1.2029-1.2637-1.2029-0.97456 0-1.2452 0.80697-1.2452 1.3668s-0.18688 1.0575-1.2029 1.0575-1.388-0.58055-1.388-1.4514-0.18632-1.0786-1.306-1.0786c-1.1197 0-1.1632-0.4965-1.1632-1.2637 0-0.76721-0.16501-1.2241-1.4091-1.2241-1.2441 0-1.1606-0.80753-1.1606-1.2637 0-0.45617 0.0418-1.3483-1.306-1.3483-1.3478 0-1.1606 0.95336-1.1606 1.4303s-0.0633 1.1606-1.2452 1.1606c-1.1819 0-1.306 0.74657-1.306 1.3272 0 0.58057 0.37251 1.2029 1.2849 1.2029 0.91234 0 1.2849 0.64472 1.2849 1.2875 0 0.64278-0.26843 1.2214-1.2637 1.2214s-1.1606 0.8291-1.1606 1.306c0 0.4769 0.28859 1.2029 1.3668 1.2029 1.0782 0 1.0786 1.0387 1.0786 1.2875s0.24839 1.306-1.0786 1.306c-1.327 0-1.3272 0.93361-1.3272 1.3483s0.41704 1.1394 1.3086 1.1394 1.0972 0.68479 1.0972 1.3483-0.37334 1.1183-1.3272 1.1183c-0.95381 0-1.2241 1.0174-1.2241 1.3906 0 0.37324 0.0854 1.1606 1.1844 1.1606 1.099 0 1.1394 0.97549 1.1394 1.3694 0 0.39397-0.29055 1.1183-1.2029 1.1183-0.91234 0-1.121-0.74715-1.121-1.224 0-0.47691-0.26717-1.0972-1.2002-1.0972-0.93309 0-1.2029 0.93195-1.2029 1.2637s0.26884 1.0786 1.2849 1.0786 1.1183 0.76788 1.1183 1.224-0.12203 1.2849-1.2002 1.2849c-1.0782 0-1.3695 0.84984-1.3695 1.306s0.10322 1.2452 1.4303 1.2452c1.327 0 1.0575 0.76731 1.0575 1.3272s0.60195 1.2029 1.618 1.2029 0.86979-0.6656 0.86979-1.1632 0.66365-1.1818 1.3272-1.1818c0.66352 0 1.0998 0.68494 1.0998 1.2241 0 0.53911-0.24811 1.0786-1.2849 1.0786-1.0367 0-1.0998 0.78681-1.0998 1.2637 0 0.47691 0.55981 1.2452 1.4514 1.2452s1.0998-0.60076 1.0998-1.1606c0-0.55984 0.2068-1.1209 1.1606-1.1209 0.95382 0 1.2024 0.80769 1.1818 1.1394s-0.0633 1.1421-1.2452 1.1421-1.0575 0.91245-1.0575 1.3272c0 0.41471 0.20731 1.2029 1.4514 1.2029 1.2441 0 1.0178 0.85066 1.0178 1.3483 0 0.49764-0.0221 1.2214 1.1183 1.2214 1.1404 0 1.3483 0.89338 1.3483 1.4118 0 0.51838-0.12427 1.076-1.1818 1.076-1.0574 0-1.1209 0.74839-1.1209 1.2875s0.2904 1.2214 1.3272 1.2214c1.0367 0 1.039 0.41481 1.039 1.3272 0 0.91234 0.26884 1.1818 1.2849 1.1818 1.016 0 1.2637 0.4567 1.2637 1.3483s1.2029 1.2452 1.2029 1.2452zm25.272-0.2115a1.2055 1.24 0 0 0 1.2055-1.2399 1.2055 1.24 0 0 0-1.2055-1.2399 1.2055 1.24 0 0 0-1.2056 1.2399 1.2055 1.24 0 0 0 1.2056 1.2399zm-30.181-0.0502a1.1093 1.141 0 0 0 1.1104-1.1394 1.1093 1.141 0 0 0-1.1104-1.1421 1.1093 1.141 0 0 0-1.1077 1.1421 1.1093 1.141 0 0 0 1.1077 1.1394zm25.187-0.10839a1.0263 1.0557 0 0 0 1.0258-1.0548 1.0263 1.0557 0 0 0-1.0258-1.0575 1.0263 1.0557 0 0 0-1.0258 1.0575 1.0263 1.0557 0 0 0 1.0258 1.0548zm9.9114-0.12954a0.86046 0.88504 0 0 0 0.86186-0.88566 0.86046 0.88504 0 0 0-0.86186-0.88301 0.86046 0.88504 0 0 0-0.85922 0.88301 0.86046 0.88504 0 0 0 0.85922 0.88566zm-25.256-0.037a0.86507 0.88978 0 0 0 0.86451-0.88829 0.86507 0.88978 0 0 0-0.86451-0.89095 0.86507 0.88978 0 0 0-0.8645 0.89095 0.86507 0.88978 0 0 0 0.8645 0.88829zm10.326-0.12954a0.77752 0.79973 0 0 0 0.77726-0.80105 0.77752 0.79973 0 0 0-0.77726-0.79841 0.77752 0.79973 0 0 0-0.77726 0.79841 0.77752 0.79973 0 0 0 0.77726 0.80105zm-25.256-0.16656a0.45612 0.46915 0 0 0 0.45736-0.46794 0.45612 0.46915 0 0 0-0.45736-0.47058 0.45612 0.46915 0 0 0-0.45473 0.47058 0.45612 0.46915 0 0 0 0.45473 0.46794zm20.114 0a0.53561 0.55091 0 0 0 0.53668-0.55254 0.53561 0.55091 0 0 0-0.53668-0.5499 0.53561 0.55091 0 0 0-0.53668 0.5499 0.53561 0.55091 0 0 0 0.53668 0.55254zm25.118-0.0978a0.3595 0.36978 0 0 0 0.35955-0.37013 0.3595 0.36978 0 0 0-0.35955-0.37012 0.3595 0.36978 0 0 0-0.35955 0.37012 0.3595 0.36978 0 0 0 0.35955 0.37013zm-35.051-1.5459a1.2314 1.2666 0 0 1-1.232-1.2664 1.2314 1.2666 0 0 1 1.232-1.2664 1.2314 1.2666 0 0 1 1.2293 1.2664 1.2314 1.2666 0 0 1-1.2293 1.2664zm27.516-0.3384a1.0263 1.0557 0 0 0 1.0258-1.0575 1.0263 1.0557 0 0 0-1.0258-1.0548 1.0263 1.0557 0 0 0-1.0258 1.0548 1.0263 1.0557 0 0 0 1.0258 1.0575zm-35.096-0.0423a1.0263 1.0557 0 0 0 1.0258-1.0549 1.0263 1.0557 0 0 0-1.0258-1.0575 1.0263 1.0557 0 0 0-1.0258 1.0575 1.0263 1.0557 0 0 0 1.0258 1.0549zm14.956-0.0582a1.0263 1.0557 0 0 0 1.0258-1.0575 1.0263 1.0557 0 0 0-1.0258-1.0549 1.0263 1.0557 0 0 0-1.0284 1.0549 1.0263 1.0557 0 0 0 1.0284 1.0575zm5.0416 0a1.0263 1.0557 0 0 0 1.0284-1.0575 1.0263 1.0557 0 0 0-1.0284-1.0549 1.0263 1.0557 0 0 0-1.0258 1.0549 1.0263 1.0557 0 0 0 1.0258 1.0575zm20.132-0.39128a0.51833 0.53314 0 0 0 0.51817-0.53139 0.51833 0.53314 0 0 0-0.51817-0.53404 0.51833 0.53314 0 0 0-0.51817 0.53404 0.51833 0.53314 0 0 0 0.51817 0.53139zm-45.274-0.29874a0.24965 0.25678 0 0 0 0.25116-0.25909 0.24965 0.25678 0 0 0-0.25116-0.25644 0.24965 0.25678 0 0 0-0.24851 0.25644 0.24965 0.25678 0 0 0 0.24851 0.25909zm50.427-0.0661a0.1536 0.15799 0 0 0 0.15333-0.15862 0.1536 0.15799 0 0 0-0.15333-0.15862 0.1536 0.15799 0 0 0-0.15334 0.15862 0.1536 0.15799 0 0 0 0.15334 0.15862zm-12.674-1.4038a1.2642 1.3003 0 0 0 1.2637-1.3007 1.2642 1.3003 0 0 0-1.2637-1.3007 1.2642 1.3003 0 0 0-1.2637 1.3007 1.2642 1.3003 0 0 0 1.2637 1.3007zm-27.807-0.0132a1.1507 1.1836 0 0 1-1.1527-1.1818 1.1507 1.1836 0 0 1 1.1527-1.1844 1.1507 1.1836 0 0 1 1.15 1.1844 1.1507 1.1836 0 0 1-1.15 1.1818zm32.801-0.47323a0.70495 0.72509 0 0 0 0.70324-0.72439 0.70495 0.72509 0 0 0-0.70324-0.72438 0.70495 0.72509 0 0 0-0.70588 0.72438 0.70495 0.72509 0 0 0 0.70588 0.72439zm-40.121-0.11633a0.66347 0.68243 0 0 0 0.66358-0.68208 0.66347 0.68243 0 0 0-0.66358-0.68209 0.66347 0.68243 0 0 0-0.66093 0.68209 0.66347 0.68243 0 0 0 0.66093 0.68208zm45.274-0.43886a0.27656 0.28447 0 0 0 0.27759-0.28552 0.27656 0.28447 0 0 0-0.27759-0.28288 0.27656 0.28447 0 0 0-0.27495 0.28288 0.27656 0.28447 0 0 0 0.27495 0.28552zm-50.469-0.10575a0.1667 0.17147 0 0 0 0.16655-0.1692 0.1667 0.17147 0 0 0-0.16655-0.17184 0.1667 0.17147 0 0 0-0.16656 0.17184 0.1667 0.17147 0 0 0 0.16656 0.1692zm20.352-1.3536a1.1507 1.1836 0 0 1-1.15-1.1844 1.1507 1.1836 0 0 1 1.15-1.1818 1.1507 1.1836 0 0 1 1.1527 1.1818 1.1507 1.1836 0 0 1-1.1527 1.1844zm9.9114-0.12426a1.0298 1.0592 0 0 1-1.0284-1.0601 1.0298 1.0592 0 0 1 1.0284-1.0575 1.0298 1.0592 0 0 1 1.0311 1.0575 1.0298 1.0592 0 0 1-1.0311 1.0601zm5.1421-0.0423a1.1911 1.2251 0 0 1-1.1897-1.224 1.1911 1.2251 0 0 1 1.1897-1.2241 1.1911 1.2251 0 0 1 1.1923 1.2241 1.1911 1.2251 0 0 1-1.1923 1.224zm-20.235-0.1269a0.86507 0.88978 0 0 1-0.86714-0.89094 0.86507 0.88978 0 0 1 0.86714-0.8883 0.86507 0.88978 0 0 1 0.86451 0.8883 0.86507 0.88978 0 0 1-0.86451 0.89094zm-7.4157-0.0238a1.0678 1.0983 0 0 0 1.0681-1.0972 1.0678 1.0983 0 0 0-1.0681-1.0972 1.0678 1.0983 0 0 0-1.0681 1.0972 1.0678 1.0983 0 0 0 1.0681 1.0972zm35.032-0.0661a0.9123 0.93837 0 0 0 0.91209-0.93853 0.9123 0.93837 0 0 0-0.91209-0.93852 0.9123 0.93837 0 0 0-0.91209 0.93852 0.9123 0.93837 0 0 0 0.91209 0.93853zm-40.119-0.37805a0.45612 0.46915 0 0 0 0.45473-0.46794 0.45612 0.46915 0 0 0-0.45473-0.47059 0.45612 0.46915 0 0 0-0.45736 0.47059 0.45612 0.46915 0 0 0 0.45736 0.46794zm45.211-0.18506a0.31688 0.32594 0 0 0 0.31725-0.32518 0.31688 0.32594 0 0 0-0.31725-0.32783 0.31688 0.32594 0 0 0-0.31725 0.32783 0.31688 0.32594 0 0 0 0.31725 0.32518zm-25.121-1.7502a0.94916 0.97628 0 0 1-0.94911-0.97554 0.94916 0.97628 0 0 1 0.94911-0.97554 0.94916 0.97628 0 0 1 0.9491 0.97554 0.94916 0.97628 0 0 1-0.9491 0.97554zm10.16-0.082a1.1507 1.1836 0 0 1-1.15-1.1844 1.1507 1.1836 0 0 1 1.15-1.1818 1.1507 1.1836 0 0 1 1.1527 1.1818 1.1507 1.1836 0 0 1-1.1527 1.1844zm7.2888-0.0106a0.96932 0.99701 0 0 0 0.96761-0.99669 0.96932 0.99701 0 0 0-0.96761-0.99669 0.96932 0.99701 0 0 0-0.97026 0.99669 0.96932 0.99701 0 0 0 0.97026 0.99669zm-35.191-0.0582a1.0263 1.0557 0 0 0 1.0284-1.0549 1.0263 1.0557 0 0 0-1.0284-1.0548 1.0263 1.0557 0 0 0-1.0258 1.0548 1.0263 1.0557 0 0 0 1.0258 1.0549zm7.5003-0.0582a0.86507 0.88978 0 0 1-0.86715-0.89094 0.86507 0.88978 0 0 1 0.86715-0.8883 0.86507 0.88978 0 0 1 0.8645 0.8883 0.86507 0.88978 0 0 1-0.8645 0.89094zm5.2663-0.0449a0.78212 0.80447 0 0 1-0.78255-0.8037 0.78212 0.80447 0 0 1 0.78255-0.80634 0.78212 0.80447 0 0 1 0.78255 0.80634 0.78212 0.80447 0 0 1-0.78255 0.8037zm9.9934-0.0423a0.78212 0.80447 0 0 1-0.78255-0.8037 0.78212 0.80447 0 0 1 0.78255-0.8037 0.78212 0.80447 0 0 1 0.78255 0.8037 0.78212 0.80447 0 0 1-0.78255 0.8037zm-27.638-0.4653a0.41465 0.4265 0 0 0 0.41507-0.42564 0.41465 0.4265 0 0 0-0.41507-0.42829 0.41465 0.4265 0 0 0-0.41507 0.42829 0.41465 0.4265 0 0 0 0.41507 0.42564zm45.211-0.0185a0.31688 0.32594 0 0 0 0.31725-0.32518 0.31688 0.32594 0 0 0-0.31725-0.32518 0.31688 0.32594 0 0 0-0.31725 0.32518 0.31688 0.32594 0 0 0 0.31725 0.32518zm-50.326-0.1877a0.1667 0.17147 0 0 0 0.16655-0.1692 0.1667 0.17147 0 0 0-0.16655-0.17184 0.1667 0.17147 0 0 0-0.16656 0.17184 0.1667 0.17147 0 0 0 0.16656 0.1692zm14.921-1.3536a1.1507 1.1836 0 0 1-1.15-1.1844 1.1507 1.1836 0 0 1 1.15-1.1818 1.1507 1.1836 0 0 1 1.15 1.1818 1.1507 1.1836 0 0 1-1.15 1.1844zm27.799-0.0582a1.0263 1.0557 0 0 0 1.0258-1.0548 1.0263 1.0557 0 0 0-1.0258-1.0549 1.0263 1.0557 0 0 0-1.0258 1.0549 1.0263 1.0557 0 0 0 1.0258 1.0548zm-35.072-0.35162a1.0263 1.0557 0 0 0 1.0258-1.0548 1.0263 1.0557 0 0 0-1.0258-1.0575 1.0263 1.0557 0 0 0-1.0258 1.0575 1.0263 1.0557 0 0 0 1.0258 1.0548zm27.759-0.0106a0.98372 1.0118 0 0 1-0.98348-1.0126 0.98372 1.0118 0 0 1 0.98348-1.0126 0.98372 1.0118 0 0 1 0.98347 1.0126 0.98372 1.0118 0 0 1-0.98347 1.0126zm-5.1421-0.25645a0.65426 0.67295 0 0 1-0.65301-0.67151 0.65426 0.67295 0 0 1 0.65301-0.67415 0.65426 0.67295 0 0 1 0.653 0.67415 0.65426 0.67295 0 0 1-0.653 0.67151zm-10.16-0.12425a0.5333 0.54854 0 0 1-0.53403-0.54726 0.5333 0.54854 0 0 1 0.53403-0.54989 0.5333 0.54854 0 0 1 0.53404 0.54989 0.5333 0.54854 0 0 1-0.53404 0.54726zm5.0601 0a0.5333 0.54854 0 0 1-0.53404-0.54726 0.5333 0.54854 0 0 1 0.53404-0.54989 0.5333 0.54854 0 0 1 0.53139 0.54989 0.5333 0.54854 0 0 1-0.53139 0.54726zm22.673-0.0132a0.47743 0.49107 0 0 0 0.47587-0.49174 0.47743 0.49107 0 0 0-0.47587-0.48909 0.47743 0.49107 0 0 0-0.47852 0.48909 0.47743 0.49107 0 0 0 0.47852 0.49174zm-45.335-0.074a0.41465 0.4265 0 0 0 0.41243-0.42564 0.41465 0.4265 0 0 0-0.41243-0.42564 0.41465 0.4265 0 0 0-0.41506 0.42564 0.41465 0.4265 0 0 0 0.41506 0.42564zm80.75-0.11103h6.5115v-1.3589h-6.5115c-4.2189 0-4.8989-1.1356-4.8989-3.8546v-10.081c0-2.6679 0.67995-3.7832 4.8989-3.7832h6.5115v-1.3589h-6.5115c-4.6799 0-6.2604 1.2972-6.2604 5.1421v10.081c0 3.9 1.5805 5.2135 6.2604 5.2135zm13.145 0h8.7085c2.8829 0 4.6028-1.7198 4.6028-4.6028v-2.4825c0-1.4249-0.1525-2.824-1.0284-3.762 2.9569-0.441 3.6193-2.504 3.6193-4.267v-5.3218h-1.3589v5.3218c0 2.123-1.045 3.0297-3.495 3.0297h-9.6893v-8.3516h-1.3589zm23.186 0h13.129v-1.3589h-11.77v-8.037h8.8539v-1.3562h-8.8539v-8.3225h11.77v-1.3615h-13.129zm25.338 0h3.5268c1.938 0 2.4812-1.3214 3.0562-2.7204l2.4798-5.8638c0.441-1.159 0.65301-2.3594 0.65301-3.6854v-8.1665h-1.3589v6.1916h-13.039v-6.1916h-1.3615v8.1665c0 1.325 0.21108 2.5265 0.64508 3.6695l2.3027 5.9061c0.538 1.328 1.0948 2.694 3.0958 2.694zm13.684 0h16.122v-1.3589h-7.3813v-19.077h-1.3589v19.077h-7.3813zm20.917 0h12.447v-1.3589h-5.5096v-17.716h5.5096v-1.3615h-12.447v1.3615h5.5783v17.716h-5.5783zm19.043 0h1.3589v-8.2723c0-1.236 0.17732-2.2709 0.53932-3.1619l2.3741-5.7554c0.511-1.276 0.80227-1.885 1.8083-1.885h3.1672c1.006 0 1.294 0.60967 1.803 1.8797l2.3767 5.7634c0.361 0.888 0.53932 1.9233 0.53932 3.1593v8.2723h1.3589v-8.2723c0-1.522-0.18834-2.6604-0.61334-3.6854l-2.3741-5.7581c-0.611-1.489-1.2655-2.7204-3.0905-2.7204h-3.1698c-1.825 0-2.4785 1.2304-3.0905 2.7204l-2.3741 5.7581c-0.425 1.024-0.61335 2.1634-0.61335 3.6854zm23.077 0h13.129v-1.3589h-11.77v-8.037h8.8565v-1.3562h-8.8565v-8.3225h11.77v-1.3615h-13.129zm-224.13-0.21679a0.1667 0.17147 0 0 0 0.16655-0.17184 0.1667 0.17147 0 0 0-0.16655-0.17185 0.1667 0.17147 0 0 0-0.16656 0.17185 0.1667 0.17147 0 0 0 0.16656 0.17184zm100.25-1.1421v-9.4012h7.347c2.4249 0 3.2439 0.91584 3.2439 3.6378v2.5195c0 1.48-0.56294 3.2439-3.2439 3.2439zm47.164 0c-1.031 0-1.34-0.53138-1.84-1.8374l-2.3027-5.9061c-0.364-0.983-0.54196-2.0222-0.54196-3.1672v-0.61599h13.039v0.61599c0 1.143-0.17862 2.1831-0.54462 3.1751l-2.4745 5.8453c-0.562 1.314-0.85295 1.8903-1.811 1.8903zm-104.79-0.3384a1.0263 1.0557 0 0 0 1.0258-1.0548 1.0263 1.0557 0 0 0-1.0258-1.0575 1.0263 1.0557 0 0 0-1.0258 1.0575 1.0263 1.0557 0 0 0 1.0258 1.0548zm-34.895-0.17713a1.0263 1.0557 0 0 0 1.0258-1.0548 1.0263 1.0557 0 0 0-1.0258-1.0548 1.0263 1.0557 0 0 0-1.0284 1.0548 1.0263 1.0557 0 0 0 1.0284 1.0548zm27.593-0.11896a0.86276 0.88741 0 0 1-0.8645-0.88566 0.86276 0.88741 0 0 1 0.8645-0.8883 0.86276 0.88741 0 0 1 0.86186 0.8883 0.86276 0.88741 0 0 1-0.86186 0.88566zm-15.262-0.2961a0.5333 0.54854 0 0 1-0.53403-0.5499 0.5333 0.54854 0 0 1 0.53403-0.54726 0.5333 0.54854 0 0 1 0.53404 0.54726 0.5333 0.54854 0 0 1-0.53404 0.5499zm27.815-0.0132a0.47743 0.49107 0 0 0 0.47852-0.49174 0.47743 0.49107 0 0 0-0.47852-0.49173 0.47743 0.49107 0 0 0-0.47587 0.49173 0.47743 0.49107 0 0 0 0.47587 0.49174zm-22.63-0.11633a0.32595 0.33526 0 0 1-0.32782-0.33575 0.32595 0.33526 0 0 1 0.32782-0.33576 0.32595 0.33526 0 0 1 0.32518 0.33576 0.32595 0.33526 0 0 1-0.32518 0.33575zm-22.728-0.0185a0.45382 0.46678 0 0 0 0.45473-0.4653 0.45382 0.46678 0 0 0-0.45473-0.46794 0.45382 0.46678 0 0 0-0.45472 0.46794 0.45382 0.46678 0 0 0 0.45472 0.4653zm27.661-0.0212a0.40889 0.42057 0 0 1-0.40714-0.42036 0.40889 0.42057 0 0 1 0.40714-0.42035 0.40889 0.42057 0 0 1 0.40978 0.42035 0.40889 0.42057 0 0 1-0.40978 0.42036zm-32.711-0.20622a0.1667 0.17147 0 0 0 0.16655-0.16919 0.1667 0.17147 0 0 0-0.16655-0.17185 0.1667 0.17147 0 0 0-0.16656 0.17185 0.1667 0.17147 0 0 0 0.16656 0.16919zm42.636-1.4964a1.0834 1.1143 0 0 0 1.0839-1.113 1.0834 1.1143 0 0 0-1.0839-1.1157 1.0834 1.1143 0 0 0-1.0839 1.1157 1.0834 1.1143 0 0 0 1.0839 1.113zm-35.014-0.2353a1.0263 1.0557 0 0 0 1.0258-1.0548 1.0263 1.0557 0 0 0-1.0258-1.0548 1.0263 1.0557 0 0 0-1.0258 1.0548 1.0263 1.0557 0 0 0 1.0258 1.0548zm27.743-0.20885a0.78212 0.80447 0 0 1-0.7799-0.8037 0.78212 0.80447 0 0 1 0.7799-0.8037 0.78212 0.80447 0 0 1 0.78255 0.8037 0.78212 0.80447 0 0 1-0.78255 0.8037zm-15.26-0.0872a0.65771 0.67651 0 0 1-0.65829-0.67415 0.65771 0.67651 0 0 1 0.65829-0.6768 0.65771 0.67651 0 0 1 0.65829 0.6768 0.65771 0.67651 0 0 1-0.65829 0.67415zm27.712-0.11896a0.47743 0.49107 0 0 0 0.47588-0.49174 0.47743 0.49107 0 0 0-0.47588-0.49174 0.47743 0.49107 0 0 0-0.47852 0.49174 0.47743 0.49107 0 0 0 0.47852 0.49174zm-45.256-0.19829a0.39161 0.4028 0 0 0 0.39128-0.40184 0.39161 0.4028 0 0 0-0.39128-0.4045 0.39161 0.4028 0 0 0-0.39127 0.4045 0.39161 0.4028 0 0 0 0.39127 0.40184zm22.604-0.0238a0.28448 0.29261 0 0 1-0.28552-0.29345 0.28448 0.29261 0 0 1 0.28552-0.29082 0.28448 0.29261 0 0 1 0.28288 0.29082 0.28448 0.29261 0 0 1-0.28288 0.29345zm5.0575-0.0423a0.28448 0.29261 0 0 1-0.28288-0.29081 0.28448 0.29261 0 0 1 0.28288-0.29346 0.28448 0.29261 0 0 1 0.28553 0.29346 0.28448 0.29261 0 0 1-0.28553 0.29081zm22.683-0.15069a0.14064 0.14466 0 0 0 0.14276-0.14541 0.14064 0.14466 0 0 0-0.14276-0.1454 0.14064 0.14466 0 0 0-0.14012 0.1454 0.14064 0.14466 0 0 0 0.14012 0.14541zm-40.473-1.3642a1.1507 1.1836 0 0 1-1.15-1.1818 1.1507 1.1836 0 0 1 1.15-1.1844 1.1507 1.1836 0 0 1 1.15 1.1844 1.1507 1.1836 0 0 1-1.15 1.1818zm-7.3417-0.54726a0.76081 0.78255 0 0 0 0.75876-0.78255 0.76081 0.78255 0 0 0-0.75876-0.78254 0.76081 0.78255 0 0 0-0.76139 0.78254 0.76081 0.78255 0 0 0 0.76139 0.78255zm12.441 0a0.65771 0.67651 0 0 1-0.65829-0.6768 0.65771 0.67651 0 0 1 0.65829-0.67679 0.65771 0.67651 0 0 1 0.65829 0.67679 0.65771 0.67651 0 0 1-0.65829 0.6768zm15.262-0.082a0.65771 0.67651 0 0 1-0.6583-0.6768 0.65771 0.67651 0 0 1 0.6583-0.6768 0.65771 0.67651 0 0 1 0.65829 0.6768 0.65771 0.67651 0 0 1-0.65829 0.6768zm12.471-0.16392a0.47743 0.49107 0 0 0 0.47852-0.48909 0.47743 0.49107 0 0 0-0.47852-0.49173 0.47743 0.49107 0 0 0-0.47852 0.49173 0.47743 0.49107 0 0 0 0.47852 0.48909zm-22.63-0.26173a0.28448 0.29261 0 0 1-0.28552-0.29345 0.28448 0.29261 0 0 1 0.28552-0.29346 0.28448 0.29261 0 0 1 0.28288 0.29346 0.28448 0.29261 0 0 1-0.28288 0.29345zm-22.657-0.0344a0.20818 0.21412 0 0 0 0.20885-0.21414 0.20818 0.21412 0 0 0-0.20885-0.21414 0.20818 0.21412 0 0 0-0.20622 0.21414 0.20818 0.21412 0 0 0 0.20622 0.21414zm27.714-0.0106a0.16007 0.16464 0 0 1-0.15862-0.16656 0.16007 0.16464 0 0 1 0.15862-0.16391 0.16007 0.16464 0 0 1 0.16127 0.16391 0.16007 0.16464 0 0 1-0.16127 0.16656zm22.665-5e-3a0.14064 0.14466 0 0 0 0.14012-0.14276 0.14064 0.14466 0 0 0-0.14012-0.14541 0.14064 0.14466 0 0 0-0.14276 0.14541 0.14064 0.14466 0 0 0 0.14276 0.14276zm-14.95-1.5889a1.1911 1.2251 0 0 1-1.1897-1.2267 1.1911 1.2251 0 0 1 1.1897-1.2241 1.1911 1.2251 0 0 1 1.1923 1.2241 1.1911 1.2251 0 0 1-1.1923 1.2267zm-27.786-0.0872a1.0263 1.0557 0 0 0 1.0258-1.0548 1.0263 1.0557 0 0 0-1.0258-1.0575 1.0263 1.0557 0 0 0-1.0258 1.0575 1.0263 1.0557 0 0 0 1.0258 1.0548zm7.3813-0.1692a0.78212 0.80447 0 0 1-0.77991-0.8037 0.78212 0.80447 0 0 1 0.77991-0.8037 0.78212 0.80447 0 0 1 0.78254 0.8037 0.78212 0.80447 0 0 1-0.78254 0.8037zm27.733-0.23529a0.59147 0.60837 0 0 0 0.5922-0.60806 0.59147 0.60837 0 0 0-0.5922-0.60807 0.59147 0.60837 0 0 0-0.5922 0.60807 0.59147 0.60837 0 0 0 0.5922 0.60806zm-12.428-0.14805a0.40889 0.42057 0 0 1-0.40978-0.42036 0.40889 0.42057 0 0 1 0.40978-0.42035 0.40889 0.42057 0 0 1 0.40714 0.42035 0.40889 0.42057 0 0 1-0.40714 0.42036zm-27.725-0.0397a0.45382 0.46678 0 0 0 0.45208-0.46794 0.45382 0.46678 0 0 0-0.45208-0.4653 0.45382 0.46678 0 0 0-0.45472 0.4653 0.45382 0.46678 0 0 0 0.45472 0.46794zm17.48-0.0449a0.32595 0.33526 0 0 1-0.32518-0.33576 0.32595 0.33526 0 0 1 0.32518-0.33575 0.32595 0.33526 0 0 1 0.32518 0.33575 0.32595 0.33526 0 0 1-0.32518 0.33576zm27.765-0.2353a0.18211 0.18731 0 0 0 0.18242-0.1877 0.18211 0.18731 0 0 0-0.18242-0.18771 0.18211 0.18731 0 0 0-0.18242 0.18771 0.18211 0.18731 0 0 0 0.18242 0.1877zm-7.7515-1.7396a0.92554 0.95199 0 0 0 0.92531-0.95175 0.92554 0.95199 0 0 0-0.92531-0.95174 0.92554 0.95199 0 0 0-0.92531 0.95174 0.92554 0.95199 0 0 0 0.92531 0.95175zm-7.1989-0.1269a0.78212 0.80447 0 0 1-0.78255-0.8037 0.78212 0.80447 0 0 1 0.78255-0.80634 0.78212 0.80447 0 0 1 0.78255 0.80634 0.78212 0.80447 0 0 1-0.78255 0.8037zm-15.344-0.1692a0.65771 0.67651 0 0 1-0.65829-0.6768 0.65771 0.67651 0 0 1 0.65829-0.67679 0.65771 0.67651 0 0 1 0.65829 0.67679 0.65771 0.67651 0 0 1-0.65829 0.6768zm-12.463-0.0264a0.59493 0.61193 0 0 0 0.59485-0.61334 0.59493 0.61193 0 0 0-0.59485-0.61071 0.59493 0.61193 0 0 0-0.59484 0.61071 0.59493 0.61193 0 0 0 0.59484 0.61334zm-5.0918-0.37012a0.20818 0.21412 0 0 0 0.20885-0.21414 0.20818 0.21412 0 0 0-0.20885-0.21415 0.20818 0.21412 0 0 0-0.20622 0.21415 0.20818 0.21412 0 0 0 0.20622 0.21414zm45.34-0.0132a0.24259 0.24952 0 0 0 0.24322-0.25115 0.24259 0.24952 0 0 0-0.24322-0.24852 0.24259 0.24952 0 0 0-0.24323 0.24852 0.24259 0.24952 0 0 0 0.24323 0.25115zm-22.683-0.1031a0.16007 0.16464 0 0 1-0.16127-0.16392 0.16007 0.16464 0 0 1 0.16127-0.16391 0.16007 0.16464 0 0 1 0.15863 0.16391 0.16007 0.16464 0 0 1-0.15863 0.16392zm5.0178 0a0.16007 0.16464 0 0 1-0.16127-0.16392 0.16007 0.16464 0 0 1 0.16127-0.16391 0.16007 0.16464 0 0 1 0.15862 0.16391 0.16007 0.16464 0 0 1-0.15862 0.16392zm-12.69-1.3404a1.1945 1.2287 0 0 1-1.195-1.2293 1.1945 1.2287 0 0 1 1.195-1.2293 1.1945 1.2287 0 0 1 1.195 1.2293 1.1945 1.2287 0 0 1-1.195 1.2293zm20.486-0.1692a1.1507 1.1836 0 0 1-1.1527-1.1844 1.1507 1.1836 0 0 1 1.1527-1.1844 1.1507 1.1836 0 0 1 1.15 1.1844 1.1507 1.1836 0 0 1-1.15 1.1844zm-27.844-0.38334a0.69746 0.71738 0 0 0 0.69531-0.7191 0.69746 0.71738 0 0 0-0.69531-0.71646 0.69746 0.71738 0 0 0-0.69794 0.71646 0.69746 0.71738 0 0 0 0.69794 0.7191zm35.127-0.20357a0.56052 0.57653 0 0 0 0.56048-0.57634 0.56052 0.57653 0 0 0-0.56048-0.57633 0.56052 0.57653 0 0 0-0.56047 0.57633 0.56052 0.57653 0 0 0 0.56047 0.57634zm-12.468-0.0925a0.40889 0.42057 0 0 1-0.40978-0.423 0.40889 0.42057 0 0 1 0.40978-0.42036 0.40889 0.42057 0 0 1 0.40978 0.42036 0.40889 0.42057 0 0 1-0.40978 0.423zm-10.118-0.0423a0.40889 0.42057 0 0 1-0.40978-0.42036 0.40889 0.42057 0 0 1 0.40978-0.42035 0.40889 0.42057 0 0 1 0.40714 0.42035 0.40889 0.42057 0 0 1-0.40714 0.42036zm-17.597-0.12162a0.26808 0.27574 0 0 0 0.26701-0.27494 0.26808 0.27574 0 0 0-0.26701-0.2776 0.26808 0.27574 0 0 0-0.26702 0.2776 0.26808 0.27574 0 0 0 0.26702 0.27494zm22.697-0.21678a0.16007 0.16464 0 0 1-0.16127-0.16656 0.16007 0.16464 0 0 1 0.16127-0.16391 0.16007 0.16464 0 0 1 0.15862 0.16391 0.16007 0.16464 0 0 1-0.15862 0.16656zm-15.03-1.5968a0.92554 0.95199 0 0 0 0.92531-0.95439 0.92554 0.95199 0 0 0-0.92531-0.95175 0.92554 0.95199 0 0 0-0.92531 0.95175 0.92554 0.95199 0 0 0 0.92531 0.95439zm29.901 0a1.0465 1.0764 0 0 0 1.0443-1.0786 1.0465 1.0764 0 0 0-1.0443-1.076 1.0465 1.0764 0 0 0-1.0469 1.076 1.0465 1.0764 0 0 0 1.0469 1.0786zm-22.625-0.2115a0.78212 0.80447 0 0 1-0.78255-0.8037 0.78212 0.80447 0 0 1 0.78255-0.8037 0.78212 0.80447 0 0 1 0.77991 0.8037 0.78212 0.80447 0 0 1-0.77991 0.8037zm15.384-0.1269a0.65771 0.67651 0 0 1-0.65829-0.6768 0.65771 0.67651 0 0 1 0.65829-0.6768 0.65771 0.67651 0 0 1 0.65829 0.6768 0.65771 0.67651 0 0 1-0.65829 0.6768zm-27.86-0.33576a0.28881 0.29706 0 0 0 0.29081-0.2961 0.28881 0.29706 0 0 0-0.29081-0.29874 0.28881 0.29706 0 0 0-0.28817 0.29874 0.28881 0.29706 0 0 0 0.28817 0.2961zm40.267-0.0185a0.35317 0.36326 0 0 0 0.35426-0.36484 0.35317 0.36326 0 0 0-0.35426-0.36219 0.35317 0.36326 0 0 0-0.35162 0.36219 0.35317 0.36326 0 0 0 0.35162 0.36484zm-17.631-0.0291a0.32595 0.33526 0 0 1-0.32783-0.33576 0.32595 0.33526 0 0 1 0.32783-0.33576 0.32595 0.33526 0 0 1 0.32518 0.33576 0.32595 0.33526 0 0 1-0.32518 0.33576zm-5.0178-0.082a0.32595 0.33526 0 0 1-0.32782-0.33576 0.32595 0.33526 0 0 1 0.32782-0.33575 0.32595 0.33526 0 0 1 0.32518 0.33575 0.32595 0.33526 0 0 1-0.32518 0.33576zm-7.7567-1.5122a1.1945 1.2287 0 0 1-1.1923-1.2293 1.1945 1.2287 0 0 1 1.1923-1.2293 1.1945 1.2287 0 0 1 1.195 1.2293 1.1945 1.2287 0 0 1-1.195 1.2293zm20.486-0.2538a0.94916 0.97628 0 0 1-0.9491-0.97554 0.94916 0.97628 0 0 1 0.9491-0.97554 0.94916 0.97628 0 0 1 0.94911 0.97554 0.94916 0.97628 0 0 1-0.94911 0.97554zm7.2809-0.12954a0.80113 0.82402 0 0 0 0.80106-0.82485 0.80113 0.82402 0 0 0-0.80106-0.82485 0.80113 0.82402 0 0 0-0.80105 0.82485 0.80113 0.82402 0 0 0 0.80105 0.82485zm-22.583-0.3384a0.5333 0.54854 0 0 1-0.53404-0.5499 0.5333 0.54854 0 0 1 0.53404-0.54726 0.5333 0.54854 0 0 1 0.53404 0.54726 0.5333 0.54854 0 0 1-0.53404 0.5499zm5.0601 0a0.5333 0.54854 0 0 1-0.53403-0.5499 0.5333 0.54854 0 0 1 0.53403-0.54726 0.5333 0.54854 0 0 1 0.53404 0.54726 0.5333 0.54854 0 0 1-0.53404 0.5499zm-17.523-0.045a0.45382 0.46678 0 0 0 0.45208-0.4653 0.45382 0.46678 0 0 0-0.45208-0.46794 0.45382 0.46678 0 0 0-0.45473 0.46794 0.45382 0.46678 0 0 0 0.45473 0.4653zm22.665-0.0396a0.5333 0.54854 0 0 1-0.53403-0.54726 0.5333 0.54854 0 0 1 0.53403-0.5499 0.5333 0.54854 0 0 1 0.53404 0.5499 0.5333 0.54854 0 0 1-0.53404 0.54726zm17.541-0.24058a0.18211 0.18731 0 0 0 0.18242-0.18507 0.18211 0.18731 0 0 0-0.18242-0.1877 0.18211 0.18731 0 0 0-0.18242 0.1877 0.18211 0.18731 0 0 0 0.18242 0.18507zm-9.8691-1.4461a1.1507 1.1836 0 0 1-1.15-1.1818 1.1507 1.1836 0 0 1 1.15-1.1844 1.1507 1.1836 0 0 1 1.15 1.1844 1.1507 1.1836 0 0 1-1.15 1.1818zm-27.72-0.29346a0.92554 0.95199 0 0 0 0.92531-0.95174 0.92554 0.95199 0 0 0-0.92531-0.95175 0.92554 0.95199 0 0 0-0.92531 0.95175 0.92554 0.95199 0 0 0 0.92531 0.95174zm7.3152-0.1269a0.86276 0.88741 0 0 1-0.86186-0.88829 0.86276 0.88741 0 0 1 0.86186-0.88566 0.86276 0.88741 0 0 1 0.8645 0.88566 0.86276 0.88741 0 0 1-0.8645 0.88829zm5.1421-0.16655a0.74181 0.763 0 0 1-0.74025-0.7614 0.74181 0.763 0 0 1 0.74025-0.76404 0.74181 0.763 0 0 1 0.74289 0.76404 0.74181 0.763 0 0 1-0.74289 0.7614zm5.0178 0a0.74181 0.763 0 0 1-0.74025-0.7614 0.74181 0.763 0 0 1 0.74025-0.76404 0.74181 0.763 0 0 1 0.74289 0.76404 0.74181 0.763 0 0 1-0.74289 0.7614zm5.0601-0.045a0.65771 0.67651 0 0 1-0.6583-0.67679 0.65771 0.67651 0 0 1 0.6583-0.67416 0.65771 0.67651 0 0 1 0.65829 0.67416 0.65771 0.67651 0 0 1-0.65829 0.67679zm12.502-0.0899a0.52422 0.5392 0 0 0 0.52346-0.53933 0.52422 0.5392 0 0 0-0.52346-0.53932 0.52422 0.5392 0 0 0-0.52347 0.53932 0.52422 0.5392 0 0 0 0.52347 0.53933zm-40.238-0.32783a0.20818 0.21412 0 0 0 0.20885-0.21414 0.20818 0.21412 0 0 0-0.20885-0.21414 0.20818 0.21412 0 0 0-0.20621 0.21414 0.20818 0.21412 0 0 0 0.20621 0.21414zm9.9458-1.5175a1.1945 1.2287 0 0 1-1.195-1.2293 1.1945 1.2287 0 0 1 1.195-1.2267 1.1945 1.2287 0 0 1 1.195 1.2267 1.1945 1.2287 0 0 1-1.195 1.2293zm10.242-0.0872a1.2314 1.2666 0 0 1-1.232-1.2664 1.2314 1.2666 0 0 1 1.232-1.2664 1.2314 1.2666 0 0 1 1.232 1.2664 1.2314 1.2666 0 0 1-1.232 1.2664zm17.441-0.12425a1.05 1.08 0 0 0 1.0522-1.0786 1.05 1.08 0 0 0-1.0522-1.0813 1.05 1.08 0 0 0-1.0496 1.0813 1.05 1.08 0 0 0 1.0496 1.0786zm-22.416-0.12426a0.94916 0.97628 0 0 1-0.94911-0.97554 0.94916 0.97628 0 0 1 0.94911-0.97554 0.94916 0.97628 0 0 1 0.9491 0.97554 0.94916 0.97628 0 0 1-0.9491 0.97554zm9.9537-0.0397a0.94916 0.97628 0 0 1-0.94911-0.97818 0.94916 0.97628 0 0 1 0.94911-0.97554 0.94916 0.97628 0 0 1 0.9491 0.97554 0.94916 0.97628 0 0 1-0.9491 0.97818zm5.0575-0.0899a0.74181 0.763 0 0 1-0.74025-0.76405 0.74181 0.763 0 0 1 0.74025-0.76139 0.74181 0.763 0 0 1 0.74289 0.76139 0.74181 0.763 0 0 1-0.74289 0.76405zm-27.64-0.17185a0.57823 0.59475 0 0 0 0.57633-0.59484 0.57823 0.59475 0 0 0-0.57633-0.59484 0.57823 0.59475 0 0 0-0.57898 0.59484 0.57823 0.59475 0 0 0 0.57898 0.59484zm40.235-0.21678a0.35317 0.36326 0 0 0 0.35426-0.3622 0.35317 0.36326 0 0 0-0.35426-0.36483 0.35317 0.36326 0 0 0-0.35426 0.36483 0.35317 0.36326 0 0 0 0.35426 0.3622zm-37.642-1.811a1.0633 1.0937 0 0 0 1.0628-1.0919 1.0633 1.0937 0 0 0-1.0628-1.0945 1.0633 1.0937 0 0 0-1.0628 1.0945 1.0633 1.0937 0 0 0 1.0628 1.0919zm7.5056-0.0714a1.0736 1.1042 0 0 1-1.0734-1.1051 1.0736 1.1042 0 0 1 1.0734-1.1051 1.0736 1.1042 0 0 1 1.0734 1.1051 1.0736 1.1042 0 0 1-1.0734 1.1051zm20.196-5e-3a1.0298 1.0592 0 0 1-1.0284-1.0575 1.0298 1.0592 0 0 1 1.0284-1.0601 1.0298 1.0592 0 0 1 1.031 1.0601 1.0298 1.0592 0 0 1-1.031 1.0575zm-5.2663-0.0396a1.0298 1.0592 0 0 1-1.0284-1.0601 1.0298 1.0592 0 0 1 1.0284-1.0601 1.0298 1.0592 0 0 1 1.0311 1.0601 1.0298 1.0592 0 0 1-1.0311 1.0601zm12.505-0.15598a0.80569 0.82871 0 0 0 0.80634-0.8275 0.80569 0.82871 0 0 0-0.80634-0.83013 0.80569 0.82871 0 0 0-0.80634 0.83013 0.80569 0.82871 0 0 0 0.80634 0.8275zm189.52-0.29346c5.327 0 7.8096-1.7045 7.8096-5.3615v-10.617c0-3.656-2.4826-5.3589-7.8096-5.3589-5.276 0-7.733 1.7029-7.733 5.3589v10.617c0 3.657 2.457 5.3615 7.733 5.3615zm-229.6-0.11632a0.38168 0.39258 0 0 0 0.3807-0.39128 0.38168 0.39258 0 0 0-0.3807-0.39392 0.38168 0.39258 0 0 0-0.3807 0.39392 0.38168 0.39258 0 0 0 0.3807 0.39128zm45.306-0.20357a0.18211 0.18731 0 0 0 0.18242-0.18771 0.18211 0.18731 0 0 0-0.18242-0.1877 0.18211 0.18731 0 0 0-0.18242 0.1877 0.18211 0.18731 0 0 0 0.18242 0.18771zm200.71-0.0767c0.422 0 0.62058-0.19759 0.89358-0.47059l12.394-13.94v14.374h1.3589v-20.436h-1.3589v4.0185l-12.859 14.419v-18.437h-1.3589v19.543c0 0.531 0.3986 0.9306 0.9306 0.9306zm-148.67-0.0344h9.2108c5.5159 0 6.2577-2.7859 6.2577-5.5069v-9.536c0-2.8019-0.75682-5.3959-6.2577-5.3959h-9.2108zm23.109 0h1.3615v-15.511c0-1.9769 0.75375-4 6.3397-4 5.618 0 6.3741 2.0231 6.3741 4v15.511h1.3589v-15.511c0-3.6559-2.456-5.3589-7.733-5.3589-5.2529 0-7.7012 1.703-7.7012 5.3589zm-43.053-3e-3h13.129v-1.3562h-11.77v-8.037h8.8539v-1.3589h-8.8539v-8.3225h11.77v-1.3615h-13.129zm72.28 0h6.5115v-1.3562h-6.5115c-4.217 0-4.8988-1.1383-4.8988-3.8572v-10.078c0-2.668 0.68183-3.7832 4.8988-3.7832h6.5115v-1.3615h-6.5115c-4.679 0-6.2577 1.2997-6.2577 5.1447v10.078c0 3.9 1.5788 5.2135 6.2577 5.2135zm18.575 0h3.5294c1.937 0 2.4775-1.3214 3.0535-2.7204l2.4825-5.8638c0.442-1.159 0.65036-2.3594 0.65036-3.6854v-8.1665h-1.3589v6.1916h-13.039v-6.1916h-1.3589v8.1665c0 1.325 0.21047 2.5255 0.64243 3.6695l2.3053 5.9061c0.538 1.328 1.0922 2.694 3.0932 2.694zm13.687 0h16.119v-1.3562h-7.3813v-19.08h-1.3589v19.08h-7.3787zm20.915 0h12.447v-1.3562h-5.5069v-17.721h5.5069v-1.3589h-12.447v1.3589h5.5783v17.721h-5.5783zm26.744-0.92531c-5.617 0-6.3767-2.0246-6.3767-4.0026v-10.617c0-1.978 0.75973-3.9973 6.3767-3.9973 5.682 0 6.4454 2.0193 6.4454 3.9973v10.617c0 1.978-0.76344 4.0026-6.4454 4.0026zm-212.08-0.39128a1.05 1.08 0 0 0 1.0496-1.0786 1.05 1.08 0 0 0-1.0496-1.0813 1.05 1.08 0 0 0-1.0496 1.0813 1.05 1.08 0 0 0 1.0496 1.0786zm17.851 0a1.2314 1.2666 0 0 1-1.232-1.2664 1.2314 1.2666 0 0 1 1.232-1.2664 1.2314 1.2666 0 0 1 1.232 1.2664 1.2314 1.2666 0 0 1-1.232 1.2664zm-12.708-0.0396a1.05 1.08 0 0 0 1.0496-1.0813 1.05 1.08 0 0 0-1.0496-1.0786 1.05 1.08 0 0 0-1.0496 1.0786 1.05 1.08 0 0 0 1.0496 1.0813zm76.042-3e-3v-17.716h7.8519c4.5249 0 4.8988 1.9085 4.8988 4.0344v9.5386c0 2.558-0.8189 4.1427-4.8988 4.1427zm69.554 0c-1.032 0-1.3374-0.53141-1.8374-1.8374l-2.3027-5.9061c-0.363-0.98396-0.54197-2.0242-0.54197-3.1672v-0.61335h13.039v0.61335c0 1.143-0.17861 2.1832-0.54461 3.1751l-2.4772 5.8453c-0.56299 1.314-0.85034 1.8903-1.8083 1.8903zm-158.19-0.0317a1.2394 1.2749 0 0 1-1.2373-1.2743 1.2394 1.2749 0 0 1 1.2373-1.2743 1.2394 1.2749 0 0 1 1.2399 1.2743 1.2394 1.2749 0 0 1-1.2399 1.2743zm19.989-0.13219a1.1507 1.1836 0 0 1-1.15-1.1844 1.1507 1.1836 0 0 1 1.15-1.1818 1.1507 1.1836 0 0 1 1.1527 1.1818 1.1507 1.1836 0 0 1-1.1527 1.1844zm-27.503-0.28817a0.7807 0.803 0 0 0 0.77991-0.80369 0.7807 0.803 0 0 0-0.77991-0.8037 0.7807 0.803 0 0 0-0.78254 0.8037 0.7807 0.803 0 0 0 0.78254 0.80369zm40.158-0.21678a0.57761 0.59412 0 0 0 0.57898-0.59485 0.57761 0.59412 0 0 0-0.57898-0.59484 0.57761 0.59412 0 0 0-0.57634 0.59484 0.57761 0.59412 0 0 0 0.57634 0.59485zm-45.242-0.2961a0.20818 0.21412 0 0 0 0.20885-0.21415 0.20818 0.21412 0 0 0-0.20885-0.21414 0.20818 0.21412 0 0 0-0.20886 0.21414 0.20818 0.21412 0 0 0 0.20886 0.21415zm50.408-0.11368a0.18211 0.18731 0 0 0 0.18242-0.18771 0.18211 0.18731 0 0 0-0.18242-0.18771 0.18211 0.18731 0 0 0-0.18242 0.18771 0.18211 0.18731 0 0 0 0.18242 0.18771zm-32.893-1.4065a1.05 1.08 0 0 0 1.0522-1.0813 1.05 1.08 0 0 0-1.0522-1.0786 1.05 1.08 0 0 0-1.0496 1.0786 1.05 1.08 0 0 0 1.0496 1.0813zm-9.8797-0.11104a1.1204 1.1524 0 0 0 1.1209-1.1527 1.1204 1.1524 0 0 0-1.1209-1.1527 1.1204 1.1524 0 0 0-1.121 1.1527 1.1204 1.1524 0 0 0 1.121 1.1527zm20.166-0.0978a0.929 0.95554 0 0 0 0.92795-0.95439 0.929 0.95554 0 0 0-0.92795-0.95704 0.929 0.95554 0 0 0-0.9306 0.95704 0.929 0.95554 0 0 0 0.9306 0.95439zm14.837 0a1.05 1.08 0 0 0 1.0496-1.0813 1.05 1.08 0 0 0-1.0496-1.0786 1.05 1.08 0 0 0-1.0496 1.0786 1.05 1.08 0 0 0 1.0496 1.0813zm-20-0.36748a0.59147 0.60837 0 0 0 0.5922-0.60806 0.59147 0.60837 0 0 0-0.5922-0.60806 0.59147 0.60837 0 0 0-0.5922 0.60806 0.59147 0.60837 0 0 0 0.5922 0.60806zm-20.058-0.20357a0.47743 0.49107 0 0 0 0.47852-0.49174 0.47743 0.49107 0 0 0-0.47852-0.49173 0.47743 0.49107 0 0 0-0.47587 0.49173 0.47743 0.49107 0 0 0 0.47587 0.49174zm45.271-0.13219a0.37805 0.38885 0 0 0 0.37806-0.38863 0.37805 0.38885 0 0 0-0.37806-0.38863 0.37805 0.38885 0 0 0-0.37805 0.38863 0.37805 0.38885 0 0 0 0.37805 0.38863zm-37.755-1.5413a1.2083 1.2429 0 0 0 1.2108-1.2452 1.2083 1.2429 0 0 0-1.2108-1.2426 1.2083 1.2429 0 0 0-1.2082 1.2426 1.2083 1.2429 0 0 0 1.2082 1.2452zm4.8989-0.1692a1.0153 1.0443 0 0 0 1.0152-1.0443 1.0153 1.0443 0 0 0-1.0152-1.0443 1.0153 1.0443 0 0 0-1.0152 1.0443 1.0153 1.0443 0 0 0 1.0152 1.0443zm15.294-0.20092a0.84606 0.87023 0 0 0 0.846-0.86979 0.84606 0.87023 0 0 0-0.846-0.8698 0.84606 0.87023 0 0 0-0.846 0.8698 0.84606 0.87023 0 0 0 0.846 0.86979zm-25.205-0.15863a0.7807 0.803 0 0 0 0.77991-0.80369 0.7807 0.803 0 0 0-0.77991-0.8037 0.7807 0.803 0 0 0-0.78254 0.8037 0.7807 0.803 0 0 0 0.78254 0.80369zm40.121-3e-3a0.77867 0.80091 0 0 0 0.7799-0.80105 0.77867 0.80091 0 0 0-0.7799-0.80106 0.77867 0.80091 0 0 0-0.77726 0.80106 0.77867 0.80091 0 0 0 0.77726 0.80105zm-25.118-0.25909a0.47743 0.49107 0 0 0 0.47851-0.49173 0.47743 0.49107 0 0 0-0.47851-0.49174 0.47743 0.49107 0 0 0-0.47852 0.49174 0.47743 0.49107 0 0 0 0.47852 0.49173zm5.1421-0.0846a0.47743 0.49107 0 0 0 0.47851-0.48909 0.47743 0.49107 0 0 0-0.47851-0.49174 0.47743 0.49107 0 0 0-0.47852 0.49174 0.47743 0.49107 0 0 0 0.47852 0.48909zm-25.258-0.22472a0.20818 0.21412 0 0 0 0.20885-0.21414 0.20818 0.21412 0 0 0-0.20885-0.21414 0.20818 0.21412 0 0 0-0.20886 0.21414 0.20818 0.21412 0 0 0 0.20886 0.21414zm50.35-0.0555a0.18211 0.18731 0 0 0 0.18242-0.18771 0.18211 0.18731 0 0 0-0.18242-0.18771 0.18211 0.18731 0 0 0-0.18242 0.18771 0.18211 0.18731 0 0 0 0.18242 0.18771zm-12.55-1.4118a1.1615 1.1947 0 0 0 1.1606-1.195 1.1615 1.1947 0 0 0-1.1606-1.195 1.1615 1.1947 0 0 0-1.1606 1.195 1.1615 1.1947 0 0 0 1.1606 1.195zm4.9253-0.14541a1.05 1.08 0 0 0 1.0522-1.0786 1.05 1.08 0 0 0-1.0522-1.0813 1.05 1.08 0 0 0-1.0496 1.0813 1.05 1.08 0 0 0 1.0496 1.0786zm-30.194-0.0106a0.95664 0.98397 0 0 0 0.95703-0.98348 0.95664 0.98397 0 0 0-0.95703-0.98347 0.95664 0.98397 0 0 0-0.95704 0.98347 0.95664 0.98397 0 0 0 0.95704 0.98348zm-4.9253-0.0872a0.95664 0.98397 0 0 0 0.9544-0.98611 0.95664 0.98397 0 0 0-0.9544-0.98348 0.95664 0.98397 0 0 0-0.95703 0.98348 0.95664 0.98397 0 0 0 0.95703 0.98611zm25.282-0.13218a0.84606 0.87023 0 0 0 0.84599-0.8698 0.84606 0.87023 0 0 0-0.84599-0.86979 0.84606 0.87023 0 0 0-0.846 0.86979 0.84606 0.87023 0 0 0 0.846 0.8698zm-5.1817-0.33576a0.47743 0.49107 0 0 0 0.47587-0.49174 0.47743 0.49107 0 0 0-0.47587-0.49173 0.47743 0.49107 0 0 0-0.47852 0.49173 0.47743 0.49107 0 0 0 0.47852 0.49174zm-10.12-0.0423a0.47743 0.49107 0 0 0 0.47852-0.49174 0.47743 0.49107 0 0 0-0.47852-0.49173 0.47743 0.49107 0 0 0-0.47851 0.49173 0.47743 0.49107 0 0 0 0.47851 0.49174zm30.236-0.0344a0.49209 0.50615 0 0 0 0.49174-0.5076 0.49209 0.50615 0 0 0-0.49174-0.50495 0.49209 0.50615 0 0 0-0.49174 0.50495 0.49209 0.50615 0 0 0 0.49174 0.5076zm-45.271-0.0159a0.47743 0.49107 0 0 0 0.47852-0.49174 0.47743 0.49107 0 0 0-0.47852-0.48909 0.47743 0.49107 0 0 0-0.47588 0.48909 0.47743 0.49107 0 0 0 0.47588 0.49174zm20.145-0.30667a0.18211 0.18731 0 0 0 0.18242-0.18771 0.18211 0.18731 0 0 0-0.18242-0.18771 0.18211 0.18731 0 0 0-0.18242 0.18771 0.18211 0.18731 0 0 0 0.18242 0.18771zm17.626-1.618a0.96198 0.98947 0 0 0 0.96232-0.98876 0.96198 0.98947 0 0 0-0.96232-0.98875 0.96198 0.98947 0 0 0-0.96232 0.98875 0.96198 0.98947 0 0 0 0.96232 0.98876zm-30.284-0.0952a0.8426 0.86668 0 0 0 0.84335-0.86715 0.8426 0.86668 0 0 0-0.84335-0.86715 0.8426 0.86668 0 0 0-0.84336 0.86715 0.8426 0.86668 0 0 0 0.84336 0.86715zm25.256-0.12426a0.72165 0.74227 0 0 0 0.72174-0.74289 0.72165 0.74227 0 0 0-0.72174-0.74289 0.72165 0.74227 0 0 0-0.72174 0.74289 0.72165 0.74227 0 0 0 0.72174 0.74289zm-30.231-0.1269a0.63871 0.65695 0 0 0 0.63715-0.65829 0.63871 0.65695 0 0 0-0.63715-0.65565 0.63871 0.65695 0 0 0-0.63978 0.65565 0.63871 0.65695 0 0 0 0.63978 0.65829zm40.209-0.0555a0.63871 0.65695 0 0 0 0.63978-0.65565 0.63871 0.65695 0 0 0-0.63978-0.65829 0.63871 0.65695 0 0 0-0.63714 0.65829 0.63871 0.65695 0 0 0 0.63714 0.65565zm-30.215-0.11104a0.47743 0.49107 0 0 0 0.47852-0.49174 0.47743 0.49107 0 0 0-0.47852-0.49173 0.47743 0.49107 0 0 0-0.47587 0.49173 0.47743 0.49107 0 0 0 0.47587 0.49174zm15.262-0.1692a0.35302 0.36311 0 0 0 0.35162-0.36484 0.35302 0.36311 0 0 0-0.35162-0.36219 0.35302 0.36311 0 0 0-0.35426 0.36219 0.35302 0.36311 0 0 0 0.35426 0.36484zm20.032-0.13483a0.23913 0.24596 0 0 0 0.23794-0.24587 0.23913 0.24596 0 0 0-0.23794-0.24587 0.23913 0.24596 0 0 0-0.24058 0.24587 0.23913 0.24596 0 0 0 0.24058 0.24587zm-50.35-0.0608a0.20818 0.21412 0 0 0 0.20885-0.21414 0.20818 0.21412 0 0 0-0.20885-0.21414 0.20818 0.21412 0 0 0-0.20886 0.21414 0.20818 0.21412 0 0 0 0.20886 0.21414zm20.145-0.0264a0.18211 0.18731 0 0 0 0.18241-0.1877 0.18211 0.18731 0 0 0-0.18241-0.18506 0.18211 0.18731 0 0 0-0.18242 0.18506 0.18211 0.18731 0 0 0 0.18242 0.1877zm17.679-1.9326a0.63871 0.65695 0 0 0 0.63979-0.65565 0.63871 0.65695 0 0 0-0.63979-0.65829 0.63871 0.65695 0 0 0-0.63978 0.65829 0.63871 0.65695 0 0 0 0.63978 0.65565zm4.9861-0.0291a0.63871 0.65695 0 0 0 0.63715-0.65565 0.63871 0.65695 0 0 0-0.63715-0.65829 0.63871 0.65695 0 0 0-0.63978 0.65829 0.63871 0.65695 0 0 0 0.63978 0.65565zm-35.178-0.0925a0.56037 0.57638 0 0 0 0.56047-0.57634 0.56037 0.57638 0 0 0-0.56047-0.57634 0.56037 0.57638 0 0 0-0.56047 0.57634 0.56037 0.57638 0 0 0 0.56047 0.57634zm4.9782-0.0423a0.47743 0.49107 0 0 0 0.47587-0.49174 0.47743 0.49107 0 0 0-0.47587-0.49174 0.47743 0.49107 0 0 0-0.47852 0.49174 0.47743 0.49107 0 0 0 0.47852 0.49174zm35.241-0.19035a0.37805 0.38885 0 0 0 0.37806-0.38863 0.37805 0.38885 0 0 0-0.37806-0.38863 0.37805 0.38885 0 0 0-0.37805 0.38863 0.37805 0.38885 0 0 0 0.37805 0.38863zm-15.046-0.0212a0.35302 0.36311 0 0 0 0.35162-0.3622 0.35302 0.36311 0 0 0-0.35162-0.36483 0.35302 0.36311 0 0 0-0.35426 0.36483 0.35302 0.36311 0 0 0 0.35426 0.3622zm-30.284-0.037a0.29615 0.30461 0 0 0 0.2961-0.30403 0.29615 0.30461 0 0 0-0.2961-0.30667 0.29615 0.30461 0 0 0-0.2961 0.30667 0.29615 0.30461 0 0 0 0.2961 0.30403zm15.072-0.14804a0.18211 0.18731 0 0 0 0.18242-0.18507 0.18211 0.18731 0 0 0-0.18242-0.1877 0.18211 0.18731 0 0 0-0.18241 0.1877 0.18211 0.18731 0 0 0 0.18241 0.18507zm22.665-2.1705a0.49209 0.50615 0 0 0 0.49174-0.50495 0.49209 0.50615 0 0 0-0.49174-0.5076 0.49209 0.50615 0 0 0-0.49438 0.5076 0.49209 0.50615 0 0 0 0.49438 0.50495zm5.1024-0.0872a0.37805 0.38885 0 0 0 0.37805-0.38863 0.37805 0.38885 0 0 0-0.37805-0.38863 0.37805 0.38885 0 0 0-0.37806 0.38863 0.37805 0.38885 0 0 0 0.37806 0.38863zm-35.302-0.11633a0.29615 0.30461 0 0 0 0.2961-0.30403 0.29615 0.30461 0 0 0-0.2961-0.30403 0.29615 0.30461 0 0 0-0.2961 0.30403 0.29615 0.30461 0 0 0 0.2961 0.30403zm25.277-0.0555a0.27008 0.2778 0 0 0 0.26966-0.2776 0.27008 0.2778 0 0 0-0.26966-0.27759 0.27008 0.2778 0 0 0-0.26966 0.27759 0.27008 0.2778 0 0 0 0.26966 0.2776zm-30.321-3e-3a0.29615 0.30461 0 0 0 0.2961-0.30403 0.29615 0.30461 0 0 0-0.2961-0.30667 0.29615 0.30461 0 0 0-0.2961 0.30667 0.29615 0.30461 0 0 0 0.2961 0.30403zm10.086-0.0582a0.18211 0.18731 0 0 0 0.18241-0.18771 0.18211 0.18731 0 0 0-0.18241-0.1877 0.18211 0.18731 0 0 0-0.17978 0.1877 0.18211 0.18731 0 0 0 0.17978 0.18771zm35.307 0a0.18211 0.18731 0 0 0 0.18242-0.18771 0.18211 0.18731 0 0 0-0.18242-0.1877 0.18211 0.18731 0 0 0-0.18242 0.1877 0.18211 0.18731 0 0 0 0.18242 0.18771zm-7.5955-2.464a0.23913 0.24596 0 0 0 0.24058-0.24587 0.23913 0.24596 0 0 0-0.24058-0.24587 0.23913 0.24596 0 0 0-0.23794 0.24587 0.23913 0.24596 0 0 0 0.23794 0.24587zm5.0733-0.0582a0.18211 0.18731 0 0 0 0.18242-0.18771 0.18211 0.18731 0 0 0-0.18242-0.1877 0.18211 0.18731 0 0 0-0.18242 0.1877 0.18211 0.18731 0 0 0 0.18242 0.18771zm-10.057-0.0291a0.18211 0.18731 0 0 0 0.17978-0.18771 0.18211 0.18731 0 0 0-0.17978-0.1877 0.18211 0.18731 0 0 0-0.18242 0.1877 0.18211 0.18731 0 0 0 0.18242 0.18771zm-30.234-0.0291a0.1536 0.15799 0 0 0 0.15334-0.15863 0.1536 0.15799 0 0 0-0.15334-0.15862 0.1536 0.15799 0 0 0-0.15334 0.15862 0.1536 0.15799 0 0 0 0.15334 0.15863zm5.0152 0a0.1536 0.15799 0 0 0 0.15334-0.15863 0.1536 0.15799 0 0 0-0.15334-0.15862 0.1536 0.15799 0 0 0-0.15598 0.15862 0.1536 0.15799 0 0 0 0.15598 0.15863z" clip-path="url(#a)"/></svg>
