<?xml version="1.0" encoding="UTF-8"?>
<svg fill="currentColor" version="1.1" viewBox="0 0 454.8 144.38" xml:space="preserve" xmlns="http://www.w3.org/2000/svg"><g transform="matrix(1.3333 0 0 -1.3333 -496.07 547.03)" stroke-width=".2256"><path d="m468.61 356.13v53.917h43.54v-29.779h52.338v-38.848c0-21.981-0.085-38.754-0.19586-38.633-0.10772 0.11788-3.4734 4.6304-7.4792 10.028-4.0059 5.3974-7.4885 10.042-7.7393 10.321l-0.45592 0.50759h-36.468v-21.432h-43.54z"/><path d="m512.15 312.93v10.716h36.547l0.99655-1.2972c2.8759-3.7435 14.785-19.82 14.789-19.965 3e-3 -0.0931-11.771-0.16919-26.164-0.16919h-26.169zm0 76.251v8.911h52.338v-17.822h-52.338z" fill-opacity=".7"/><path d="m372.73 350.15v47.939h95.878v-95.878h-95.878zm21.883-30.455v6.8807h4.6966l10.23-13.761h48.691v7.6702h-13.085v22.108h13.085l-0.016 10.039-15.997 16.301 16.013 16.375v2.4034h-11.418l-14.639-15.607-0.1186 15.607h-22.102v-11.423c0-7.8368-0.08-11.69-0.25484-12.273-0.7547-2.519-3.4303-4.4243-6.5435-4.6598-3.887-0.29398-6.9615 1.3631-8.0812 4.3556-0.44191 1.1811-0.46101 1.7037-0.46101 12.616v11.384h-11.534l0.0874-12.126c0.0968-13.427 0.0743-13.205 1.6428-16.319 2.0461-4.063 6.3779-7.2707 11.527-8.5358l1.7732-0.43566-15.002-0.0326v-37.449h11.505zm21.469 1.6544c-2.3988 3.1433-4.3277 5.7401-4.2863 5.7708 0.0414 0.0306 0.77984 0.24175 1.641 0.46912 4.6007 1.2146 7.6551 4.0974 8.4961 8.0188 0.2569 1.1979 0.16508 5.5445-0.13684 6.4773l-0.16429 0.50759h12.009v-22.108h-13.069l-0.128-4.8503zm-21.469 17.089v4.1921l6.2603-0.075c6.154-0.0737 6.2794-0.0846 7.3879-0.63898 1.513-0.75674 2.1435-1.7352 2.1435-3.3268 0-2.447-1.2612-3.6854-4.1837-4.1078-0.86292-0.12471-3.8277-0.22875-6.5884-0.23121l-5.0195-4e-3zm24.59 7.7448c-2.0954 2.1286-5.2417 3.3497-10.166 3.9454-1.4193 0.1717-2.3573 0.32307-2.0846 0.33638 0.94554 0.0461 4.2499 1.2027 5.9536 2.0839 3.1725 1.6409 5.9396 4.4206 7.1768 7.2096l0.44152 0.99531 0.0159-7.9522c9e-3 -4.3737-9e-3 -7.9357-0.0405-7.9155-0.031 0.0202-0.61474 0.60392-1.2972 1.2972zm12.859 11.914c0 7.6465 0.01 7.8226 0.41973 7.3882 5.3885-5.7118 14.018-15.007 14.018-15.099 0-0.0674-3.2486-0.12259-7.219-0.12259h-7.219zm193-40.682c-2.6224 0.82511-3.9642 2.3176-4.0279 4.4802-0.0306 1.0412 0.0275 1.1667 0.86651 1.8716l0.89934 0.7555-0.6258 0.6532c-1.2929 1.3495-1.2504 2.8498 0.12119 4.2718 0.67757 0.70248 0.68829 0.74383 0.30311 1.1694-0.55224 0.61021-1.0117 1.9883-1.022 3.0654-0.0199 2.0646 0.97837 3.7404 2.7874 4.6798 1.2441 0.646 4.5398 0.81946 5.9898 0.31524 0.94335-0.32803 1.0487-0.32277 1.7091 0.0854 0.38708 0.23922 0.97022 0.68189 1.2959 0.98371l0.59209 0.54875 0.91355-1.21c0.50245-0.66549 0.91355-1.2554 0.91355-1.3109s-0.54418-0.32646-1.2093-0.60213l-1.2093-0.50122 0.34396-0.68952c0.47709-0.95634 0.60146-2.6479 0.26878-3.6559-0.39612-1.2003-1.6126-2.4494-2.99-3.0701-0.99526-0.44855-1.5501-0.53318-3.5047-0.53456-2.264-2e-3 -2.3256-0.0153-2.4584-0.54434-0.23482-0.9356 0.38313-1.1493 3.3237-1.1493 1.4467 0 2.9754-0.11554 3.3972-0.25675 2.497-0.83604 3.677-3.3121 2.9042-6.0943-0.36217-1.3039-1.8227-2.5923-3.54-3.1227-1.6884-0.5215-4.6115-0.58843-6.042-0.13835zm5.2327 3.6419c0.75926 0.49749 1.0367 1.14 0.73537 1.703-0.39181 0.73212-1.5979 1.1089-3.5499 1.1089-1.6592 0-1.809-0.041-2.3979-0.65562-0.97951-1.0224-0.36841-2.0441 1.5081-2.5215 0.98048-0.24942 3.0825-0.0422 3.7043 0.36525zm-0.51856 11.236c0.75692 0.49596 0.9988 1.7492 0.48806 2.5287-0.50958 0.77771-1.3574 1.0626-2.8152 0.94578-0.98071-0.0786-1.3266-0.21885-1.7484-0.70916-0.87183-1.0136-0.56092-2.4187 0.65689-2.9686 0.90439-0.40843 2.6428-0.30502 3.4187 0.20336zm19.515-8.8833c-2.5624 0.46124-4.0388 2.0804-4.0388 4.4294 0 1.9077 0.97462 3.2592 2.9944 4.1524 1.377 0.60891 3.7786 1.1183 5.2962 1.1233 1.1686 4e-3 1.1844 0.013 1.1844 0.69095 0 1.429-1.8416 2.3508-3.6276 1.8158-0.48232-0.14451-0.98368-0.4622-1.1142-0.70598-0.2071-0.38699-0.47952-0.44324-2.1468-0.44324-1.1623 0-1.9096 0.0911-1.9096 0.23285 0 0.12806 0.15742 0.61027 0.34983 1.0716 0.84761 2.0322 2.9591 3.2075 5.7626 3.2075 2.2309 0 3.4175-0.35689 4.5755-1.3762 1.5317-1.3483 1.7656-2.1642 1.9229-6.7075 0.12185-3.5212 0.17888-3.942 0.57322-4.2299 0.24087-0.17584 0.62156-0.31972 0.84598-0.31972 0.35186 0 0.40808-0.20204 0.40808-1.4664v-1.4664l-0.84598 1e-3c-1.3636 2e-3 -2.4674 0.41381-3.0888 1.1522l-0.57984 0.6891-0.73184-0.61709c-0.4025-0.3394-1.0407-0.74656-1.4183-0.90481-0.93286-0.39099-3.1489-0.55628-4.4113-0.32904zm3.4012 3.4487c1.188 0.60702 1.7732 1.3504 1.9576 2.4868 0.13358 0.82304 0.12135 0.84069-0.58174 0.84069-1.2079 0-3.7986-0.68205-4.4063-1.16-0.95501-0.75121-0.66546-2.0668 0.55352-2.515 0.7016-0.25797 1.5154-0.14379 2.477 0.34754zm33.47-3.4375c-1.4254 0.2919-2.5765 0.96859-3.7112 2.1817-1.4838 1.5863-1.8934 2.8217-1.8934 5.7113 0 2.1378 0.0616 2.4942 0.63176 3.6552 0.79675 1.6225 2.498 3.1801 4.0288 3.6885 1.6972 0.5637 4.1653 0.36651 5.3671-0.42879 0.49723-0.32906 0.95702-0.59829 1.0217-0.59829s0.11763 1.7766 0.11763 3.9479v3.9479h3.6095v-22.108h-1.4484c-1.4247 0-1.4509 0.011-1.5965 0.6742-0.19839 0.90324-0.49922 1.0424-1.0888 0.5038-1.1723-1.0709-3.2175-1.548-5.0381-1.1752zm3.9281 4.2084c1.5052 1.1238 1.9787 3.9679 0.98256 5.9012-0.53162 1.0317-1.818 1.8293-2.9664 1.8392-0.88779 8e-3 -2.5288-0.92994-3.0802-1.7599-1.3885-2.09-0.56742-5.2888 1.6112-6.2773 0.91208-0.41383 2.7077-0.25946 3.4528 0.29684zm-104.4 6.6174v10.829h14.438v-3.8351h-10.377v-4.9631h9.2494v-3.8351h-9.2494v-5.1887h10.603v-3.8351h-14.664zm17.822-3.0455v7.783h3.1187l0.15512-0.91809c0.20319-1.2027 0.64423-1.3391 1.5358-0.47492 0.95626 0.92683 2.3654 1.3941 4.1862 1.3881 1.8803-6e-3 3.0511-0.51692 4.1628-1.8157 1.3498-1.5769 1.5412-2.5498 1.6721-8.5003l0.11542-5.2451h-4.0794l-0.0755 4.9067c-0.0685 4.4544-0.11796 4.9795-0.53658 5.6963-1.3508 2.3131-4.4081 1.8931-5.7366-0.78798-0.52277-1.0551-0.56338-1.3984-0.64712-5.4704l-0.0894-4.3446h-3.7816zm34.516 3.2711v11.054h4.0607v-22.108h-4.0607zm24.815-3.2608v7.7934l3.0184-0.1334 0.20042-0.78958c0.11022-0.43427 0.28208-0.87413 0.38191-0.97747 0.0998-0.10333 0.65431 0.17303 1.2322 0.61414 1.3451 1.0268 2.5413 1.3417 4.5995 1.2109 1.3603-0.0864 1.8145-0.2208 2.591-0.76657 0.51786-0.36397 1.1724-1.0043 1.4546-1.423 1.0191-1.5123 1.1856-2.6601 1.1856-8.1739v-5.1478h-4.0737l0.0269 4.8465c0.0238 4.2827-0.0214 4.9453-0.38829 5.6963-1.3474 2.7578-5.4288 1.628-6.1385-1.6992-0.14025-0.65752-0.25499-2.9163-0.25499-5.0195v-3.824h-3.8351zm-77.154 34.98v10.964l4.6811-0.0828c4.4638-0.079 4.7387-0.10967 5.9232-0.66191 2.6096-1.2166 3.7218-3.0329 3.7161-6.0688-5e-3 -2.4287-0.52697-3.5854-2.3747-5.2575l-1.3253-1.1993 2.1548-3.5959c1.1851-1.9777 2.3592-3.9295 2.609-4.3372l0.45426-0.74134-4.6462 0.129-4.5638 7.8958h-2.6806l-0.1232-8.0086h-3.8247zm9.2028 1.5518c0.89539 0.75342 1.2571 1.7105 1.1168 2.9551-0.21932 1.9458-1.4974 2.6552-4.567 2.5346l-1.8048-0.0709-0.063-2.9891-0.0629-2.9891h2.358c2.1809 0 2.4079 0.042 3.0228 0.55942zm12.906-12.305c-1.882 0.57455-3.9167 2.228-4.7265 3.8408-1.5873 3.1614-0.97369 7.2244 1.4463 9.5764 1.4224 1.3824 3.0904 1.9992 5.451 2.0156 1.6246 0.0113 2.0008-0.0702 3.318-0.71868 2.5642-1.2624 3.8794-3.381 4.0255-6.4845l0.0734-1.5598-5.5839-0.1128c-3.0711-0.062-5.5837-0.18893-5.5835-0.28199 2.2e-4 -0.0931 0-0.32118 0-0.50694 0-0.56243 1.5562-2.1012 2.4099-2.383 1.1751-0.38782 2.8395-0.15547 3.8964 0.54393 0.79062 0.52321 1.1312 0.59764 2.7345 0.59764h1.8314l-0.66444-1.1844c-0.79685-1.4204-2.4518-2.7558-3.9884-3.2183-1.1657-0.35086-3.6771-0.41791-4.6402-0.1239zm5.4135 9.7716c0 0.15509-0.20572 0.61803-0.45614 1.0288-1.2692 2.0816-4.9942 1.694-6.2041-0.64562l-0.34397-0.66513h3.5025c2.6521 0 3.5023 0.0685 3.5017 0.282zm10.371-9.6361c-1.8803 0.57963-3.5381 2.4209-3.9028 4.3346l-0.13973 0.73318h1.9119c1.54 0 1.9119-0.0651 1.9119-0.33483 0-0.18416 0.27917-0.64726 0.62039-1.0291 1.5128-1.6929 4.6372-0.71024 3.9008 1.2268-0.21526 0.56617-1.0039 0.92812-3.506 1.609-2.9097 0.79184-4.238 2.1245-4.238 4.252 0 1.9169 0.85232 3.0989 2.8872 4.0038 1.3231 0.58838 3.9816 0.69553 5.3846 0.21701 1.1484-0.39169 2.5884-1.709 3.1028-2.8385 0.6542-1.4364 0.6263-1.4664-1.3665-1.4664-1.6852 0-1.8261 0.0387-2.4642 0.67679-0.65209 0.65209-1.08 0.77928-2.2906 0.6809-1.2913-0.10494-1.8174-1.4946-0.81454-2.1517 0.29646-0.19426 1.4893-0.60685 2.6508-0.91687 2.57-0.68601 3.6939-1.383 4.2676-2.6468 1.1342-2.4981-0.17725-5.4184-2.8407-6.326-1.3098-0.4463-3.6688-0.45748-5.0748-0.0241zm15.527 0.0577c-3.2049 1.1643-5.1429 4.0356-5.1429 7.6195 0 6.4914 7.3207 10.011 12.552 6.0347 1.5329-1.1651 2.5627-3.5672 2.5627-5.9779v-1.3126h-5.6399c-4.3635 0-5.639-0.0638-5.6362-0.28199 9e-3 -0.719 1.0726-2.0852 2.0057-2.5774 1.5626-0.82433 3.8509-0.60384 4.7296 0.45572 0.24567 0.29622 0.72428 0.37334 2.317 0.37334h2.0073l-0.44271-0.86782c-0.67015-1.3136-2.6859-3.039-4.0744-3.4874-1.5029-0.48539-3.8692-0.47551-5.2384 0.0219zm5.9104 9.5784c0 0.15509-0.19153 0.59467-0.42457 0.97683-0.7852 1.2876-2.7847 1.8098-4.3792 1.1435-0.72265-0.30194-2.1888-1.7653-2.1888-2.1846 0-0.13057 1.4-0.21775 3.4967-0.21775 2.6474 0 3.4965 0.0685 3.4959 0.282zm9.7-9.7718c-2.1366 0.64993-3.2117 1.9216-3.341 3.952-0.20752 3.2591 1.9048 4.8715 7.2661 5.5463 2.0385 0.25659 2.1674 0.30396 2.1674 0.79637 0 0.28796-0.23848 0.8008-0.52995 1.1397-0.44399 0.51617-0.75358 0.63229-1.9085 0.71583-1.3024 0.0942-1.4173 0.0609-2.0817-0.60353-0.67074-0.67076-0.78713-0.70325-2.5188-0.70325h-1.8156l0.1459 0.7295c0.38734 1.9367 2.1394 3.3481 4.7071 3.7917 3.2078 0.55422 5.8544-0.49529 7.026-2.7862 0.63566-1.243 0.66645-1.4438 0.75962-4.9556 0.10461-3.9433 0.26832-4.5514 1.2947-4.809 0.52586-0.13199 0.56114-0.23311 0.56114-1.6088v-1.4679l-1.297 0.16204c-1.5437 0.19288-2.3997 0.59694-2.908 1.3727l-0.37413 0.57098-0.70043-0.67887c-0.38522-0.37339-1.1443-0.83548-1.6867-1.0269-1.028-0.36269-3.7658-0.44151-4.7662-0.1372zm4.258 3.3525c0.41789 0.19171 0.95057 0.66123 1.1837 1.0434 0.42694 0.69984 0.79362 2.0936 0.60137 2.2858-0.18884 0.18885-3.7201-0.52352-4.552-0.9183-1.4171-0.67244-1.3334-2.3681 0.13714-2.7812 0.8359-0.23477 1.5212-0.13829 2.6298 0.37026zm9.7304 4.2297v7.7929l1.6162-0.0663c1.5923-0.0653 1.6198-0.0769 1.8612-0.78327 0.3562-1.0425 0.47339-1.0818 1.3139-0.44075 1.079 0.82302 2.1246 1.2138 3.7347 1.396l1.4003 0.15842v-3.8934h-1.0454c-2.2989 0-4.0917-1.1079-4.5678-2.8226-0.14041-0.50573-0.25035-2.7027-0.25105-5.0169l-1e-3 -4.1171h-4.0607zm16.064-7.3787c-3.2953 1.1744-5.1794 4.1911-4.9621 7.9449 0.22052 3.8095 2.7052 6.5439 6.5558 7.2144 1.68 0.29257 3.4918 0.0301 4.9681-0.71975 1.5652-0.79496 3.0964-2.653 3.6428-4.42 0.15485-0.50079 0.12936-0.50759-1.9032-0.50759-2.0175 0-2.072 0.0142-2.6364 0.68489-0.78999 0.93885-1.6638 1.3455-2.8913 1.3455-3.2214 0-5.0159-3.7757-3.141-6.6089 0.64254-0.97094 2.0383-1.7254 3.2064-1.7332 0.88862-6e-3 2.4225 0.73306 2.8102 1.3539 0.24479 0.39197 0.53107 0.44589 2.3674 0.44589 1.5218 0 2.0883-0.0765 2.0868-0.28199-4e-3 -0.55373-1.331-2.5861-2.1684-3.3213-1.3542-1.189-2.649-1.6576-4.823-1.7452-1.4584-0.0588-2.2036 0.0246-3.1121 0.34839zm12.813 10.64v11.054h3.8351v-4.0607c0-3.7966 0.0271-4.0607 0.41623-4.0607 0.22893 0 0.59667 0.19939 0.81722 0.44309 1.124 1.242 4.7729 1.6539 6.5496 0.73947 1.1928-0.61393 2.0046-1.4983 2.6387-2.8745 0.49033-1.0643 0.52385-1.4433 0.59342-6.7115l0.0738-5.5835h-4.0954l-5e-3 4.9067c-5e-3 4.3612-0.0534 5.0135-0.44091 5.8672-0.50851 1.1203-1.2468 1.4968-2.6376 1.3449-1.3641-0.1489-2.4378-0.90497-3.0456-2.1447-0.48022-0.97945-0.52771-1.4135-0.60354-5.5186l-0.0823-4.4555h-4.0136z" fill-opacity=".9"/></g></svg>
