<?xml version="1.0" encoding="UTF-8"?>
<svg version="1.1" viewBox="0 0 250 91" xmlns="http://www.w3.org/2000/svg">
<title>University of Leeds</title>
<g transform="translate(0,-961.4)">
<g transform="matrix(.62868 0 0 .62868 22.796 464.06)" fill="#fff">
<path d="m-3.6738 913.36c-4.7207-0.33-7.3792-2.28-8.3952-6.17-0.241-0.92-0.249-1.16-0.293-9.29l-0.04-8.35h5.0298v7.73c0 6.77 0.023 7.8 0.1836 8.35 0.7189 2.42 2.3674 3.57 5.0912 3.55 2.8552 0 4.5361-1.31 4.9655-3.8 0.088-0.51 0.1294-3.18 0.1294-8.29v-7.54h5.0139v7.04c0 9-0.083 9.98-0.9804 11.97-1.2373 2.73-4.1213 4.5-7.7352 4.75-0.56403 0-1.1794 0.1-1.3674 0.1h-1.5954zm124.32 0c-1.32-0.12-2.98-0.51-4.05-0.97-1.02-0.44-2.16-1.08-2.16-1.22 0-0.12 1.73-3.42 1.85-3.55 0 0 0.29 0.1 0.56 0.25 3.06 1.94 6.9 2.01 8.17 0.16 0.23-0.34 0.26-0.49 0.21-1.07-0.12-1.33-0.88-2.03-3.95-3.66-1.04-0.55-2.24-1.24-2.68-1.54-1.65-1.12-2.63-2.36-3.1-3.9-0.26-0.85-0.25-2.79 0-3.67 0.53-1.8 1.9-3.33 3.65-4.11 1.28-0.56 2.38-0.77 4.17-0.77 2.12 0 3.92 0.36 5.5 1.12l0.42 0.21v2.12c0 1.17 0 2.16-0.1 2.2 0 0-0.42-0.11-0.85-0.33-2.41-1.21-4.53-1.6-6.13-1.12-1.17 0.35-1.88 1.37-1.61 2.34 0.31 1.07 1.12 1.75 3.76 3.13 2.45 1.28 3.55 2.02 4.48 3.01 1.26 1.33 1.71 2.5 1.71 4.45 0 0.99-0.1 1.35-0.31 2.08-1.14 3.4-4.8 5.24-9.58 4.84zm83.18 0c-3.4-0.3-5.97-1.48-7.93-3.65-2.67-2.96-3.61-7.65-2.39-11.99 0.85-3.03 2.91-5.6 5.62-7.02 4.03-2.1 9.49-1.89 13.2 0.51 3.52 2.28 5.37 6.68 4.84 11.53-0.29 2.59-1.06 4.59-2.43 6.31-1.92 2.4-5.07 4.04-8.17 4.26-0.63 0.1-1.24 0.1-1.37 0.12-0.12 0-0.74 0-1.37-0.1zm3.25-4.26c2.29-0.67 3.93-2.5 4.63-5.18 0.26-0.95 0.29-3.72 0.1-4.79-0.59-2.76-2.25-4.71-4.66-5.47-1.08-0.35-2.85-0.35-3.98 0-2.35 0.71-3.88 2.35-4.62 4.97-0.35 1.25-0.4 3.58-0.11 4.96 0.7 3.27 2.74 5.3 5.78 5.74 0.62 0.1 2.27 0 2.9-0.22zm120.22 4.2c-0.82-0.1-2.49-0.5-3.5-0.91-1.03-0.42-2.34-1.15-2.29-1.28 0.13-0.27 1.74-3.29 1.83-3.4 0.1-0.1 0.41 0 1.26 0.48 1.64 0.86 2.58 1.11 4.13 1.13 0.95 0 1.4 0 1.86-0.2 1.06-0.37 1.74-1.15 1.74-1.99 0-1.42-0.82-2.2-4.06-3.89-4.39-2.3-5.87-4.1-5.87-7.18 0-3.29 2.04-5.68 5.59-6.52 1.97-0.47 5.17-0.22 6.99 0.54 0.38 0.16 0.84 0.36 1.01 0.43l0.32 0.13v2.19c0 1.21 0 2.2-0.1 2.2 0 0-0.57-0.25-1.22-0.56-1.76-0.84-2.74-1.09-4.26-1.08-1.44 0-2.01 0.2-2.66 0.87-0.3 0.32-0.38 0.51-0.43 1.01-0.1 0.53 0 0.69 0.28 1.19 0.46 0.79 1.24 1.35 3.5 2.54 2.9 1.52 4 2.3 4.88 3.45 0.95 1.25 1.25 2.23 1.24 4.03 0 1.2 0 1.47-0.31 2.15-0.93 2.41-2.88 3.91-5.89 4.52-1.04 0.21-2.51 0.27-4.09 0.15zm-268.11-0.86c-1.229-2.97-9.179-22.52-9.224-22.68-0.05-0.19 0.129-0.2 2.675-0.2h2.731l2.26 5.9c1.242 3.24 2.677 7.01 3.186 8.37l0.927 2.47 0.318-0.98c0.379-1.16 1.213-3.21 4.23-10.38l2.266-5.38h2.54c1.397 0 2.54 0 2.54 0.1s-2.324 5.37-5.166 11.82l-5.166 11.73h-3.774l-0.343-0.83zm-45.034-11.09v-11.79h5.071l5.053 6.43c2.78 3.54 5.446 6.98 5.926 7.66l0.872 1.22 0.03-7.65 0.03-7.66h4.898v23.59h-4.596l-1.872-2.39c-5.402-6.9-9.391-12.05-9.892-12.77l-0.562-0.8 0.08 16.02h-5.032v-11.8zm28.374 0v-11.79h5.014v23.59h-5.014v-11.8zm33.844 0v-11.79h6.838c3.76 0 6.837 0 6.837 0.1s-0.284 0.97-0.631 2.05l-0.631 1.95h-7.399v5.36h7.407v4.1h-7.407v5.81h8.661v4.22h-13.675v-11.8zm18.917 0v-11.81l4.643 0.1c4.292 0 4.712 0.1 5.582 0.29 2.61 0.68 4.31 2.15 4.95 4.29 0.29 0.97 0.34 2.76 0.11 3.71-0.41 1.65-1.68 3.22-3.37 4.17l-0.63 0.35 0.35 0.33c0.54 0.51 1.23 1.45 2.24 3.02 0.92 1.46 4.22 6.97 4.32 7.25 0.1 0.12-0.49 0.15-2.79 0.15h-2.85l-1.74-2.99c-2.07-3.57-3.06-5.12-3.61-5.7-0.41-0.42-0.43-0.43-1.3-0.43h-0.89v9.12h-5.015v-11.8zm7.505-1.08c0.88-0.15 1.42-0.41 1.98-0.97 0.63-0.63 0.93-1.34 0.98-2.29 0-1.03-0.25-1.8-0.97-2.43s-1.33-0.81-3.03-0.89l-1.45-0.1v6.76h0.88c0.49 0 1.21 0 1.61-0.11zm31.69 1.08v-11.79h4.9v23.59h-4.9v-11.8zm15.16 2.06v-9.75h-6.95v-4.1h19.38l-0.1 0.31c-0.1 0.18-0.3 1.09-0.56 2.03l-0.47 1.71h-6.31v19.48h-5.01v-9.74zm20.74 5.06v-4.67l-4-6.96c-2.19-3.82-4.02-7.03-4.05-7.12-0.1-0.14 0.32-0.16 2.7-0.13h2.77l1.81 3.3c0.99 1.82 2.17 4.02 2.61 4.9l0.8 1.58 0.99-1.93c0.55-1.06 1.72-3.27 2.62-4.92l1.63-2.99h5.22s-1.82 3.23-4.04 7.14l-4.05 7.09v9.32h-5.01v-4.68zm51.28-7.12v-11.79h6.89c3.79 0 6.9 0 6.89 0.1 0 0-0.27 0.95-0.61 2.02l-0.62 1.94h-7.54v5.35h7.4v4.1h-7.47v10.03h-5.01v-11.8zm25.52-0.1v-11.74h5.02v19.37h8.2v4.1h-13.22v-11.73zm16.3 0v-11.74h13.76l-0.65 2.02-0.64 2.03h-7.46v5.35h7.41v4.1h-7.41v5.81h8.66v4.1h-13.67v-11.73zm17.78 0v-11.74h6.83c5.4 0 6.84 0 6.84 0.14 0 0.1-0.28 0.99-0.61 2.03l-0.6 1.88h-7.45v5.35h7.52v4.1h-7.52v5.81h8.66v4.1h-13.67v-11.73zm17.77 0v-11.75h4.13c2.28 0 4.75 0.1 5.5 0.11 6.55 0.51 10.66 4.18 11.24 10.03 0.17 1.68 0.1 3.18-0.29 4.62-1.12 4.36-4.37 7.27-9.37 8.39-1.04 0.23-1.5 0.25-6.16 0.29h-5.05v-11.74zm10.39 7.24c3.49-0.98 5.4-3.84 5.19-7.76-0.12-2.14-0.72-3.66-1.97-4.9-1.56-1.57-3.8-2.22-7.6-2.23h-0.99v15.31l2.19-0.1c1.84-0.1 2.35-0.12 3.18-0.35zm-37.28-63.03v-31.97h64.5v63.93h-7.75v-19.14h-5.7v19.14h-0.8v-20.97h-10.25v20.97h-0.91v-19.14h-5.59v19.14h-33.5v-31.96zm39.09 11.11v-0.91h11.96v1.82h4.45v-3.88h-0.8v-13.21h-1.26v-6.95h-16.63v6.95h-1.26v13.21h-0.79v3.88h4.33v-0.91zm0.11-7.1c0-2.27 0-4.63-0.1-5.24l-0.1-1.11h3.23v1.71h-2.05v8.77h-1.03v-4.13zm4.33-0.68c0-2.65 0-5.01-0.1-5.24l-0.1-0.43h3.22v1.71h-2.05v8.77h-1.03v-4.81zm4.33 1.88c0-1.61 0-3.97-0.1-5.24l-0.1-2.31h3.23v1.71h-2.05v8.77h-1.03v-2.93zm-9.96-9.37c-0.16-0.25-0.3-0.48-0.3-0.51 0 0 3.39-0.1 7.53-0.1 5.25 0 7.52 0 7.52 0.12 0 0.1-0.14 0.3-0.3 0.51l-0.3 0.39h-13.85l-0.3-0.45zm3.92-5.24v-1.26h1.48v0.46c0 0.44 0 0.45-0.4 0.45h-0.4v1.6h-0.68v-1.25zm2.51 0v-1.26h1.48v0.46c0 0.44 0 0.45-0.4 0.45h-0.4v1.6h-0.68v-1.25zm2.62 0v-1.26h1.48v0.46c0 0.45 0 0.45-0.46 0.45h-0.45v0.8c0 0.78 0 0.8-0.29 0.8h-0.28v-1.25zm4.11-5.47-0.29-2.05h-11.34s-0.26 1.87-0.51 3.62l-0.1 0.43h12.49l-0.29-2.05zm-0.76-2.95c-0.15-0.14-4.88-2.96-5.1-3.04-0.1 0-1.16 0.53-2.74 1.49-1.42 0.85-2.58 1.57-2.58 1.6h5.27c2.93 0 5.21 0 5.15-0.1zm-6.37 37.09c-1.01-0.47-1.77-1.62-1.77-2.69 0-0.6 0.36-1.5 0.78-1.96 1.43-1.59 4.07-1.14 4.92 0.84 0.3 0.7 0.28 1.72 0 2.38-0.69 1.44-2.48 2.09-3.89 1.43zm2.36-0.86c0.68-0.47 0.94-0.99 0.94-1.83 0-0.59-0.1-0.83-0.28-1.15-0.43-0.65-0.97-0.94-1.77-0.95-0.82 0-1.39 0.29-1.86 0.99-0.25 0.38-0.3 0.59-0.29 1.16 0 0.99 0.52 1.69 1.47 2.02 0.44 0.16 1.39 0 1.79-0.24z" fill="#fff"/>
</g>
</g>
</svg>
