<?xml version="1.0" encoding="UTF-8"?>
<svg aria-label="Github" role="img" version="1.1" viewBox="83 -108.9 64 64" xmlns="http://www.w3.org/2000/svg">
<path d="m114.96-108.9c-17.653 0-31.96 14.687-31.96 32.808 0 14.499 9.156 26.795 21.867 31.132 1.5867 0.3 2.1733-0.712 2.1733-1.5773v-6.1107c-8.88 1.9827-10.76-3.868-10.76-3.868-1.46-3.7893-3.5533-4.7973-3.5533-4.7973-2.904-2.036 0.22133-1.9947 0.22133-1.9947 3.212 0.22667 4.892 3.3787 4.892 3.3787 2.8533 5.016 7.4933 3.5653 9.3067 2.7253 0.29333-2.116 1.12-3.5653 2.0267-4.3813-7.0933-0.83067-14.556-3.6467-14.556-16.217 0-3.5853 1.2493-6.5107 3.2893-8.8067-0.33334-0.83333-1.4267-4.1707 0.32-8.688 0 0 2.6667-0.88133 8.7867 3.3653 2.5333-0.73067 5.28-1.092 7.9867-1.104 2.72 0 5.4667 0.376 8 1.108 6.1067-4.2507 8.7733-3.3653 8.7733-3.3653 1.7467 4.5213 0.65334 7.8547 0.32 8.684 2.0667 2.296 3.2933 5.2213 3.2933 8.8067 0 12.603-7.4667 15.379-14.587 16.193 1.1467 1.016 2.16 3.0107 2.16 6.072v9.0013c0 0.87333 0.58667 1.896 2.2 1.576 12.693-4.3453 21.84-16.641 21.84-31.132 0-18.121-14.307-32.808-31.96-32.808z" fill="currentColor" />
</svg>
